<svg xmlns="http://www.w3.org/2000/svg" viewBox="0 0 2172 1629" fill="#CC0000"><path d="M1099.5 307c-17 3.4-35.5 17.1-42.4 31.2-5.1 10.5-6.4 17.6-5.8 31.3.6 12.7 2 18.6 6.3 26.5 2.4 4.4 2.6 5.3 1.6 9.1-.8 3.2-.8 4.8.1 6.3 1.1 2 1.2 1.9 1.5-.9.4-3.5 2.2-5.9 2.2-2.9 0 2.7 2.8 6.4 4.8 6.4 1.1 0 2.1 1.3 2.8 3.5 1 3.3.9 3.8-2.8 8.8-5.2 6.9-11.5 17.6-12.3 20.7-.4 1.8 0 3.4 1.5 5.3l2.2 2.8-2.1 4.9c-2.6 6.1-2.7 9.5-.1 12.7 1.1 1.4 2 3.1 2 3.8 0 1.4-8.6 5.5-18.8 8.9-10.4 3.6-14.6 6.1-22.9 13.6-4.2 3.9-8 7-8.5 7-4 0-11.9-10-18.7-23.8-5.1-10.3-7-11.9-9.9-9-1.7 1.7-1.5 4.6.8 11.8 1.1 3.4 2 6.7 2 7.2 0 1-13.8-8.1-18.8-12.4-1.8-1.5-4.8-3.4-6.6-4.2-1.9-.8-3.7-1.9-4-2.5-1.1-1.7-4.4-1.3-5.4.6-.5 1-.8 4.1-.7 7l.1 5.1 11.2 11.3c17 16.9 24.6 29.9 19.9 33.8-.8.6-3.6 1.5-6.3 2-12.2 2.4-18.6 8.2-14.5 13.2l1.7 2.2 9.6-1.8c5.3-.9 10.2-1.5 10.8-1.3.7.2-1.9 3.7-5.7 7.8s-7.9 9.1-9.1 11.1c-2.6 4.4-10.4 11.6-20.3 18.9-4.1 3-10.5 8.7-14.4 12.6-3.8 3.9-9 8.2-11.5 9.4-2.5 1.3-6.6 4.1-9.1 6.4-2.6 2.3-6.3 4.9-8.2 6l-3.6 1.9-4.7-4.2c-2.6-2.2-5.3-4.1-6-4.1-1.8 0-1.8-1.5 0-4.8.8-1.5 1.9-5 2.6-7.9 1.1-5.1 1.1-5.4-3-14.5-2.2-5.1-5.5-11.4-7.2-14.1-1.7-2.6-2.9-4.9-2.7-5 .2-.2 2.7-1.8 5.5-3.5 16-10.1 24.3-26.9 23-46.7-.7-11.3-2.7-18.8-7.6-29-9.9-20.2-24.3-32.6-43.8-37.6-13-3.3-23.3-2.3-36 3.7-12.8 6.2-23.4 19.1-24.9 30.6-.4 2.4-1.7 5.9-2.9 7.8-3 4.4-4 11.7-2.6 17.2.7 2.4 1.4 8.8 1.6 14.3.4 7.2 1.3 12.8 3.5 19.9 2.3 7.5 2.8 11 2.4 14.6-.3 2.7-.1 5.5.5 6.6 1 1.7 1.1 1.7 1.2-.6 0-1.4.4-3.1.9-3.9.7-1.1 1.1-1 2 .7.6 1.1 1.8 2.8 2.7 3.6 1.5 1.5 1.2 2.1-3.3 7.1-8.1 9.3-12.3 14.9-12.3 16.7 0 .9 1.1 2.5 2.5 3.6s2.5 2.2 2.5 2.5c0 .2-1.1 3-2.5 6l-2.4 5.6-5.1-1.5c-3.9-1.2-9.4-1.4-25.7-1.1-20.2.4-20.9.3-24.9-1.9-2.3-1.3-6.1-2.6-8.5-3-12.4-1.8-19.8-4.3-25.7-8.4-4.9-3.5-7.1-4.4-12.3-5-3.5-.4-7.7-1.4-9.4-2.3-1.6-.9-3.6-1.7-4.3-1.7s-3-1.4-5.1-3c-2.8-2.3-5.6-3.4-11.4-4.4-4.2-.7-8.2-1.7-8.9-2.3-.7-.5-10.5-5.3-21.8-10.6-16.3-7.7-21.5-9.7-25-9.7-4.1 0-5.2-.6-12.5-7.1-4.4-3.9-10.7-8.7-14-10.6s-7.6-4.8-9.6-6.4c-4.7-3.7-5.6-3.7-3 0 1.1 1.5 4.4 4 7.3 5.5 3 1.5 10.5 7.2 16.8 12.6 7.2 6.2 12.4 9.9 13.8 10 3.2 0 7.2 4.3 7.2 7.8 0 3.2-2.7 13.2-4 14.5-.4.5-2.3-.5-4.1-2.2l-3.4-3 3.2-.1c1.7 0 3.5-.5 3.8-1 .3-.6 0-1-.9-1-.8 0-1.6-.5-1.8-1.1-.2-.7-1.9-1.3-3.7-1.4-1.9-.2-3.7-.9-4.1-1.6-1.1-1.6-11.8-1.6-17.8 0-5.5 1.5-8.2.7-8.2-2.4 0-2 1.3-3 7.8-6.2 9-4.3 8.7-4.1 7.9-4.9-.3-.3-2.2-.1-4.2.6-4.4 1.5-6.5.1-6.5-4.1 0-2.3-.5-2.9-2.1-2.9-2.4 0-8.1-5.9-7.5-7.7.3-.7.1-1.5-.4-1.8-1.5-.9-8-11.1-8-12.5 0-.6-1.3-2.5-3-4-2.7-2.6-4.3-8-2.2-8 .4 0 2.6 2.3 5 5 2.4 2.8 4.8 5 5.4 5s-.5-1.8-2.3-3.9c-1.9-2.1-4.4-5.1-5.6-6.5-2.7-3.3-5.3-2.5-5.3 1.6 0 1.6 1.9 6.4 4.2 10.6s3.5 7.1 2.6 6.4-2.2-2.7-2.9-4.4-2.3-4.1-3.6-5.4-2.3-3.2-2.3-4.2c0-1.1-.7-2.5-1.4-3.2-1.7-1.3-4.1-7.9-3.2-8.7.3-.3 1.4.5 2.5 1.8s2 1.9 2.1 1.3c0-.6-1.1-2.1-2.4-3.4-5.1-4.7-8.2.9-4.6 8 1.2 2.3 1.9 4.5 1.6 4.8-.4.3-2.2-1-4.1-2.8s-3.7-3.1-4-2.8c-.4.3 1.6 2.5 4.3 4.7 5.1 4.3 15.7 20.2 14.9 22.4-.2.7-.9.3-1.6-1.1-.6-1.2-1.7-2.2-2.4-2.2s-2.8-1.9-4.7-4.2-4.7-5.6-6.2-7.3c-1.6-1.8-2.8-4-2.8-4.9s-.7-1.9-1.5-2.2c-1.5-.6-5.5-6.8-5.5-8.6 0-.7.6-.6 1.5.2 1.8 1.5 2-.1.3-1.8s-4.7-1.5-5.4.3c-1 2.6.4 5.8 6 13.5 3.1 4.1 5.6 7.8 5.6 8.3 0 .4-1.8-.2-4-1.3-5.9-3-4.9-1.9 2.5 2.9 6.6 4.3 8.5 6.1 6.4 6.1-1.7 0-7.7-3.7-13.2-8.3-3.5-2.9-4.5-4.2-3.5-4.8.9-.6.8-.9-.5-1.5-4.3-1.6-6.3 2.5-2.9 6.2 1 1 6.3 5.3 11.7 9.4 5.5 4.1 11.3 9.1 13 11 8.7 9.9 24 21.2 30.5 22.5 8 1.5 9.8 2.6 10.4 6.4.3 2 .6 5.5.6 7.8 0 2.4 1 6.8 2.2 9.9 2.2 5.2 3.1 6.2 15.3 15.3 7.2 5.3 15.6 11.2 18.9 13.1 3.2 1.9 8.9 6.2 12.6 9.6 5.3 4.6 8.2 6.4 12.7 7.7 4.2 1.2 7.2 2.9 10.8 6.3 6 5.5 7.2 6 16 6.9 6.2.6 7.9 1.3 15.5 6.2 4.7 3.1 11.9 8.2 16 11.4 4.2 3.2 9.2 6.5 11.2 7.3 1.9.8 10.3 2.7 18.7 4.1 21.6 3.7 22 3.9 24.7 11.1 3.6 9.8 3.9 13.5 1.3 18.6-2.1 4.1-2.3 5.6-.6 5.1.4-.2.7.4.7 1.2s-.9 1.5-1.9 1.5c-2.1 0-2.4.5-16 25.7l-8.2 15.1-2.8-1.1c-3.7-1.4-5.7.1-7.3 5.5-1.1 3.8-1 4.1 1.3 5.8l2.4 1.9L716 788c-4.7 9.4-8.5 17.7-8.6 18.3-.1 2.3-2.7 6.6-4.1 6.9-2.2.5-44.6 83.7-43.9 86.2 1 4.2-2.9 16.1-8.7 26.3-3.1 5.5-6.3 10.6-7.2 11.3-.8.7-1.5 1.9-1.5 2.6 0 .8-2.1 5.1-4.6 9.6-2.6 4.6-6.4 11.5-8.5 15.4-4.2 7.6-8.9 13-8.9 10.1 0-2.7-2.2-3.1-4.2-.7-1.4 1.7-1.8 3.9-1.8 9.4 0 4.5-.5 7.9-1.3 9.1-1.2 1.5-1.3.6-.9-6.6.2-4.6 1-9.7 1.8-11.3s1.4-4.4 1.4-6.3c0-1.8.5-3.3 1-3.3.6 0 1 .4 1 1 0 .5.5 1 1 1q1.05 0 0-2.1c-1.5-2.8-5.2-2.1-6.2 1.1-.4 1.4-1.2 9.2-1.8 17.5-.8 9.4-1.7 15.7-2.6 17-.8 1.1-1.4 2.8-1.4 3.8s-8.6 13.3-19.2 27.4c-15.7 21-19.2 26.2-19 28.5.2 2.5-1 4.2-7.1 10.1-4 4-9.2 8.5-11.6 10.2-4.6 3.2-13 13.7-19.5 24.5-2.2 3.6-5.3 7.4-6.9 8.5-1.7 1.1-5.1 5.4-7.7 9.5-5.7 9.3-23.6 41.5-32 57.5-3.4 6.6-7.7 13.7-9.6 15.7-4 4.5-6 8.2-6.9 13-.4 2.3-2.1 5-4.6 7.4-2.5 2.5-4.5 5.6-5.4 8.7-1.4 4.9-3.2 7.4-10.7 15.7-2.2 2.5-6.3 8.1-9 12.5-2.8 4.4-7.4 10.5-10.2 13.6-5.4 5.8-7 9.5-8.2 18.6l-.7 5.3 3.9 1.6c5.9 2.5 24.6 3 36.9 1 10.1-1.7 12.9-3.1 14.1-7 .4-1.1 1.5-3.1 2.5-4.4s2.1-3.7 2.5-5.5c.3-1.7 2.2-5.2 4.1-7.6 1.9-2.6 4.2-7.5 5.5-11.8 1.5-5.1 3.1-8.3 5.5-10.8 1.8-1.9 3.3-4.3 3.3-5.4 0-1.5 1.4-2.8 4.8-4.5 6.3-3.2 8-5.3 9.1-11.1.7-3.6 1.7-5.4 3.8-6.9 11.2-8.1 49.7-47.9 58.3-60.5 1.4-2 3-3.8 3.5-4 .6-.2 3.6-3 6.7-6.3 4.3-4.4 6.2-7.3 7.3-11.1 1.5-5 2-5.6 15.2-15.3l13.6-10.1 6.7 3.8c21.3 12 48.8 20.9 65 20.9 2.6 0 6.4.7 8.4 1.5 9.8 4.1 51 15.6 60.9 17l4.8.6-.6 4.4c-.9 5.6.1 6.2 15.3 8.2 15.7 2 29.8 1.4 32.1-1.5 2.4-3.1 7.1-1.9 7.1 1.8 0 2.3.5 2.9 3.1 3.4 7.8 1.5 43.4.2 50-1.9 1.2-.4 1.9-1.6 1.9-3.3v-2.7l13.8-.1c10.7 0 15.7-.5 22.7-2.2 5-1.3 9.6-2.6 10.3-3 .9-.7.5-7.2-2.2-30.8l-3.3-29.9 5.8-5.3c3.2-3 9.2-9.5 13.3-14.6 7.3-9.1 12.8-14.6 14.6-14.6.5 0 1.4.9 1.9 1.9.8 1.5.4 3.4-1.9 8.5-1.7 3.6-3 7.2-3 8 0 .7-.9 1.6-2 1.9s-2.2 1.7-2.5 3.3c-.4 1.6-2.4 9.4-4.6 17.4-6 22.4-12.1 55.6-13.5 74-.5 5.9-1.4 9-4.2 14.5-3.3 6.5-3.4 7.2-2.3 11.2 1.6 6.1 1.4 9.4-.9 12.8-1.3 1.9-2 4.7-2 7.6 0 2.5-1 7.2-2.2 10.5-2.4 6.7-2.9 19.9-1.2 37.9l.9 9.9 4.5.9c5.9 1.1 22.7.2 24.6-1.3.7-.7 1.4-2.8 1.4-4.6v-3.5l2.8 1.5c1.6.8 4.6 3.3 6.8 5.6 3.7 3.8 4.7 4.2 11.5 5.2 8.2 1.1 35.4.4 43.4-1.2 6.7-1.4 7.7-2.6 6.9-8-1-6.2-5.3-10.6-12.3-12.6-13-3.6-17-6.8-27.3-22.3-7-10.3-7-10.3-7.2-17.8-.1-6.6.1-7.6 2.2-9.6 3.5-3.2 4.3-6 3.3-11.3-.7-3.8-.5-5.2.9-7.8 4.2-7.3 34.9-92.3 35.4-98.1.2-1.7 1-4.9 1.9-7.1.8-2.3 1.8-6.8 2.2-10 .4-3.3 1.8-7.9 3-10.4 6.1-12.4 11.6-30.9 13-43.9.5-4.2 1.4-7 2.6-8.2 1-1 1.9-2.6 1.9-3.5 0-1.3.7-1.5 3.3-1 9.8 1.8 14 1.9 14.8.4.5-1 1.8-1.3 3.8-1 2.5.3 3.1.9 3.6 4.2.6 3.5 1 3.9 5 4.9 2.4.6 8.2 1.1 12.8 1.1h8.4l.7 8.7c.4 6 1.7 11.9 4.1 18.8 3.6 10.3 6.1 26.6 4.5 29.5-.9 1.7-.3 5 11.2 62.5 4.4 22 8.3 41.3 8.5 42.8.3 1.5 0 4.7-.7 7-.9 3.5-.9 5 .4 8.7 2.2 6.2 2 7.7-1.3 14-1.6 3-4.8 10.9-7.1 17.5s-4.8 13-5.6 14.2-4 4-7.1 6.1c-8 5.5-10.1 8-11.7 14.3-1.4 5.1-1.4 5.5.5 7.4 1.8 1.8 3.2 2 17.7 1.9 17.1-.2 30-2.1 34.2-5.2 1.6-1.2 3.3-4.2 4.6-8.3 1.7-5.1 2.5-6.3 4-6.1 6.9 1.2 15.1.5 19-1.5l4.1-2.2.8-15.8c.7-17.2.4-20.6-3.1-29.9-1.5-4.1-2.1-7.4-1.8-9.6.3-1.9-.2-5.9-1.1-9.1s-1.3-6.6-.9-7.5c1.1-2.5 1.9-35.9 1.7-74.5 0-29.7-.3-34-1.7-35.6-.9-1-1.6-3.5-1.6-5.5 0-2.1-.7-6.9-1.7-10.7-1.3-5.7-1.4-7.9-.5-13.8.7-3.8 1-7.5.8-8.3-.2-.7-.7-2.5-1-4l-.6-2.6 7.3.5c8.6.6 29-1.1 36.7-3.2 3-.8 5.6-1.3 5.8-1 .4.4-4 10.3-17 38.3-5 10.6-8.8 19.4-8.6 19.6 11.2 7.7 24.1 17.3 38.3 28.6 9.9 7.8 23.5 17.8 30.2 22.3l12.2 8.2 13.1 23c7.3 12.7 14.9 25.8 17.1 29.2 2.6 4.2 3.9 7.4 3.9 9.8 0 5.3 2.4 10.1 6.4 12.7 3.5 2.2 3.6 2.6 3.4 7.3-.2 5.1.8 8.1 3.6 10.5.9.7 1.6 1.9 1.6 2.8 0 .8-2.5 7.9-5.6 15.6-6.6 16.4-9.2 19.8-17.3 21.5-10.4 2.2-14.5 5.7-16.5 14.3-.5 2.2-.1 3.1 2.1 4.5 2.4 1.6 5.1 1.8 22.3 1.7 19.4 0 29.8-1.2 35-3.9 1.5-.8 4-3.3 5.6-5.6 3.2-4.7 12.1-12.2 13.7-11.6.6.2 1.5 2.1 2.2 4.3 1 3.7 1.3 3.9 6 4.6 5.3.8 13.7-1.1 23.8-5.4 5.2-2.3 5.4-2.8 3.7-11.9-.6-2.9-1.5-9.3-2-14.1-1.7-14.4-6.4-24.7-18-38.8-2.9-3.5-3.9-5.7-4.3-9.7-.3-2.9-2.4-9.8-4.6-15.5-2.2-5.6-3.9-10.4-3.7-10.6.2-.1 5.3.2 11.2.9 19 2 40 0 65.9-6.4 16.7-4.2 15.5-4 15.5-1.5 0 5.1.7 5.2 15.4 3.9 12.4-1.1 24.9-3.4 33.5-6.2l3.4-1.1-.7-6.3-.6-6.2 18.7-.6c22-.6 35.5-3.1 52.5-9.5 10.5-4 24.4-11.9 25.4-14.6.3-.7-.2-4.2-1.1-7.6s-1.5-6.3-1.3-6.4c.2-.2 2.7-1.7 5.6-3.4l5.2-3.2 2.9 4c1.6 2.2 3.2 5.5 3.5 7.4.7 3.7 7.5 12.1 10.7 13.1 1.1.4 2.4 1.7 2.9 3 1.8 4.8 27.7 38.6 42.9 56 3.3 3.8 6.1 7.9 6.1 8.9 0 4.6 4 10.3 9 13 4.9 2.7 5 2.8 5 7.3 0 3.8.5 5 3.3 7.7 1.7 1.8 3.7 3.5 4.4 3.7.6.2 2.1 5.1 3.3 10.9 1.4 6.9 3.2 12.3 5.2 15.9 1.7 2.9 3.6 7.2 4.3 9.5 1.6 5.7 6.7 8.3 13.4 6.8 2.5-.6 5-.8 5.4-.5.5.3 2 3 3.3 5.9s3.5 6.1 5 7.1c3.9 2.5 15.2 4.2 28.1 4.3 13.4 0 20.3-1.3 23.2-4.4 2.2-2.3 2.2-2.4.6-8.7-2.3-8.7-4.7-12.3-11.5-16.9-5.5-3.8-11.9-10.5-17-18-1.4-1.9-5.6-6.9-9.5-11-4.9-5.2-7.7-9.1-8.9-12.5-1-2.8-2.3-6.2-2.8-7.7-.5-1.4-2.6-4.2-4.7-6.1-3.2-3-3.8-4.2-5-11.1-1.1-6.8-1.8-8.3-5.5-12.5-2.3-2.6-4.8-6.3-5.6-8.2-5.1-13.1-13.8-32.7-23.1-52.2-6-12.6-10.9-23.9-10.9-25.3 0-4.4-2.6-8.9-7.6-13.2-7.4-6.3-17.4-19.2-17.4-22.4 0-1.8-2-5.2-6-10.1-8-10-13.3-19.1-26.3-45.1-12.1-24.3-19.7-40.9-35.7-78.1-19.7-45.7-38.1-84.3-46.1-97.1-7-11-40.4-41.9-56.6-52.2-5-3.2-5.4-3.8-7.7-11-1.3-4.3-3.4-11.7-4.7-16.6-2.2-8.5-2.2-9-.6-11.8 2.4-4.2 2.1-7.8-.9-10.9l-2.7-2.8 1.7-6.7c.9-3.6 1.9-10.3 2.2-14.8.4-6.1 1.6-10.8 4.6-19.1 3.6-9.6 4.1-12 4.1-19-.1-7.9-2.4-20.3-6.1-32.1l-1.9-6.1 5-9.2c3.1-5.8 5.8-9.6 7.2-10.1 1.2-.5 2.8-2.3 3.5-4.2.8-1.8 3.4-6.5 5.9-10.3 23.3-36 23.6-36.6 21-38.9-.8-.7-7.5-3.9-14.9-7.1s-15.6-6.8-18.2-8.1c-5.2-2.7-9-3.1-10.5-1.2-.6.7-4.7 10.3-9.3 21.3-4.5 11-8.9 20.4-9.6 20.8-.8.4-1.4 1.7-1.4 2.7 0 2.2-11.3 11.1-18.9 14.9-5.3 2.7-8.5 1.8-9.5-2.6-2.3-9.8-3.7-13.1-5.6-13.6-1.4-.4-2-1.4-2-3.4 0-2.3.8-3.3 4.9-5.6 10.6-5.9 19.9-20.3 22.1-34.2.8-4.7.8-9.5.1-16-5.5-49.1-46.8-77.9-84.5-58.8-9 4.6-18.5 15.3-26.4 29.6-1.7 3.1-2.1 5.1-1.7 7.7.3 2 .1 4.9-.5 6.5-2 5.2-1.4 20.9 1.1 30.6 2.1 8.2 2.1 9.3.9 15.8-.9 4.6-1 7.8-.4 9.2.8 1.7 1.2 1.1 2.3-4.1 1.5-6.8 1.9-6.6 4.6 1.8 1 2.9 2.3 5.1 2.9 4.9 1-.3 5.6 5.3 5.6 6.8 0 .4-2.9 4.8-6.4 9.8-10.3 15-10.6 15.7-6.4 20.3 1.9 2.1 1.9 2.3-.1 10.2-2.6 10.1-2.6 11.7 0 13.6 2.6 1.8 7.1 9.5 6.5 11.1-.2.6-3.5 3-7.3 5.3-7.5 4.6-13.7 10.4-17.7 16.9-1.4 2.4-2.8 4.3-3.1 4.3s-20.1-4.3-31.2-6.7c-1.3-.3-3.4.2-4.8 1.1-2.1 1.4-3.2 1.5-6.6.6-4.2-1.2-44.3-.7-53.1.6-2.5.3-6.7.3-9.1 0-4-.6-4.6-1-5.3-3.9-.4-1.8-.7-4-.6-5 .2-2-15.1-31.9-17.1-33.4-1.7-1.3-10-4.3-11.9-4.3-1.1 0-1.7-1.2-2.1-4.3-.3-2.3-.8-5.4-1.2-7-.6-2.2 0-3.8 3-8.2 3.1-4.5 4.2-7.5 6.1-16.6 2-9.7 3-12.3 7.9-20.4 9.8-16.1 13.4-28.5 12.1-41.2-1.6-15.9-9.6-26.4-24.6-32.8-2.5-1-6.6-3.3-9.2-5.1-2.5-1.8-6.4-4.2-8.7-5.3-2.2-1.2-4.5-3-5.1-4.1s-1.9-2-3-2c-2.2 0-2.6-1.3-3.5-10.8-.4-4.3-1.3-7.9-2.2-8.8-2.2-2.2-.9-16 1.7-17.4 1-.5 2.1-2.1 2.4-3.5.3-1.3 1.9-3.1 3.4-3.9 4.7-2.4 11.8-9.4 15.8-15.2 7.6-11.5 11.5-29.1 9.5-42.6-2.8-17.9-8.9-29.8-21.7-41.7-11.6-10.8-22.3-15.2-36.9-15-4.4.1-9.8.5-12 .9m22 3.5c8.6 1.8 15.4 5.1 22.2 10.7 19.4 16.1 27.2 39.9 21.3 64.6-1.9 8.1-5.6 16.9-6.7 15.9-.2-.3 0-1.4.6-2.5 1.5-2.9 4.1-14.2 3.2-14.2-.4 0-1.4 1.2-2.1 2.7-1.2 2.6-1.3 2.7-2 .8-.4-1.1-.5-5.9-.2-10.7.4-7.9.3-9.1-2-13.5-1.4-2.6-3.5-7.7-4.7-11.2-3.2-9.3-3.6-9.8-9.6-12.7-3-1.4-5.5-3-5.5-3.5s-1.9-2.1-4.2-3.6c-2.4-1.5-6.3-4-8.8-5.6-4.1-2.5-5.1-2.8-10.5-2.3-9.3.9-9.8.9-13.7.1-3-.6-4.9-.2-9 1.7-2.9 1.4-7.5 3.3-10.2 4.3-3.8 1.4-5.1 2.5-6.3 5.2-.8 2-3.4 5.4-5.9 7.6-6.3 5.7-8.8 10.2-9.1 16.2-.1 2.7-.6 8.4-1 12.5-1.1 10.8-2.7 7.2-2.7-6 .1-17.8 4.1-28.6 14.9-39.6 8.7-8.8 21.2-15.2 34.3-17.4 7.2-1.2 10.1-1.1 17.7.5m-5.8 30.8c2.9 1.3 3.2 4.2.3 3.4-2.7-.7-2.6 1.9.1 3.4 1.2.6 3.4.9 4.9.6 3.5-.7 8.1 2 10.9 6.6 1.2 2 3.6 7.5 5.3 12.4 2.6 7.4 3.2 10.4 3.4 19.3.2 13.1.1 12.5 1.9 11 2.3-1.9 3 1.3 1 4.3-1 1.6-1.2 2.7-.6 3.1 1.3.8 6.2-2.3 6-3.8-.1-.6-.1-2.3 0-3.9.1-2.9 2.1-3.8 2.1-1 0 1.5.2 1.6 1 .3.7-1.1 1-.7 1 1.8 0 8.4-8.4 17.6-12.5 13.5-.9-.8-1.8-1.3-2.1-1.1-1 1-3.2 11.7-4.3 20.8-1.9 14.8-1.9 14.8-5.4 15.9-1.8.6-8.6 2.4-15.3 4-17.5 4.3-17.8 4.5-21.5 14.1-1.9 4.9-1.9 4.8-3.4-4.2-.3-2.3-1.4-4.2-3-5.2-3-2-3.3-6.4-.6-9.7l1.8-2.3 2.7 2.7c3.3 3.3 3.8 3.4 3 .3-.7-2.9 1.5-4.7 9.7-7.5 9.6-3.3 21.9-10.1 21.9-12.1 0-.5-1.7-.1-3.7.8-2.9 1.3-6.8 1.7-16.8 1.7-11.8 0-13.3-.2-16.6-2.3-2-1.2-4.6-2.2-5.7-2.2-2.8 0-7.7-6.9-10.2-14.5-2.2-6.7-4-19.6-3.3-24.2 2.8-18.4 6.5-29.7 11.4-34.4 2.6-2.4 6-3.1 7.6-1.6.4.4 2.7-1.5 5.2-4.2 6.5-6.9 9.4-8.2 16-7.5 3 .3 6.5 1.1 7.8 1.7m-24.2 3.5c-1.7 1.6-3.4 2.5-3.9 2.1-1.1-1 .2-2.9 2.8-3.9 3.8-1.6 4.1-1 1.1 1.8m61.3 48.2c.4 1.2.3 1.3-1 .2-.9-.7-2.4-.9-3.3-.5-1.3.4-1.6.3-1.1-.6 1-1.6 4.8-1 5.4.9m-85.5 15.2c.4 1.2.4 2.4.1 2.7-.6.7-2.4-2-2.4-3.7 0-2.1 1.7-1.3 2.3 1m-2.3 29.2c-2.7 4.8-3 5.9-1.9 7.2 1.2 1.5 1.6 1.3 4.1-1.7 3.5-4.1 3.7-2.2.3 3.1-1.4 2.2-2.5 4.3-2.5 4.8 0 .4-.7 1.7-1.6 2.8-1.5 1.8-1.5 1.8-1.1-.6.2-1.4.8-3.2 1.1-4.2.5-1.1.1-1.8-1.3-2.3-2.9-.9-2.7-2.1 1.6-9.3 4.5-7.7 5.6-7.5 1.3.2m13.7-1.6c.2 3.3-.1 4.3-.7 3.2-1.4-2.3-1.1-8.1.4-8 .1 0 .2 2.1.3 4.8m-223.8 15.7c10 2.6 16.2 6.4 25.2 15.4 8.9 8.9 13.8 16.8 18 28.9 4.7 13.6 4.4 31-.6 41.9-2.7 6-4.4 7.4-1.9 1.5 3.3-7.5 4.4-12.7 4.3-20.1l-.1-7.6-1.3 7.7c-.7 4.2-1.8 9.3-2.5 11.4-1.2 3.7-4.8 10.4-5.6 10.4-.2 0-.1-2 .2-4.3.5-3.5.3-4.5-1-5-1.2-.5-1.6-2-1.6-6.4 0-14.1-3.7-25.5-10.9-34.1-2.1-2.6-5.3-7-7-9.8-3.2-5.3-7.1-7.8-21.1-13.4-2.5-1-6.3-2.8-8.5-3.9-5.2-2.8-8.4-2.6-13 .5-3.2 2.1-4.5 2.4-7.4 1.8-4.7-.9-8.4-.6-12.8 1.2-1.9.9-3.7 1.3-3.9 1.1-.8-.7 9.1-9.3 14.1-12.3 8.1-4.7 14.1-6.3 23.5-6.4 4.7 0 10.9.7 13.9 1.5m275.1-.6c-.8.5-6.6 2-12.8 3.5-15.9 3.7-17.9 4.7-20.1 9.8-2.9 6.7-3.4 9.8-1.6 9.8 2.3 0 1.8 1.7-.7 2.4-3.6.9-9.6.7-10.3-.4-.3-.6.1-1 1-1 1 0 1.5-.6 1.2-1.3-.3-.8-.8-4-1.2-7.1-.7-5.1-1.1-6-4.1-7.9-3.6-2.4-4.9-4.3-3.4-5.2.6-.4 1 0 1 .7s1.6 2.3 3.4 3.5c3.2 2 3.5 2.8 4.7 9.8 1.5 9.8 3.1 9.6 7.5-.9 1.8-4.3 3.5-8.1 3.8-8.4.8-.7 28.8-8 31.1-8.1 1.6 0 1.7.1.5.8m6.4 2.7c1 2.7.7 8.1-.7 9.2-2.3 1.9-23.1 7.2-28.5 7.2-2.9 0-6.1.5-7.2 1.2-3 1.9-3.2.6-.9-5 2.4-5.8 1.5-5.4 20.9-10.2 6.8-1.7 12.6-3.3 12.9-3.6 1-.9 2.9-.3 3.5 1.2m-53 12.8c.8 4.6.2 7.1-1.2 5-.4-.6-1.5-1.3-2.4-1.7-1.4-.5-1.8-1.8-1.8-5.8 0-5.1 0-5.1 2.3-3.7 1.4 1 2.5 3.1 3.1 6.2m303.2-5.3c26.5 4.7 47.7 34 47.8 65.9 0 7.1-.5 12.3-1.7 16-1.8 5.8-7.5 16.5-8.4 15.7-.2-.3.7-2.6 2.2-5.2 2.8-4.7 4.9-11.5 3.5-11.5-.4 0-2.1 2.6-3.9 5.7l-3.2 5.8.6-4.8c.3-2.6.2-4.7-.3-4.7s-1.2-3.9-1.5-8.8c-1.1-17.4-5.6-32.1-11.2-37.2-1.5-1.4-4.5-5.1-6.7-8.3-4.8-7-6.2-8-18.5-12.4-13.2-4.7-16.4-5-20.9-2.4-2.7 1.6-4.5 2-7 1.5-5-.9-10 .3-13.7 3.5-1.7 1.5-4 3.1-5 3.4-4.8 1.8 5.5-10.1 12.8-14.8 11.1-7.1 22.9-9.6 35.1-7.4M1135 467c0 .5-.4 1-1 1-.5 0-1-.5-1-1 0-.6.5-1 1-1 .6 0 1 .4 1 1m9.4 3.2c1.9 1.3 5.9 3.9 9 5.7 5.6 3.5 6.9 5.1 4 5.1-3.3 0-.2 1.8 4.2 2.4 9.1 1.2 12.8 2.9 18.2 8.3 2.9 2.9 6.4 7.7 7.8 10.7 4.5 9.8 4.2 24.3-.7 35.5-2.1 4.7-3.7 5.2-1.9.6.6-1.5.8-3 .5-3.3s-1 .9-1.6 2.7c-2.7 7.8-10.1 21-14.5 26.2-5.4 6.3-10.9 11.1-11.6 10.3-.3-.2-3.5 2.9-7.1 7-3.7 4-8.3 8.1-10.3 9.1-4.5 2.1-11.6 1.6-18.9-1.4-4.8-1.9-4.9-2-1.7-2 1.7-.1 3.2-.5 3.2-.9 0-.5-5.3-1.4-11.7-2.1-13.8-1.4-24.8-3.6-28.3-5.6l-2.5-1.4 3.5-.1c6.8-.1 6.6-1.8-.3-2.5-3.7-.4-6.7-1.1-6.7-1.5s.9-1.5 1.9-2.4c6.2-5.6 8.8-23.4 5.3-36.1-1-3.9-2.2-7.8-2.7-8.9-.7-1.7-.4-1.8 4.1-1.3 2.7.2 9.6 1.6 15.4 3.2 8 2 10.9 2.4 12.2 1.6 2.3-1.4 8.6-1.4 12.9.1 1.8.6 6.9 3.3 11.3 6 8.7 5.3 9.9 5.7 9.4 3.1-.2-1-1-1.8-1.8-1.8-2.2 0-8.7-3.8-7.3-4.2.7-.2 2.2.1 3.3.7 1.2.6 2.4.9 2.8.6 1.1-1.2-1.5-2.7-5.4-3.2-4.9-.7-12.6-3.5-12.2-4.4.6-1.4 9.8-8.9 11.8-9.5 1.2-.4 1.9-1.4 1.8-2.3-.2-1 1.6-2.8 4.6-4.9 6-3.9 8.2-6 7.3-6.9-.4-.4-2.4.6-4.5 2.2-5.5 4.5-6.6 5-5.4 2.8 1.5-2.7 8.1-8.9 12.2-11.3 1.9-1.2 2.8-2.1 1.9-2.1-4 0-15 9.5-23.2 20-2.6 3.4-2.7 3.4-2.7 1 .1-4.6 2.1-11.5 4.5-15.2 4.7-7.1 2.2-6.2-2.7 1-1.8 2.6-4.4 8-5.9 12.1-2.7 7.8-2.7 7.8-6.1 1.1l-1.9-3.5.4 7.2.4 7.3h-8.6c-6.1 0-10.4-.6-14.4-2-3.1-1.1-7.8-2-10.4-2-4.6 0-24.9-2.4-30.6-3.6-2.7-.6-2.8-.7-1.1-2.5 1.8-2 6.3-3.5 15.7-5.3l5.7-1.1 8.8-11.4 8.7-11.4 8-2.7c4.4-1.5 9.5-3.5 11.4-4.4q3.3-1.8 6.6-1.2c4.4.9 20.6-4.9 21.2-7.5.7-2.3.5-2.4 4.7.3m-7.4-.7c0 .8-7.9 4.1-11.5 4.8-1.9.4-.7-.5 3-2.3 5.8-2.8 8.5-3.6 8.5-2.5m-17.1 3.9c-.9.9-17.2 6.5-22.3 7.7-4.9 1.1-5.9 1.8-10.8 7.8-3 3.6-7 8.9-9 11.6-3.6 5-3.6 5-13.7 7.4-9.1 2.1-10.4 2.7-13.1 6-1.6 2-2.9 3.1-3 2.6 0-.6 1.2-2.5 2.8-4.3 2.3-2.7 4.3-3.6 12.7-5.8l10-2.7 7-9.1c3.9-5 7.2-9.7 7.3-10.4.4-1.7-1.8-1.1-9.3 2.3-4.4 2-12.6 4.2-11.4 3.1 1.3-1.3 24.4-8.9 36.4-12.1 7.7-2 14.1-3.8 14.4-4.1.2-.2.9-.4 1.4-.4.6 0 .8.2.6.4M953.5 476c1 1.1 2.4 2 3.1 2 2.6 0 30.4 21.6 30.4 23.6 0 .6.9 2.3 2 3.7s2 3.2 2 4.1c0 1.5-.3 1.5-3 .1-1.6-.9-3-1.9-3-2.4s-2.4-2.5-5.4-4.5c-2.9-1.9-5.6-4.2-6-5.1-.3-.8-1.2-1.5-1.9-1.5-.8 0-3.2-2-5.3-4.5-2.2-2.5-4.5-4.5-5.2-4.5s-2.2-1.7-3.5-3.7c-2-3.5-2.2-3.6-2.7-1.4l-.5 2.3-2.2-2.4c-2-2.2-2.7-3.9-2.4-6.6.2-1.8 1.5-1.5 3.6.8m34.4 6.7c8 16.4 11.5 20.7 22.6 28.2 13.1 8.9 17.5 11.1 22.7 11.1 6.2 0 9 1.8 10.4 6.5 1.1 3.7.6 16.4-.6 16.6-.3.1-3.3-.6-6.8-1.6-5.2-1.5-6.1-2.1-5.7-3.6.7-2.1-1.2-3.6-2.8-2-2.6 2.6-13.7-.6-13.7-4 0-.6-2.6-3.9-5.7-7.5-3.2-3.5-5.8-6.7-5.8-7.1 0-.5-2-2.6-4.4-4.9-2.4-2.2-4.5-4.9-4.6-6-.1-1-.8-3.3-1.7-4.9-.8-1.7-1.8-4.3-2.2-5.9s-1.6-4.1-2.7-5.4c-1-1.4-1.9-3.4-1.9-4.6 0-1.1-.7-3-1.5-4-1.6-2-2.1-9.6-.7-9.6.4 0 2.7 3.9 5.1 8.7m88.5-4.5c.6.4 1.8.6 2.6.3.8-.2 3-.1 4.9.3 3.3.7 3.2.8-5 3.9-4.6 1.8-9.7 3.7-11.3 4.3-1.8.6-2.6 1.5-2.3 2.4.4.9-.3 1.6-1.6 2-3.3.9-3.6.8-3-1.5.5-1.9.4-2-1.5-1-2 1-5.2.6-5.2-.8 0-.7 6.2-5.1 7.2-5.1.3 0 .4.9.1 2-.9 3.4.6 2.2 4.2-3.5 2-3 3.7-5.5 3.9-5.5s-.1 1.6-.7 3.5c-1.2 3.9-.8 4.8 1.7 3.9 1.2-.4 1.6-1.4 1.2-2.7-.2-1.1.3-3.1 1.2-4.5 1.5-2.4 1.7-2.4 2.1-.6.2 1 .8 2.2 1.5 2.6m-238.7 1.4c.9 1.2.9 2.2.2 3.5-1.2 2.2.9 2.7 3 .6 1-1 1.4-.9 2.1.4.5.9 1.8 2.7 2.9 4l2 2.4.1-2.5v-2.5l2.6 3c1.4 1.6 3.5 5 4.6 7.5s3.4 6.3 4.9 8.5c3.1 4.4 5.4 13.9 4.4 18.4-.6 3 1.2 12.1 2.5 12.1.4 0 1.3-1.4 2-3 .7-1.7 1.6-3.2 1.9-3.5 1.1-.6 1 6.9-.1 8.2-1.3 1.7 0 3.9 1.5 2.4.6-.6 1.9-1.1 2.9-1.1 2 0 2.6-4.4.8-5.5s-1.1-2.3 1.6-2.8c2.6-.5 2.6-.4 2.1 4.2-.4 4.5-.4 4.5.9 1.6.8-1.9 1.3-2.4 1.4-1.2 0 3.6-2.8 8.3-6.8 11-3.4 2.4-4.4 2.7-6.2 1.7-2.6-1.4-2.6-1.3-3.5 2.3-.6 2-.4 2.7.8 2.7.8 0 1.7.6 1.9 1.2.2.7-.1 9.8-.8 20.1-1.1 16.8-1.4 19.1-3.2 20.8-1.3 1.1-2.6 4.3-3.3 7.9-.6 3.3-1.5 5.8-1.9 5.5s-1.1-3-1.5-6c-.8-6.4-1.9-7.5-11-10-3.3-.9-6.8-2.6-7.7-3.7-2-2.2-2.5-7.8-.7-7.8.5 0 .7-.5.4-1-1.9-3.1 10.1-12.3 13.4-10.3 1.3.8 2.1-.1 4.8-5.6 1.8-3.6 3.3-6.7 3.3-6.9 0-.1-2.7 1.2-6.1 2.9-9 4.5-19 6.7-31.7 7-13.1.4-14.4-.3-20.3-9.3-7.2-11.3-10.4-26.1-7.5-35.7.9-3 1.6-7.6 1.6-10.2 0-3.6.5-5.3 2.1-6.8 2.3-2.1 6-3.2 9.4-2.8 1.2.1 2-.4 2-1.3 0-2.1-5.1-2.5-8-.6-1.3.9-2.7 1.6-3 1.6s1.1-3.2 3-7c2.5-4.9 4.8-7.9 7.7-10 4.7-3.4 5.7-3.3 3.3.4-2.5 3.7-1 3.2 3.8-1.4 6.8-6.6 17.8-8.3 21.4-3.4m216 6.2c-2.1 2.2-3.7 4.4-3.5 5 .5 1.7-22.3 26.2-24.3 26.2-2.7 0-3-1.3-.9-4.8l2-3.2-2.7.6c-1.8.5-2.4.4-1.9-.5 1.4-2.1-1.2-1.1-2.6 1.1-1.4 2.1-1.7 2.2-4.2.9-3.3-1.8-3.3-3.9-.1-4.7 1.3-.3 2.7-1.4 3-2.5 1.3-3.9 10.4-10.7 18.6-13.8 8.6-3.3 10.4-3.7 9.4-2.1-1.2 2 1.1.8 5-2.5 5.4-4.7 6.8-4.4 2.2.3m316.3 1.8c4.1 1.6 5.2 4 2.5 5-1.9.8-1.2 2 1.6 2.7 1.3.4 2.8-.2 4.1-1.5 1.9-1.9 2.3-2 4.7-.6 1.4.9 4 3.7 5.7 6.3 1.8 2.5 4.1 5.6 5.2 6.8 4.2 4.6 8.2 14 8.8 20.7.8 9.7 1.4 13 2.4 13 .5 0 1.2-.9 1.5-2.1.6-1.9.8-1.9 2-.3.9 1.3 1 2.4.2 4.1-1.4 3.1-.3 3.9 2.8 1.9 2.7-1.8 3.2-4.5 1.3-6.4-.9-.9-.9-1.2 0-1.2.7 0 1.2-.8 1.3-1.8 0-.9.5-.4 1 1.3.5 1.9.5 4.1-.1 5.9-1.3 3.7-1.3 4.3.1 2.9.7-.7 1.5-2.9 1.9-5l.8-3.8.1 3.5c.2 6.9-6.9 15.9-10.3 13.1-1.9-1.6-3.6-.6-3.6 2 0 1.1.4 1.8.9 1.4 1.7-1 1.9.8 2.2 13.9l.2 12.9-12.9 5.7c-15.2 6.6-25.6 11.9-26.5 13.3-.4.5-1 3.6-1.3 6.8-.6 5.4-2.6 9.4-2.6 5.2 0-1-.9-3.7-2-5.8-2.5-4.8-3.8-14.9-2.1-15.9.6-.4 2.1.3 3.4 1.6 5.5 5.4 5.7 5.4 5.1.1l-.6-4.8 8.3-5.5c8.5-5.6 19.9-15.5 19.9-17.1 0-.6-1.9.1-4.2 1.5-7.5 4.3-14.7 6.6-24.7 7.7-9.1 1.1-10 1-13.8-.9-4.6-2.4-13.5-11.8-16.2-17.1-4.5-9-5.4-13.8-4.7-26 .4-6.4.9-12.4 1.2-13.3.8-2.6 6.7-5.8 10.7-5.8 3.9 0 5.8-1.7 3.6-3.1-2.3-1.6-8-.1-11 2.7l-2.8 2.7.6-2.4c1.5-5.5 4.8-10.4 7.3-10.5 1.3-.1 3.3-1.3 4.5-2.8 1.4-1.8 2.7-2.5 3.8-2 1.3.4 1.7.1 1.7-1.4 0-2.4 4.1-5.6 9.6-7.6 2.2-.7 4-1.4 4.1-1.5.2 0 2.1.6 4.3 1.5m-312 5.4c-.8.5-2.2 1-3 1-1.3 0-1.3-.1 0-1 .8-.5 2.2-1 3-1 1.3 0 1.3.1 0 1m288.8 3c-1.2 1.6-2.6 3-3 3-1 0-.2-1.6 2-4.3 2.5-2.9 3.4-1.9 1 1.3m-296.4.2c-1.7 2.1-15.7 18-19.1 21.8-.7.8-1.3 1-1.3.4 0-1 20.8-24.4 21.7-24.4.3 0-.2 1-1.3 2.2m-1.6 25.4c7.2 4.7 8.6 23.7 2.7 35.4-4.1 8.1-11.6 12.5-15.3 8.8-1.7-1.7-1.5-2.8.6-2.8 5.7 0 12.2-17.3 10.8-28.9-.8-6.6-3.1-11.8-5.7-12.6-1-.4-1.9-1.1-1.9-1.7 0-1.4 5.7-.2 8.8 1.8m8.1 2.5c3 4.9 4.3 14.2 3 21.9-1.7 10.9-7.8 22-12.1 22-1.8 0-1.6-.4 1.5-3.9 8.5-9.5 10.3-33.2 3.1-41.2-1.6-1.8-1.6-1.9.5-1.9 1.3 0 2.8 1.2 4 3.1m21.4.6c3.1 3.5 6 12.6 5.9 18.8-.1 10.9-7.6 28.4-12.6 29.3-1.6.3-1.5-.1.8-3 4.8-6.4 6.9-14.2 7-25.8.1-9.7-.1-10.9-2.6-15.4-1.6-2.7-2.8-5-2.8-5.2 0-1.1 2.9-.2 4.3 1.3m-81.8 3.2c1.7 1.1 6.1 4.9 9.8 8.4 7.8 7.3 8.2 6.7-5.8 7-4.9.1-8-.4-10.5-1.6-2.1-1.1-3.6-1.4-3.8-.7-.2.5-2.8 1-5.7 1-4.1 0-5.6-.4-6.4-1.8-.9-1.5-1-1.5-1.1.4 0 2.3-1 2.8-9.2 3.9-4 .6-4.8.5-4.8-.8 0-3.4 7.8-7.7 13.9-7.7 1.2 0 3.7-.6 5.6-1.4 2.6-1.1 3.6-1.2 4.2-.3.5.7 1-.4 1.3-2.8.5-3.6.7-4 3.2-3.7 1.4.2 2.9-.2 3.3-.7.9-1.6 2.6-1.3 6 .8m419 2.1c.3.5.1 1-.4 1-.6 0-1.1-.5-1.1-1 0-.6.2-1 .4-1 .3 0 .8.4 1.1 1M555 537.2c0 .5-.4.8-1 .8-.5 0-1-1-1-2.3 0-1.8.2-1.9 1-.7.5.8 1 1.8 1 2.2m926.8 6.2c5.3 2.5 13.3 6 17.6 7.8 4.4 1.8 8.1 3.8 8.3 4.5.3.7-3.8-.6-8.9-2.8s-12.6-5.4-16.6-7.1l-7.4-3.1-2.4 2.9-2.5 2.9 1.5-3.1c1.3-2.8 1.3-3.2-.2-4.7-2.7-2.8.2-2 10.6 2.7m-472.8 8.3c-2.9 7.9-3 8-2.6 1.9.3-3.3 1.1-6.3 1.7-6.7q3.6-2.25.9 4.8m3.2.5c-3.3 8.9-3.5 12.6-1.2 20.1 2.6 8.5 2 9.9-1 2.1-3.1-8.5-2.8-14.6 1.6-24.9 2.3-5.7 2.9-3.4.6 2.7m11.9 2.2c-3 8-5.1 16.9-6.1 25.5l-.9 7.6.4-9.6c.3-7.5 1.2-11.7 4-19.9 1.9-5.7 3.5-10.7 3.6-11 0-.3.3.1.6.7.2.7-.5 3.7-1.6 6.7m-412 4c3.9 6.5 1.8 18.8-5.1 29.5-3.4 5.2-5 6.7-9.6 8.8-5.3 2.4-5.6 2.4-7.5.7-1-.9-1.9-2-1.9-2.3s2.1-1.7 4.6-3c10-5.3 16.9-22.5 14-34.8-.7-2.9-.5-3.1 1.4-2.6 1.2.3 3.1 2 4.1 3.7m419.8 6.8c1.8 2.7 4.2 5 5.4 5.2 18.8 3.9 38 8.9 41.9 11.1 2.8 1.5 9.4 3.5 16.9 5.1 6.8 1.4 14.4 3.5 16.9 4.8s10.2 5.3 17.1 8.9c14.5 7.5 20.9 11.3 20.9 12.6 0 .5-.7 1.4-1.5 2.1-1.1.9-1.9.8-3.7-.4-2.5-1.8-5.8-2.1-5.8-.6 0 .5.5 1 1 1 .6 0 1 .4 1 .9 0 1.1-4.9 2-13.1 2.6-5.5.5-6 .3-6.8-1.8-.5-1.3-2.2-3.2-3.8-4.2-1.5-1-6.3-5.2-10.5-9.3-4.3-4.2-7.8-7-7.8-6.3s4.2 5.5 9.4 10.6c8 8.1 8.9 9.3 6.5 8.8-1.8-.3-2.9-.1-2.9.5 0 1.7 2.2 2.6 6 2.4 7.3-.5.3 1.5-9.5 2.7-5.5.7-14.5 2.1-20 3.2-5.5 1-13 1.9-16.7 1.9s-7 .4-7.3 1c-.3.5.1 1 .9 1 .9 0 2.1.9 2.8 2 1.5 2.4 2.8 2.6 2.8.5 0-.8.4-1.5.8-1.5.9 0 4.5 20.1 3.7 20.8-.2.2-1.1-1.1-1.9-2.9l-1.4-3.4-.1 3.5c-.1 2-.7 4.2-1.3 4.9-1.3 1.3.3 1.3 18.7-.3 7.7-.7 31.8-4.6 37.7-6.2 3.3-.8 6.6-1.3 7.3-1 .7.2 4.8-.3 9.1-1.2 6.7-1.5 8.1-1.5 9.4-.4 2.4 2.2 13.9 10.2 14.6 10.2.4 0 .1-.7-.6-1.5-2.7-3.3-.1-2.3 5 1.7l5.2 4.3-3.8.5c-2.7.4-4 1-4.2 2.3-.4 2.2 3.4 6.7 5.7 6.7.9 0 2.5.7 3.5 1.5 1.1.8 4.3 2.1 7.1 3 5 1.4 5.5 1.9 11.3 10.7 10.5 16 26 51.1 35.7 80.8 2.5 8 5.3 16.3 6.1 18.4.7 2.2 1.2 4.1 1 4.4-.2.2-7.3-13.3-15.6-30-21.3-42.3-34-64.3-44.9-77.8-3.7-4.5-2.2-1 2.7 6.3 14.9 22.3 45.5 81.6 65.7 127.2 15.1 34 39.5 95.3 39.5 99.1 0 .6-4.2 5.5-9.4 10.7-7.7 7.8-10.8 10.2-17.2 13.2-8.1 3.8-22.1 7.8-31.1 8.8l-5.2.6-1.6-5.7c-.9-3.1-3.3-11.6-5.4-18.7-2.2-7.2-6.3-21.5-9.2-31.9s-5.4-18.5-5.6-17.9c-.2.5 1.4 8.6 3.6 17.9 11.2 47.8 14.2 62.5 13.2 63.8-1.7 2-15.9 8.4-22.6 10.1-15.9 4.1-39.2 4.3-63.5.7l-11.5-1.7-1.7-19.5c-5.5-62-8.7-105.9-12.8-174-2.4-39.6-8.4-107.4-9.9-111.3-1.2-3.1-4.1-3.6-4.1-.7 0 1.1 1.3 9.7 2.9 19.2 5.8 33.6 6.2 40.8 7.1 105.3.9 68.5 1.3 82.9 4.1 140.9 1.7 33.1 1.8 42 .8 42.6-1.8 1.2-13.2 2.2-16.1 1.5-3.1-.8-2.8 1.7-6.3-45-5.2-67.5-6.5-82.7-11.1-121.3-2.4-20.9-9.9-72.9-11-76.5-1.5-4.9-1.1.6 1.2 17.4 9.5 69.3 11.3 89.2 11.9 130.9.3 19 .8 48.2 1.1 64.9l.6 30.4-9.6-.5c-5.3-.3-9.9-.7-10.1-1-.7-.6-3.8-64.3-6-119.8-2-50.8-4.1-88.2-7.1-127.5-1.8-23.4-1.5-48.2.8-55.5l1.4-4.5 7.4-.7c4.3-.5 7.9-1.4 8.5-2.1.6-.8 2.3-1.7 3.8-2.1 2.1-.5 2.7-1.1 2.3-2.2-.3-.9-.6-2.4-.6-3.4s-.6-2.5-1.2-3.2c-.7-.7-1.3-3.8-1.3-6.8v-5.5l-8.7.2c-5.9.1-8.6-.2-8.2-.9.5-.7-2.2-.9-7.9-.6l-8.7.4-2.7-3.9-2.8-4-.5 2.7-.5 2.8-1.9-2.1c-1.7-1.8-1.8-3.4-1.4-15.5.2-7.4.1-13.3-.4-13-.4.3-.8 1.8-.8 3.4s-.4 3.1-.9 3.4c-1.3.9-2.1-4.7-2.1-14.8 0-10.6 1.3-19.4 4.2-29.1l2.1-6.9 1.2 3.4c.7 1.9 2.7 5.6 4.4 8.2m2.3-8.1c2.5 2.5 2.9 3.3 1.7 4-2.2 1.4-2.7 1.1-4.4-2.1-2.9-5.6-1.8-6.5 2.7-1.9m-416.6 4.4c3.1 7.4.3 21.2-6.1 30.5-4 5.7-14.5 12.3-14.5 9.1 0-.5 1.4-1.4 3-2.1 10.6-4.4 19.5-28.2 14.6-39.3-.5-1.1-.4-1.7.3-1.7s1.9 1.6 2.7 3.5m890-1.9c-.3.9-5.7 9.5-12 19.2-6.2 9.8-12.1 19.2-13 21-1 1.9-2 3.2-2.2 2.9-.7-.7 1.6-5.2 7-13.5 2.4-3.7 7.8-12.2 12-19 7.1-11.2 9.8-14.6 8.2-10.6M637 571.2c1.1 2.4 2 6.4 2 8.9 0 8.5-5 21.5-11 28.3-3.4 3.9-11.3 8.1-13.1 7.1-.6-.5.5-1.5 2.8-2.5 4.9-2.3 10.5-8.2 13.6-14.5 4-8.1 6.1-21.5 3.6-23-.6-.4-.8-1.3-.5-2.1s.1-2.5-.4-3.9c-1.7-4.3.9-2.8 3 1.7m9.3 2.8c4.9 4.3 6 4.9 5.1 2.5-1.4-3.6 9.4-.9 15 3.7 2.3 1.9 4.9 3.1 6.1 3 3.4-.5 12.3 7.4 17.6 15.6l4.7 7.4 1.2-3.7c1.5-4.5 0-7.2-5.6-10-3.7-1.9-6.3-4.2-6.4-5.6 0-1.4 8.3 1 11.8 3.4 8.3 5.8 20.4 16.1 25.1 21.4 2.8 3.1 5.1 5.2 5.1 4.6 0-1.7-8.3-12.6-12.1-15.6-2.1-1.8-2.6-2.6-1.4-2.2 1.1.4 4.5.9 7.6 1 6.3.4 10.3 2.2 19.9 8.9 7.2 5 9.6 5.2 3.6.2l-3.8-3.3 16.3-.6c9.9-.4 18.2-.3 20.9.3 2.5.6 6.3 1.3 8.4 1.7 2.2.3 5.5 1.7 7.4 3 4.5 3 6.2 2.9 3.2-.2-3.4-3.6-.7-3.1 3.7.7 9.3 8.1 16.4 18.3 17.5 25.3.4 2.7 1.5 10.3 2.3 16.7l1.6 11.7-4.2 8.3c-4.5 9-14.2 22.2-20.7 28-2.3 2.1-6.6 5.4-9.7 7.4-3 2-5.5 3.8-5.5 3.9 0 .2.9 3.2 2 6.8 2.8 9 4.3 21.6 2.9 23.4-.9 1-.8 1.7.1 2.7.9 1.2.7 1.8-.9 3.3-1.2 1-2.1 2.9-2.1 4.6 0 2.5-.2 2.8-1.5 1.7-.8-.7-1.5-2.4-1.5-3.7 0-2.1-.2-2.3-1.5-1.3-.9.8-1.3 2.1-.9 3.6l.6 2.4-4.3-1.8c-2.7-1.2-5.1-3.1-6.3-5.1-1.8-3.1-1.8-3.4-.1-7.2 1.8-3.8 3.5-5.1 3.5-2.6 0 .7.6 2.2 1.4 3.3 3 4.1 2.5.2-1.2-9.7-2.2-5.7-4.5-12-5.1-14-1.6-4.9-4-18.9-3.2-18.9.3 0 1.7 1.9 3 4.3 3.5 6.3 8.5 13.6 9.3 13.7.6 0-3.5-12.1-4.9-14.3-.3-.6 1.8.9 4.8 3.3 5.9 4.7 8.1 3.8 2.5-1-1.9-1.7-5.9-5.9-8.7-9.2l-5.3-6 6.7.7c8.5.9 14.2.1 19.1-2.9l3.9-2.3-7.9.5c-8.8.5-8.9.6.8-6.1 6.7-4.7 11.6-11.1 15.4-20.2 2.3-5.7 1.1-5.2-2.9 1.2-2.1 3.2-5.4 7.7-7.4 10l-3.8 4.1-12.5 1.6c-14.7 1.9-29.2 2-39.3.5-6.7-1-12.2-2.8-8.9-2.9 2.7 0 15.9-6.4 23.5-11.2 8.2-5.3 10.6-8.3 3.5-4.3-11.9 6.5-35.9 12.5-42.7 10.5-2.5-.7-23.1-14.4-23.1-15.3 0-.1 4.2-.3 9.2-.5 9.1-.2 13.2-1.4 8.6-2.5-1.3-.3-6.1-1.1-10.8-1.7s-8.6-1.3-8.8-1.5 2.2-1.4 5.2-2.8c6.5-3 7.7-5.5 1.4-2.8-9.3 3.9-20.7 5.5-28.9 4.1-5.1-1-6.9-1.8-8.7-4.1l-2.4-2.9h4.2c2.3 0 3.9-.4 3.5-.9-.3-.5 1.1-1.5 3-2.1 6.3-2.1 4.5-2.6-7.5-2.2-6.5.3-13 .2-14.3-.2-1.4-.3-4.5-2.2-6.8-4.2-4.7-3.9-6.1-5.8-3.5-4.8.9.3 1.6.3 1.6 0s-2.5-1.7-5.5-3.1c-6.6-2.9-7.4-5.1-1.5-4.1 3.7.6 5.4-.4 3-1.9-.5-.3 1-3.1 3.4-6.3 2.4-3.1 5.1-7.7 6.1-10.2 2.2-5.8 3.5-16.2 2.5-20.3-2-7.9-2.1-8.7-.7-8.7.8 0 3.5 1.8 6 4m151.3 3.2c-2 2.8-2 5.8-.1 5.8.8 0 1.5.4 1.5 1 0 1.1-1.1 1.3-3.4.4-2.2-.8-2-3.6.5-6.8s3.6-3.5 1.5-.4m84.2 1.5c1.1 2.1 2.2 5.3 2.6 7.2.5 2.9.4 3.2-.9 2.1-.9-.7-1.4-1.8-1.2-2.4.3-.6-.4-3.2-1.3-5.9-2.2-5.6-1.8-6.1.8-1m76.6 2.9c-1.9 4.1-2.8 8.2-3.2 13.7l-.5 7.8-2.3-2.2c-2.4-2.2-2.4-2.2-2.4-.2 0 3.4 3.7 7.1 11.3 11.3 8.3 4.5 7.7 5.5-3.3 5.5-5 0-7.4-.5-10.4-2.3-2.1-1.3-4.1-2-4.4-1.7s0 2.1.7 4c1.5 4.3.9 5.5-3 5.5-3.7 0-3.8 2.1-.1 5 1.5 1.1 3.8 3 5.2 4.1l2.5 2-5.5-.7c-3-.3-6.7-1.3-8.2-2-5.4-2.8-6.3-1.3-2.1 3.7l2.7 3.2-2.5-.8c-3.1-.9-10.4-5-14.8-8.3-1.9-1.4-5.6-3.8-8.3-5.2l-4.9-2.7 4.1-4.2c4-4.1 12.5-10.1 14.3-10.1.4 0 .6 1 .2 2.2-.5 2.2-.5 2.2 1.2-.2 1-1.3 3.2-4.5 4.8-6.9 2.7-4.1 9.5-10.3 17.9-16.4 3.2-2.3 3-1.9-2.1 5.7-3.3 4.9-4.7 11-2 8.7.8-.6 3.3-4.3 5.7-8.3 4.6-7.8 11.2-17 11.7-16.4.2.1-.9 2.9-2.3 6.2m209.6.5c-1.1 3-3.1 6.7-4.4 8.4-2.4 2.9-2.5 2.9-1.9.5.6-2.2.5-2.4-1-1.1-1.5 1.2-1.7 1.1-1.7-.4 0-1-.5-1.5-1.3-1.2-.7.3-1.9-.3-2.5-1.4-1-1.6-.6-2.1 3.4-3.9 2.6-1.1 5.2-2 5.9-2s2-1.2 3-2.6c2.5-3.9 2.8-2.3.5 3.7m-360.3-.6c-.8 2.1-1.7 3.4-2 2.8-.6-1 2.3-7.6 3-6.9.2.2-.3 2-1 4.1m8.1 1.2c-.3 1.9 3.9 3.5 25.7 9.8 5 1.5 9.7 3 10.5 3.4s2.1 3.2 2.8 6.2c2.8 11.4 3.3 12.9 4.7 12.9.9 0 1.8-2.1 2.5-5.8 2.1-10.4 2.7-11.9 6.6-15.5 3.1-2.9 3.7-3.8 2.7-4.8-1.8-1.8-1.6-3.4.2-1.9 2.4 2 1.7 4.7-2.3 8.7-3.3 3.3-4.1 4.8-5.1 10.8-1.9 10.6-1.9 10.7-4.9 10.3-2.4-.3-2.7-.9-4.6-9.7-1.7-7.4-2.5-9.6-4.1-10.1-1.1-.5-8.5-2.7-16.5-5-8-2.4-15.7-4.9-17.2-5.7-2.7-1.3-3.5-3.2-2.1-4.6 1.1-1.1 1.4-.8 1.1 1m16.5 3.2c5.1 1.9 2.7 2.8-3.3 1.2-3.3-.9-6-1.8-6-2.1s1-1 2.3-1.6c1.6-.8 2.5-.7 3.3.2.6.7 2.3 1.8 3.7 2.3m623.3-1.3c2.4 1.4 4.4 3 4.4 3.5s-.9.4-2-.3c-1.5-1-2.2-1-3.2 0-.9.9-.8 1.2.7 1.2 2.8 0 .9 1.5-7 5.5l-7 3.5-2-2.1c-2-2-2-2-.1-3.1 1.1-.6 2.9-2.1 4-3.3 1.2-1.2 2.9-2.5 3.9-2.8 1.1-.4 2.1-1.6 2.4-2.7.7-2.5.6-2.5 5.9.6m-119.2 2.3c-1.7 2.9-1.7 3.1.1 5.1 1.4 1.5 2.1 1.7 3.2.9 1.1-1 1.1-.6-.1 2.2-.7 1.9-1.6 4.3-2 5.3-.3 1-.9 1.6-1.3 1.3-.3-.4 0-2 .7-3.7 1.1-2.7 1.1-3.2-.6-4.5-1-.7-2.2-1.1-2.6-.9-1.4.9-.8-1.6 1.3-5.7 1.1-2.3 2.3-3.9 2.6-3.6s-.3 1.9-1.3 3.6m75.6-3c0 .4-5.3 3-11.7 5.6-16.7 6.8-29.1 13.1-29.7 15.2-1.3 4.5-1.8 15.3-.7 15.3.6 0 1.1.3 1.1.8 0 .7-6.9 3.2-9 3.2-2 0-.9-1.6 1.9-2.6 2.7-1.1 2.9-1.7 4.1-9.8 1.6-10.4 1.3-10.2 19.1-17.9 13-5.7 24.2-10.5 24.7-10.6.1-.1.2.3.2.8m-823 7.3c0 1.2-1.7.9-2.8-.5-.5-.6-1.3-2.3-1.7-3.7-.6-2.4-.6-2.4 1.9.5 1.4 1.6 2.5 3.3 2.6 3.7m825-1.6c.6 1.4 1 3.8 1 5.3 0 2.6-1 3.3-15 10-8.2 4-15.5 7.1-16.2 6.8-.7-.2-2.3.4-3.6 1.4s-2.9 1.6-3.6 1.3-1.9.2-2.6 1.1c-2.1 2.6-2.8 1.7-2.2-3.3.7-6.5 1.3-7.4 7.4-10.7 6.6-3.6 30.8-14.4 32.6-14.4.7-.1 1.7 1.1 2.2 2.5m-613.1 2.7c-.7 2.5-1.4 3.4-2.4 3.1-1.1-.5-1-1.2.8-3.9 1.2-1.9 2.3-3.3 2.4-3.1.1.1-.2 1.9-.8 3.9m32.6 1.9c8.8 2.8 16.3 5.4 16.7 5.8.4.3 1.2 2.7 1.7 5.3l.8 4.7h-3.1c-1.8 0-3.8-.6-4.4-1.2-1-1-1.4-1-2-.1-.6 1-2.2 1-7.1.2-4.6-.9-6.5-.9-7-.1s-1.8.9-4.6.1c-5.2-1.4-13-5.9-11.7-6.8.6-.3 1-2 .9-3.6 0-1.7 0-4.7.1-6.9.2-3.2.5-3.7 2-3.1.9.3 8.9 2.9 17.7 5.7m320.8-1c3.6 4.5 7.7 11.9 7.7 13.9 0 1.3-9.1-8-12.8-13.1-1.5-2-1.8-3-.9-3.9 1.7-1.7 2.3-1.4 6 3.1M694 599.1c.6 1 .7 1.9.2 1.9s-1.4-1.2-2-2.6c-1.4-2.9.2-2.4 1.8.7m179-.2c0 5.7-1.2 9.2-3.5 10.1-1.3.5-2.5 1.5-2.8 2.2-1.1 3.1-1.4-.2-.5-5.2 1.4-7.8 6.8-13.4 6.8-7.1m275.5 1.9c-1.6.2-2.9 1.1-3.2 2.2s-1.1 1.6-1.9 1.3c-2.2-.8-1.6-3 1.4-5.1 2.5-1.9 2.8-1.9 4.6-.4 1.8 1.6 1.7 1.7-.9 2m207.2.6c-.3.8.5 2.4 1.8 3.6 1.4 1.3 2.9 3.7 3.4 5.4 1.7 5.8 2.1 8.6 1.2 8.6-.5 0-1.2-2-1.6-4.5-.4-3-1.7-5.8-3.7-8-2.6-3.1-3.3-6.5-1.2-6.5.3 0 .4.6.1 1.4m85.3 1.6c0 2-2.5 3.8-3.7 2.6-.5-.5 2.4-4.6 3.4-4.6.1 0 .3.9.3 2m-627.7 3.9c5.4 3 15.5 6.5 21.9 7.6 5.9.9 5.7 2.6-.3 2.3-3.2-.2-5.3.1-5.6.8-.4 1.3 7.3 7.4 9.4 7.4 2.4 0 1.3-1.8-2.3-3.9-2-1.2-3.5-2.4-3.2-2.6.2-.3 3.4.4 7.1 1.4 6.6 1.8 8.5 1.2 5-1.5-1.6-1.2-1.1-1.3 3.2-.6 2.8.4 8 .7 11.8.7 3.7 0 6.7.3 6.7.7 0 .6-11.5 5-20.5 7.8-4.8 1.5-6.4 2.7-4.4 3.5 1.9.7 15.3-3.7 22.8-7.4 6-3.1 11.1-8 11.1-10.8 0-.9 1.2 0 3 2.2 1.7 2.1 3 4.6 3 5.7s.7 2.7 1.6 3.6c3.5 3.4.3 37-5.6 59.7-4.3 16.5-12.9 38.1-15.9 39.9-1.8 1.1-10.1 16.3-10.1 18.4 0 1.3-.5 2-1.2 1.7s-3 1.9-5.1 4.8c-3.9 5.4-9.3 11.7-10.1 11.7-.2 0-1-1.6-1.6-3.6-.9-2.6-1-9.6-.5-25.8l.7-22.1 4.4-6.7c8.4-12.7 12.9-24.3 14.8-38.4l.7-5 9.7-2.8c5.3-1.4 10.1-3.1 10.6-3.6s.1-5.9-.9-13.2c-1.6-11.6-1.6-12.3 0-13.3 5-3 6.6-4.7 5.9-6.9-.4-1.1-.8-2.3-1-2.5-.1-.2-2.6 1.6-5.4 4-4.6 4-5 4.7-4.5 7.4.9 4.2 3.5 21.9 3.2 22.1-.1.1-4.9 1.5-10.7 3l-10.5 2.9-.7 7.1c-.4 3.8-1.8 10.6-3.2 15-2.8 8.7-11.8 25-12.4 22.3-.2-1 1.2-4.1 3.1-7 5.9-9.3 11.7-27.3 11.7-36.4 0-1.4.6-2.7 1.3-3 .6-.2 5-1.5 9.7-3s8.8-3 9.2-3.3c.7-.7-2.4-20.7-3.3-21.6-.3-.4-3.5.6-7 2-8.1 3.4-17.2 6-23.6 6.9l-5.1.7.4 11.1c.1 6.2.8 14.6 1.3 18.7.6 4.1 1 10.6 1 14.5l-.1 7-1.2-9.1c-.7-5-1.6-9.6-2-10.3-.7-1.1-1-13.3-.7-27.8l.1-5.2 4.2-.8c2.3-.5 4.3-1.4 4.6-2.2.4-1.1-.6-1.2-5-.7l-5.4.7-2.2-5.1c-2.6-5.9-2.7-6.7-.7-5 .9.8 1.5.8 1.5.2 0-1.1-10.2-10.2-11.4-10.2s-8.6-5.3-8.6-6.1c0-1.5 1.8-1 7.3 2m599.7-2.1c0 .9-3.8 2.9-29 15-17.4 8.4-18.6 9.1-19.8 12.5-.7 2-3.5 7.8-6.3 13.1-4.8 9.2-5.2 9.6-10.7 12.1-3.1 1.4-6.7 3.6-7.9 4.7-1.3 1.2-2.3 1.6-2.3 1 0-1.3 3.9-4 10.7-7.3 3.7-1.8 4.9-3.3 9.8-12.6 3.1-5.8 5.5-11.5 5.3-12.6-.3-2.3-.1-2.5 31.2-17.6 21.5-10.4 19-9.3 19-8.3m-391.8 16.5c-.5 5.4-.3 6 2.6 9 2.7 2.8 3.2 4.4 4.6 14 1.5 10.5 1.5 11.1-.4 16.7-3.6 10.6-8.8 31.3-10.6 41.5-.9 5.5-2 10.4-2.4 10.8-.4.5-3-.3-5.8-1.7-2.9-1.5-6.8-2.6-9.1-2.6-3 0-4.2-.5-5.5-2.5-.9-1.4-4.3-3.8-7.4-5.3-4.2-2-6.6-4-9.2-7.7-4.4-6.3-13.8-15.7-21.3-21.3-5.7-4.3-8.5-9.1-5.7-10 .7-.3 4-2.9 7.4-5.8s9.3-6.9 13.1-8.7c8.6-4.1 12.9-7.8 19.5-16.7 2.8-3.8 7.2-8.2 9.8-9.9 2.6-1.6 7.6-6 11.2-9.6l6.5-6.6 1.6 5.3c1.1 3.5 1.5 7.2 1.1 11.1m431.2-6.9c5.5 3.2 8.9 7 12.1 13.3 3.1 6.2 8.5 28.8 8.5 35.7 0 6.7-2.4 15.5-7 25-5.5 11.6-7 15.6-6 15.6.6 0 1.7-1.5 2.5-3.3 1.4-3.1 1.4-2.8.9 4.8-.7 8.3-2.5 15.2-5.1 19.2-2.1 3.2-3.1 2.9-3.6-1-.4-2.9-.5-3-1.2-1-.4 1.4-1.6 2.3-2.9 2.3-1.8.1-1.7.4 1.4 3 3.4 2.8 3.5 3 2 5.7-1.1 1.9-3.2 3.4-6.8 4.7l-5.1 1.8-9.3-4.5c-5.1-2.5-10.6-5.9-12.1-7.5l-2.9-3 4.8-3.6c2.6-2 5-3.6 5.4-3.6.3 0 3.5 1.1 7 2.5s6.5 2.3 6.8 2.1c.2-.2-1.7-1.9-4.2-3.8-2.5-1.8-4.5-3.7-4.6-4.1 0-.4 2.1-1.7 4.7-2.8s6.9-3.6 9.6-5.6c3.3-2.3 4.8-2.9 4.3-1.8-.3.9-.9 2.8-1.3 4.2-1 4 1.4 1.9 2.7-2.5.7-2 2.1-5.2 3.1-7 2.1-3.7 1.8-3.9-1.9-1.3-1.5 1-4.6 2.8-6.9 4l-4.3 2.1 9-11.1c10-12.2 12.2-15.6 9.7-14.6-1.2.4-1.1-.3.5-4.5 1-2.8 1.7-5.2 1.5-5.4s-1.8 2.4-3.6 5.8c-4.7 9-12.6 18.9-23.3 29.4-8.4 8.2-23.2 19.4-25.7 19.4-.5 0-4.7 3.1-9.3 6.8-12.7 10.5-17.8 12.7-26.1 11.2-8.8-1.6-13.7-3.2-13.7-4.4 0-.8-4.9-2-13.2-3.4-7.3-1.2-18.9-3.5-25.8-5.2-11.1-2.7-12.8-3.4-15.3-6.3-4.1-4.7-4-4.7-6.2-6.2-1.8-1.2-2-2.5-2-12.7 0-16.1 3.8-26.5 11.7-32.8l2.8-2.1 11.4 2c6.3 1 12.6 2.7 14 3.6 3.1 2.1 12.6 2.8 19.3 1.5 5.2-.9 5.2-.9 18.7 7.4 5.9 3.6 9 4.4 10 2.7.3-.5-.3-2-1.4-3.3-1.3-1.7-1.6-2.8-.9-3.5 1.6-1.6-5.5-3.6-9.6-2.9-6.5 1.3-4.6-2.8 2.7-5.9 2.1-.8 5.8-3.5 8.4-6 5.1-5 15.5-10.4 25.2-13.1 3.4-.9 6.5-2 6.7-2.4.6-1-11.9 1.8-16.4 3.6-1.9.8-3.6 1.3-3.8 1-.2-.2 1.7-2.5 4.3-5 2.5-2.6 4.4-5 4-5.3-.3-.3-1.2 0-2.1.7-2.7 2.3-1.6.2 3-5.4 2.5-3.1 4.5-5.9 4.5-6.3 0-1.2-5.1 4.1-9.6 10.1-5.8 7.7-13.4 16.1-13.4 14.8 0-2.1 4.3-15 7.1-21.1 4.9-10.9 18-22 31.8-27.1 4.5-1.7 4.7-1.7 12.5 1.1 4.3 1.6 9.7 3.9 12 5.3M884 608.5c-.7.8-2 1.5-2.9 1.5-1.3-.1-1.3-.3.3-1.5 2.6-1.9 4.2-1.9 2.6 0m473.9 2.6c1.3 3.8 1.4 7.2.2 6.5-.4-.3-1.1-1.8-1.4-3.3-.3-1.6-.9-3.6-1.2-4.6-.4-.9-.3-1.7.3-1.7s1.5 1.4 2.1 3.1m-15.5 1.5c1.1 2.7.7 3.7-.9 2.4-1.2-1-1.8-1-3.2.1-1.4 1.2-1.4 1 .1-1.4 2.1-3.1 3.1-3.4 4-1.1m55 6.6c-11.6 11.9-22.8 26.6-32.4 42.4-5.4 9.1-6.4 10.3-9.5 10.8-4.5.9-18.5-2.4-18.5-4.3 0-1.6 4.9-5.2 11.1-8.1l6.7-3.1 6.7-13.2 6.7-13.2 17.6-9.1c9.8-5.1 17.9-9.2 18.2-9.3.2-.1-2.7 3.2-6.6 7.1m-508.8-2.4c-.7.6-5.6-1.8-5.6-2.7 0-.6 1.3-.2 2.9.7s2.8 1.8 2.7 2m268.2-1.7c-.2.6-.8 1-1.3 1s-1.1-.4-1.3-1 .4-1.1 1.3-1.1 1.5.5 1.3 1.1m12.2.6c-.8.3-2.3 1.2-3.2 2s-2.2 1.2-2.8.8c-1.9-1.2 1-3.5 4.4-3.4 1.7 0 2.4.3 1.6.6m7.2 3.7c-.3 1.4.1 1.6 1.7 1.1 1.2-.3 2.1-.3 2.1.2 0 .4 2.9 6.4 6.5 13.3s6.5 13 6.5 13.7c0 1.4-3.9 4.3-5.7 4.3-.7 0-3.1-3.6-5.3-7.9-2.2-4.4-4.4-8.2-5-8.6-1.7-1.1-1.1.6 2.5 7.2 3.7 6.8 4.1 7.8 2.5 6.8-.6-.4-3.5-5.7-6.6-11.8-3-6.2-4.6-10.1-3.4-8.8 2.3 2.7 2.8.6.5-2.5-1.9-2.5-1.9-3.5 0-2.8 1.8.7 2-.7.3-2.4-.9-.9-.9-1.2.1-1.2.8 0 1.1-.6.7-1.6-.4-1.1-.1-1.4 1.2-1.2 1 .2 1.6 1.1 1.4 2.2m-354.8 2.2c.3.8.2 1.2-.4.9s-1-1-1-1.6c0-1.4.7-1.1 1.4.7m341.8 1c2.6 1.3 4.1 3.4 7.1 9.4 2 4.3 3.7 8.3 3.7 8.9 0 1.5-3.7 2.3-5.7 1.2-1-.5-2.6-1.2-3.5-1.5-2.7-.8-5-6.4-5.6-13.3-.2-3.5-.2-6.3.1-6.3.4 0 2.1.7 3.9 1.6m-262.5 4.9c4.3 4 5.9 4.5 4.3 1.4-.7-1.1-1-2.3-.7-2.5.9-.9 8.4 3 12.9 6.7 2.6 2.1 5.1 3.9 5.6 3.9 1.4 0 15.6 15.2 19.3 20.6 1.6 2.4 4.7 8.1 6.9 12.7 2.1 4.5 3.9 7.4 3.9 6.4.1-2.4.6-2.2 6.7 2.7 7.1 5.8 13.4 13.3 18.6 22 3.6 6 4.3 6.8 4.7 4.9.6-2.2.6-2.2 4.6-.4 3.1 1.4 4.9 3.3 7.9 8.4 2.1 3.7 4.1 6.7 4.4 6.7.2 0 .2-2.1-.2-4.6-.5-4.3-.5-4.5 1.6-4.2 3.3.5 7 7.5 5.9 11.4-.7 2.8-.8 2.7-1.5-2-.4-2.6-1.1-4.4-1.6-4-.4.5-1.7 6.5-2.9 13.4-3.2 18.3-5.9 27.8-8.3 29.1-2.2 1.2-15.6.4-22.3-1.3-3.5-.9-10.5-6.1-10.5-7.8 0-.4 2.8-.8 6.2-.9 3.5-.1 6.6-.5 7.1-1 .4-.4-3.9-2-9.5-3.6-5.7-1.5-12.5-3.4-15.2-4.1-5.2-1.5-13.6-5.9-13.6-7.3 0-.4 2.8-.8 6.3-.7 7.5.1 16.9-1.9 19.7-4.2 2-1.6 1.7-1.7-6.4-1.7-4.7-.1-8.8-.3-9.1-.7-.3-.3.5-2.2 1.9-4.2 2.8-4.2 6-13 5.3-14.9-.2-.6-1.2.5-2.2 2.6-3.1 6.5-11.2 11.8-20.4 13.3-4.3.7-4.4.7-3.6-1.7 1.3-3.8 1.7-19.4.7-23.3-.8-2.8-.6-4.6.9-8.6 1.5-3.9 1.9-7.6 1.9-16.8 0-15.4-1.6-17.8-2.2-3.3-.3 6.6-.9 11.6-1.6 12.3-.9.9-1.2.1-1.2-3.5 0-2.5-.5-7-1.1-9.9-1.2-5.5-6.8-20.2-7.5-19.5-.3.2.9 6.5 2.6 13.9 3 13.7 3.5 18.7 2.1 22.3-.8 1.9-.8 1.9-1.6-.5-1.5-4.7-13.2-32.4-17.6-41.5-2.6-5.5-4.5-11-4.9-14.3-.3-2.8-.4-5.2-.3-5.2s1.9 1.6 4 3.5m454.7-.6c.3.4 1.8.6 3.3.4 2.4-.4 2.1 0-2 2.6-2.6 1.7-4.9 3.1-5.1 3.1s.1-1.6.7-3.5c1-3.5 2.1-4.3 3.1-2.6M822.6 628c1.3 0 2.4.6 2.4 1.3 0 1.7-6.2 1.9-7.2.3-1.3-1.8-.9-2.8.8-2.2.9.3 2.7.6 4 .6m526.5 5.2c-.9 2.5-3.8 5.4-4.6 4.6-.2-.2.7-2.1 2.2-4.1 2.9-4.1 3.9-4.3 2.4-.5m11.9-2.8c0 .3-5.1 3.8-11.3 8-12.9 8.6-13.7 9.3-20.1 19.9-2.7 4.3-5 7.6-5.3 7.4-.4-.5 8.9-15.8 11.6-19.1 1.6-1.9 13.4-10 20.6-14.2 4.3-2.5 4.5-2.6 4.5-2m-317.4 12.7c.3.6.7 3.3.8 6.1.1 5 .1 5-1.1 2-.7-1.7-1.5-6.4-1.8-10.4-.4-6.1-.3-6.6.5-3 .5 2.3 1.2 4.7 1.6 5.3m298.4-4.7c0 1.4-2.9 3.1-3.8 2.1-.6-.6 1.8-3.5 2.9-3.5.5 0 .9.6.9 1.4m-181.2 5.5c.3.8-.1 1.2-.9.9-.7-.2-1.5-1-1.7-1.7-.3-.8.1-1.2.9-.9.7.2 1.5 1 1.7 1.7m173.2 1.8c-5.7 9.8-12.5 19.2-12.8 17.9-.2-.8.2-2.4.8-3.5 1.7-3.2-.6-2.6-3.2.9-1.3 1.8-3.1 3-4.5 3-1.3 0-2.3-.2-2.3-.5 0-.2 1.6-3 3.5-6 3.7-5.7 11-11.9 13.1-11.1.6.2 2.2-.6 3.5-2 3.4-3.6 4.4-2.9 1.9 1.3m47.2 11.5c-2.5 8.2-2.9 8.7-6.4 10.2-2.1.8-3.8 1.2-3.8 1 0-1.7 12-20.8 12.6-20.1.2.1-.9 4.2-2.4 8.9m-477.4 7.9c3.3 7.4 7.6 17.9 9.7 23.4 3.6 9.3 3.9 10.8 3.9 21l.1 11-6.6 13.6c-7.1 14.5-9.8 18.3-7.4 10.2.8-2.6 1.2-4.9 1-5.1-.6-.7-4 7.4-6.5 15.4-2.3 7.6-4.7 11.8-8.6 15.4-2.5 2.3-2.6 2.3-1.5.3 2.1-4 1.1-4.4-2.8-1.2l-4 3.2-16.5-1.4c-9.2-.7-16.6-1.5-16.6-1.9 0-.9 12.5-18 16.5-22.5 4.4-5.1 9.5-13.1 9.5-15.1 0-.8 1.6-4.6 3.6-8.5 4.7-9.4 10.9-26.5 14-38.5 1.9-7.5 5.4-29.1 5.4-33.1 0-1.5 1.3 1.2 6.8 13.8m289.2-8c-1.2 2.2-1.3 2.2-2.7.3-1.2-1.6-1.2-2 .4-3.1 2.4-1.8 3.8-.1 2.3 2.8m-151.8 11.1c-.2 5.7.4 17.9 1.4 27.3 1.5 14.5 1.7 28.3 1.9 92.7 0 41.6 0 75.6-.2 75.5-.1-.2-1.8-11.3-3.7-24.7-4.3-29.4-4.6-31.3-5.2-30.7-.3.3.2 9.9 1.1 21.3 2.5 34.5 8.2 127.3 7.8 127.8-.2.2-18.7-4-22.2-5-1.2-.4-1.3-7.9-.7-49.7 1.3-93.3 2.7-121.7 9.1-187.7 3.7-37.4 5.9-53.6 7.7-55.7 2.7-3.3 3.3-1.3 3 8.9m242.6-5.7c.3.3.1.5-.5.5-1.7 0-7.3 8.8-9.4 14.7-2.4 7.1-3.4 19.3-2.1 25.3 1.2 5.1.9 6.2-.8 3-2.1-3.9-2.4-16.8-.6-24.3 1.9-8.2 1.9-9 .2-5.7-2.5 4.6-3.9 13.6-3.4 21.8l.5 8.1-2.7-1.4c-6.5-3.4-5.2-25 2.4-37.9 3.9-6.8 5.7-7.7 11.3-6 2.6.8 4.9 1.6 5.1 1.9m-94.3-1.5c-.3.5-2.5 1-4.7 1-2.3 0-3.9.3-3.5.6.8.8 37.3.5 39.5-.3 1.4-.6 1.3-.8-.8-1.4-1.4-.4 8.4-.7 21.7-.6s24.4.5 24.8.8c.3.4-.8 2.8-2.4 5.4-1.7 2.7-3.5 6.3-4.2 8.2-.9 2.7-1.4 3.2-2.4 2.3-.8-.7-1.9-.9-2.4-.6-.5.4-1.4-.2-2-1.1-1-1.7-1.1-1.6-1.7.4-.7 2.4-3 3.3-9.1 3.3-4.7 0-15.4-2.5-19.4-4.6-1.5-.7-2.9-1.1-3.2-.7-.3.3-2.5-.4-4.9-1.5-4.5-2.1-8.8-3-17.8-3.6-3-.2-7.3-1.1-9.5-2.1s-4.6-1.7-5.2-1.6c-2 .3-5.3-1.8-5.3-3.4 0-1.2 1.5-1.5 6.6-1.5 4.1 0 6.3.4 5.9 1m-13.6 2.6c.3 1.6.1 1.7-1.3.5-1.9-1.6-2.1-3.4-.3-2.9.6.3 1.4 1.3 1.6 2.4m133.5 3.2c.2.4-1.1 2.1-3.1 3.6-7.1 5.7-11.7 20.4-11.1 35.7.1 5.5 0 9.9-.4 9.9-3.3 0-4.6-13.8-2.4-24.5 2.1-10.1 5.6-17.3 10.6-21.9 4-3.6 5.5-4.3 6.4-2.8M821 676.3c0 3.2-9.2 16.6-16.5 24.2-5.1 5.2-17.2 14.5-18.9 14.5-2 0 .2-2.4 4.8-5.5 7.8-5.1 18.5-16.9 24.6-26.9 2.9-4.7 5.5-8.6 5.7-8.6.1 0 .3 1.1.3 2.3m207.4 6.7c-.7 4.1-1.3 9.3-1.3 11.5.1 3.8.1 3.7 1.3-1.7 1.4-6.3 3.1-9.4 2.2-3.8-.6 3.2-3.3 36.1-7.1 84.5-3.2 41.6-5.6 78.9-7.5 118-1.9 40.9-3 59.5-3.5 59.5-.1 0-1.6-.5-3.3-1.1-3-1-3-1.1-3.7-10.5-1.4-18.2.9-77.3 5-130.9 4.1-53 9.3-96.8 14-117.5 3.7-16.5 6.4-22.1 3.9-8m177-2.6c3.7 6.3 3.2 6.7-.9.7-1.9-2.8-3.5-5.3-3.5-5.6 0-1.4 2 .8 4.4 4.9m13.7-.8c1.4.7 3.2 2 4 3 1.2 1.5 1.2 1.8-.5 2.8-1 .6-3.4 2.1-5.3 3.4-2 1.3-3.6 2.2-3.8 2-.5-.7-6.5-12.9-6.5-13.3 0-.9 9.5.8 12.1 2.1m162.9.4c3.3 3.3 2.3 4.3-2 1.9-2.2-1.3-4-2.6-4-3.1 0-1.6 4-.8 6 1.2m-124.4 8.1c-.3 2.2-.1 6.9.5 10.5 1 5.5 1.6 6.8 4 8.3l2.8 1.7-2.5 4.5c-4.8 8.5-7.5 11.6-12.2 14.2-2.6 1.4-7.3 5.3-10.5 8.6-3.2 3.4-6.1 6.1-6.5 6.1-.7 0-17.4-33.9-18-36.5-.3-1.3 7.2-7.2 13.5-10.4 2.2-1 6.8-2.5 10.3-3.1 6.8-1.2 12.8-3.8 14.9-6.4.8-.9 2-1.6 2.9-1.6 1.1 0 1.3.8.8 4.1m-32.7 2 3.2 1.1-2.8 1.8c-3 1.8-4.3 1.1-4.3-2.3 0-2-.2-2 3.9-.6m-5.3 4.1c.5 1.7-.1 2.7-2.7 4.9-2.4 1.9-3.6 2.4-4.1 1.6-1.2-1.9-.9-3.3 1.3-6.1 2.5-3.2 4.5-3.3 5.5-.4m57.4 19.2c14.3 5.6 16.1 6.7 15.4 9-.8 2.4-11.4 27.9-11.8 28.4-1 .9-6.6-9.7-7.2-13.4-.3-2.4-1.1-4.4-1.7-4.4-1.3 0-.2 14.2 1.3 17 2 3.7-3.9 2.1-8.7-2.3-1.8-1.6-2.3-1.7-2.3-.5 0 3.6 11.4 10 22 12.3l5.5 1.2-6 2.7c-7.8 3.5-14 5.5-20.1 6.5l-4.9.8 4.8 2.1c2.7 1.2 5.7 2.2 6.8 2.2 2.7 0 2.4 1.5-.6 2.8-6.1 2.8-14.9.5-20.6-5.2-1.4-1.4-4.5-6.8-6.8-12-3.9-9-4.1-9.7-3.1-14.3 1.7-7.4 5.2-11.8 12.3-15.5l3.9-1.9-.7 3c-1.2 5.7 1.2 3.2 4.9-5.2 3.3-7.3 8.3-16.7 8.9-16.7.1 0 4 1.5 8.7 3.4m-455 1.2c0 3.3-14 14.9-24.1 19.9-6.7 3.4-10.3 4.5-8.3 2.6.5-.5 3.6-2.4 6.9-4.1 7-3.7 14.3-9.2 20-14.9 3.6-3.8 5.5-5 5.5-3.5m-1.1 23.6c-.5 12.4-2.1 24.6-3.5 26.6-.4.6-11.8-1.9-12.9-2.8-.5-.4-2.3-1-4-1.4-10.7-2.5-10.8-2.6-8.9-4.7.9-1 2.3-1.9 2.9-1.9.7 0 1.8-.7 2.6-1.6 1.1-1.4.9-1.5-2.7-.9-2.1.4-4.9 1.4-6.1 2.1-2.1 1.3-2.3 1.3-2.3-.5 0-1 .7-2.4 1.5-3.1s1.5-2.6 1.5-4.2c0-2.6.6-3.2 6.7-5.9 7.6-3.4 18.7-10.5 22.2-14.3 1.4-1.4 2.7-2.6 3-2.6s.3 6.9 0 15.2m48.2-11.1c3.5 2.5 4.2 5.7.7 3.7-2.4-1.4-5.8-4.5-5.8-5.3 0-1.1 2.4-.4 5.1 1.6m-115.8 4.4c-.4 3.3-.1 6.6.7 8.5.9 2.1.9 3.4.2 4.3-.6.7-1.3 2.5-1.6 4-.2 1.5-1.3 4.4-2.4 6.4-1.1 2.1-2.7 5.5-3.6 7.7-1 2.2-2.6 4-3.8 4.4-2 .5-2 .5.3 2.4 1.3 1 2 1.8 1.4 1.7-2.4-.3-3.3.3-4.5 3.1l-1.2 2.9-3.7-1.5c-2-.8-4-1.9-4.5-2.4-1.1-1.1 2.2-9 3.6-9 .5 0 .8-.6.5-1.3-.2-.6 1-3.9 2.8-7.2s6-11.3 9.5-17.8c3.5-6.4 6.4-11.7 6.6-11.7.1 0 0 2.5-.3 5.5m711.7.9c0 .8-.6 1.9-1.4 2.5-1.2 1-1.5.8-1.8-1-.4-2.8-2.5-3.6-3.1-1.2-.4 1.4-.5 1.3-.6-.5 0-1.3.4-3.2.9-4.2 1-1.8 1.1-1.8 3.5.6 1.4 1.4 2.5 3.1 2.5 3.8M860.5 731c-1.4 2.2-2.5 4.5-2.5 5.1 0 .7-.3 1-.6.6-.9-.8.4-4.2 2.7-7.1 3.1-3.9 3.3-3.1.4 1.4m556.4-.1c2.5 1.6 7.6 4.4 11.4 6.2 3.7 1.8 6.7 3.6 6.7 3.9s-2.6 1.3-5.8 2.4c-4.4 1.4-6.4 1.6-7.8.8-3.1-1.7-11.4-4.1-11.4-3.3 0 .4 1.8 1.8 4.1 3 2.2 1.3 3.8 2.5 3.6 2.7-.6.6-14.9 5.4-16.2 5.4-.6 0-1.9-1.6-2.8-3.6-1.4-2.8-2.2-3.5-3.7-3.1-3.7 1-3.2-1.4.9-5 4.5-3.8 15.3-12.1 16-12.2.2-.1 2.5 1.2 5 2.8m-96.9.6 4.5 1.1.5 12.7c.3 7 .2 12.7-.1 12.7-.9 0-11.6-19.9-13.3-24.8l-1.5-4.2 2.7.7c1.5.3 4.7 1.2 7.2 1.8m-393.9 2.6c1.9.7 5 2.7 6.9 4.5s6.2 4.3 9.5 5.5c4.7 1.7 7.6 3.8 13.6 9.8 6.8 6.8 8.6 8 17.4 11.6 5.4 2.2 10.9 4.8 12.1 5.8 3.7 2.8 16.4 7.7 18.8 7.2 4.3-1 4.4-.2 2.5 24-2.6 33.6-6.6 93.7-8.5 127.5-.9 16.2-1.8 29.7-1.9 29.9-.2.2-7.7-6.5-16.7-14.9-14-13.1-37.2-33.2-48.6-42.1-2.7-2.1-3.8-4-5.3-9.5s-2.6-7.6-5.6-10.2c-2.1-1.9-7-6.3-11-9.8l-7.1-6.4-2.8-11.8c-1.4-6.4-4.2-17.8-6.1-25.2s-3.4-14.9-3.4-16.5c.1-4.5 3.8-19.4 7.2-29.1 1.7-4.7 2.9-9.6 2.8-10.7-.5-5.1 1.8-10.4 9.5-22.1 4.4-6.8 8.9-13.8 9.8-15.5 1.9-3.5 2.2-3.5 6.9-2m420.2 2.9c8.8 2 20.6 5.5 27.5 8.2 2.4.9 3.5 2.1 4.2 4.8 1.6 5.6 1.3 9.7-.7 10.3-1 .2-8.6 2.5-16.9 5.1-8.4 2.5-15.8 4.6-16.5 4.6-1.5 0-5.2-5.1-6.3-8.8-.4-1.2-1.1-2-1.5-1.7-1.1.6-2.1-7.2-2.1-16.6 0-9.2-.9-8.8 12.3-5.9m96.3 18.7c1.4 5.2-3.3 8.2-6.1 3.9-2.1-3.2-.6-6.6 3-6.6 1.8 0 2.6.7 3.1 2.7m-120.5 10.7c2.6 5.4 3.6 8.6 3.3 10.5-.3 1.6 1.1 7.3 4 15.6 6.6 18.5 9 27.9 7.8 30.2-.5 1-2.2 7-3.7 13.3s-3.6 12.7-4.6 14.1c-1 1.5-1.9 3.1-1.9 3.6s-2 3.5-4.5 6.7c-2.8 3.7-5.8 9.4-8.2 15.8-3.2 8.4-4.5 10.5-8.1 13.5-2.4 1.9-4.4 3.4-4.6 3.2-.9-1.4-41.6-92-41.6-92.8 0-1.3 12.5-9.9 17-11.7 7.4-2.9 12.3-6.8 18.4-14.9 3.4-4.3 7.4-8.4 9.5-9.5 2-1 5.2-3.4 7.1-5.2 4.2-4.1 4.5-3.9 10.1 7.6m-64.4 39.6c4.7 10.2 14.2 31.1 21.1 46.5 11.2 24.9 12.6 28.7 12.9 34.5.2 3.6 0 8.5-.5 11l-.9 4.5-3.7-8c-9-19.3-29.5-72.1-38.3-98.4-3-9-7.2-20.8-9.4-26.3-2.1-5.4-3.9-10.2-3.8-10.6.1-.9 11.5 22.8 22.6 46.8m-532.5-43.1c-.9 1.6-1.8 2.8-2 2.7-.5-.6 2.1-5.6 2.9-5.6.5 0 0 1.3-.9 2.9m77.2 3.3c-.9 1.8-1.9 3.5-2.2 3.8-.8.9 1-4.5 2-5.8 1.8-2.2 1.9-1.3.2 2m604.2.3c1.5 2.3 1.5 2.7 0 5-1.9 2.9-4.2 3.2-6.8.8-2.2-2-2.3-4.6-.2-6.7 2.3-2.3 5.1-2 7 .9m-626.1 2.9c2.9 4.3-1.8 8.9-5.3 5.4-2.5-2.5-.8-7.8 2.5-7.8.7 0 2 1.1 2.8 2.4m611 5.7c1 1.5-.4 6.1-1.7 5.7-1.8-.6-3.2-3.4-2.5-5.2s3.2-2.2 4.2-.5m-657.7 1.4c.8.7-1.3 3.5-2.3 3.1-1.7-.6-3 .5-4.9 4.2s-1.2 5.8.8 2.9c2.9-3.8 2.5-1.3-.6 4.3-3 5.6-4.8 7.4-4.8 5 0-.6-.9-1-2.1-1-1.1 0-1.9-.3-1.7-.8.2-.4 2.5-4.9 5.1-9.9 4.6-8.8 5-9.3 7.5-8.7 1.5.4 2.8.8 3 .9m83.2 0c2.4 2.9-1.7 8.3-5.4 6.9-2.1-.8-2.9-3.9-1.6-6.4 1.3-2.3 5.2-2.7 7-.5m552 .5c1.1 1.1 2 2.3 2 2.8 0 1.5-3.1 5.2-4.5 5.2-3.9 0-6.1-7-2.7-8.9 2.4-1.5 2.9-1.4 5.2.9m-568.2 2.4c.2 1-.1 2.3-.8 3-1.7 1.7-4.4-2.2-2.8-4.1 1.4-1.7 3.2-1.2 3.6 1.1m537.2 2c0 .6-.7.2-1.5-.8-.8-1.1-1.5-2.5-1.5-3 0-.6.7-.2 1.5.8.8 1.1 1.5 2.5 1.5 3m144 2.3c4.7 3.1 12.3 9.5 16.9 14.2s8.9 8.5 9.4 8.3c1.7-.5 20.7 18.9 25.2 25.8 8.1 12.4 21.3 40.2 46.2 97 8.5 19.5 21 46.9 27.6 60.9 11.4 24 11.9 25.5 10.6 27.7-2.2 3.7-10.9 12.3-15.5 15.4-4.7 3.3-31.3 18-32.5 18-.4 0-1-.8-1.3-1.8-1.7-5.7-15.8-54.4-21.6-74.7-6.8-23.5-10.8-36-10.9-34-.1.6 3.9 15.5 8.8 33 16.8 60.3 25.5 94.1 24.7 96-.7 2-14.4 9.1-23 12-11.4 3.8-32.3 6.7-50.1 6.9l-15 .1-2.7-14.5c-1.6-8-6.9-35.9-11.9-62-8.1-42.6-13.3-70.2-29.9-158.6-5-26.2-10.1-48.2-12.1-51.3-.8-1.4-.9-1.3-.5.4 2.2 8.1 25.2 127.6 34.5 179 6.6 36.3 20.1 115.7 20.1 118 0 1.8-27.1 6.5-37.6 6.5-2.9 0-3.3-.3-3.8-3.8-.3-2-3.8-25.1-7.6-51.2-10.2-68.9-14-93.4-14.5-93.9-.8-.8-.6 2 2.6 25.4 1.6 12.7 4.3 33.6 5.9 46.5s4.3 33.9 5.9 46.7c3.8 28.4 3.8 27.3.6 27.3-1.3 0-9 1.6-17.1 3.5-19.7 4.7-30.8 5.9-48.4 5.2-22.6-1-47.6-7.1-67.7-16.7-15.5-7.3-23.7-13.2-43.9-31.4-10.5-9.5-24.1-19-39.1-27.6-5.1-2.9-9.3-5.7-9.3-6.2 0-3.3 15.2-30 23.4-41.1 29.6-39.9 48.5-60.1 69.5-74.2 14.1-9.4 26.8-19.3 31.1-24 3.2-3.6.9-2.3-6 3.5-3.1 2.5-9.1 6.4-13.5 8.7s-9.1 5.3-10.5 6.8c-5.6 6-6.4 5-2.3-2.6 3.4-6.5 5.2-8.4 14.4-15.7 13.6-10.8 30.5-26.7 34.7-32.6 1.8-2.5 3.1-4.6 2.8-4.6-.2 0-3.2 2.8-6.6 6.1-6.1 6.2-8.6 7.3-5.4 2.5.9-1.5 1.4-3 1-3.4-.4-.3-1.1 0-1.5.7-.9 1.4-9.3 11.7-14.3 17.5-2.4 2.7-2.7 2.8-2.7 1.1-.1-3 4.2-12.7 7.3-16.8 2.9-3.7 5.3-5 4.2-2.2-.3.8-.2 1.5.2 1.5 1-.1 11.3-24.1 10.8-25.4-.2-.6-1.5 1.4-2.9 4.4s-2.6 5.1-2.6 4.7c-.2-1.7 3.9-16.4 5.5-20.3 1.4-3.2 1.8-3.6 2.3-2 .7 1.7.8 1.7 2.3-.6 1-1.6 3.2-2.8 6.2-3.5 2.5-.5 4.6-.9 4.6-.6 0 2.2-4.7 16.2-7.1 21.1-1.7 3.5-2.8 6.6-2.5 6.9s2.5-3.5 4.9-8.5l4.4-9 .6 6.1c.4 4.5 0 8.2-1.7 14.6-1.3 4.7-4.4 16.7-7 26.6-6.1 23.2-11.6 42.4-17.3 60.5-5.9 18.7-5.7 17.8-4.3 15.8 3.4-5.3 15.5-43.6 30.3-95.8 10.2-36.1 11.2-40 9.7-40-.6 0-1.7 1.5-2.4 3.2-3.6 8.5-3.7 8.6-3.1 4.4 1.2-7.8 1.7-8.2 11.2-11.1 4.8-1.5 9.2-2.8 9.8-2.8.5-.1 1 2.9 1.1 6.8 0 3.8.8 13.5 1.7 21.5s2.8 30 4.2 49c2.7 35.2 4.9 54.4 4 34.5-.3-5.5-.9-19.2-1.4-30.5-.6-11.3-1.1-34.6-1.3-51.9l-.3-31.4 11-3.7c6.1-2.1 13-4.5 15.4-5.4s5.2-1.4 6.2-1.1 2.1 0 2.6-.8c.8-1.4 21.2-9.7 23.9-9.7.8 0 2.9-.8 4.7-1.7 3.9-2 16.8-7.2 18.2-7.2.6-.1 4.8 2.5 9.5 5.6m-743.2-3.8c1 .6.4 2.7-3 9.4-3.4 7-4.6 8.6-6 8.1-1.8-.5-2.3.7-2 5.1.1 1.2-1.3 4.5-3.2 7.5-1.8 3-8 14.6-13.7 25.7s-10.5 20-10.7 19.8.4-1.7 1.3-3.4c.9-1.8 1.1-3.1.5-3.1s-2.2 2.5-3.6 5.5c-1.5 3.1-2.9 5.3-3.2 5-.7-.6 20.1-42.1 29.2-58.4 3.5-6.2 6.6-10.7 6.9-10 .4 1.2.7 1.2 1.8.1 1.1-1 1.1-1.4.1-2.1-1.1-.6-.8-1.8.9-5.4 2.4-5 2.6-5.1 4.7-3.8m114.2 1.7c1.7 2 .2 6.7-2.3 7.2-2.4.5-4.7-1.6-4.7-4.2 0-4.2 4.5-6.1 7-3m31.8 3.1c.6 1.1.6 2.8.1 4.1-1.2 3.1-5.3 2.7-5.7-.6-.6-4.3 3.8-7 5.6-3.5m-131.1 2.8c-.7 2.3-2.1 4-4 5-1.7.8-3.2 1.5-3.4 1.5-1.2 0 4.5-8.4 6.2-9.1 1.1-.4 2.1-.8 2.2-.8 0-.1-.4 1.5-1 3.4m587.3-1.1c2 2.6.8 6.1-2.2 6.4-2.2.3-2.9-.2-3.4-2.2-1.1-4.4 2.9-7.4 5.6-4.2m-538 11.7c-10.5 9.8-17 15.2-15 12.3.8-1.1 3.3-3.6 5.5-5.4 2.2-1.9 6.8-6 10.2-9.2s6.5-5.8 7-5.8c.4.1-3 3.7-7.7 8.1m-46-3.1c1.2.8 1 1.4-1.2 3.7-1.4 1.5-3.9 5.7-5.6 9.3-1.6 3.6-4.6 10-6.6 14.2-4.4 9.6-3.3 10.4 1.3 1 4.4-8.9 13.4-22.4 16.1-24 1.9-1.1 3.1-1 8.8 1.2 3.7 1.3 8.7 3.1 11.2 3.8 2.5.8 4.5 2 4.4 2.6-.1.7-.2 2.3-.2 3.7-.2 2.6-9.7 11.3-34.7 31.9-7.1 5.9-16.6 13.7-20.9 17.4-4.4 3.6-8.1 6.1-8.3 5.5-.3-.7-2.6.9-5.2 3.5-6.1 6-18.1 15.6-18.1 14.5 0-.4 1.2-2.8 2.6-5.3s7.8-14.6 14.1-27c20.5-40.4 22.6-43.5 35.8-54 4.2-3.3 4.4-3.4 6.5-2m640.7 2.2c-.3.7-.5.2-.5-1.2s.2-1.9.5-1.3c.2.7.2 1.9 0 2.5m-601.6.5c-.8 1.5-1 1.5-1.1.2 0-1.7 1-3.2 1.8-2.5.2.3-.1 1.3-.7 2.3m543.9-.1c0 .8-.4 1.4-1 1.4-.5 0-1-.9-1-2.1 0-1.1.5-1.7 1-1.4.6.3 1 1.3 1 2.1m54.5-.7c.3.5.1 1.2-.5 1.6-.5.3-1-.1-1-.9 0-1.8.6-2.1 1.5-.7m-680.7 9.5c-2.3 4.7-4.6 8.6-5 8.6-.3 0 1.4-4.1 3.8-9.1 2.5-5 4.7-8.9 5-8.6.3.2-1.4 4.3-3.8 9.1M828 803c0 .5-.5 1-1.1 1-.5 0-.7-.5-.4-1 .3-.6.8-1 1.1-1 .2 0 .4.4.4 1m-6.5 10.5c16.1 2.9 55.1 5.8 59.8 4.4 1.7-.5 3.4-.5 3.9-.1 1.2 1.2 5.7 18 9.7 36.8 3.8 17.7 6 24.8 6.1 19.6 0-2.2.4-2 5.8 2.4 12.2 10.2 14.1 12.4 16.5 19.8 2.1 6.8 2.4 7 12.7 15.5 22 18 55 48.1 55 50.2 0 .5-1.2.9-2.6.9-4.2 0-17.5 4.9-24.5 9-13.8 8.2-19.7 14.3-37.1 38.5-4.8 6.6-10.7 14.2-13.2 17l-4.5 5-.1-5.7c0-5.3 1.4-18.4 2.6-23.6.7-3.5-1.4-1.7-2.5 2.1l-.9 3.2-.1-3.1c-.2-5.1 3.8-41.6 5.4-50 .8-4.4 1.5-8.6 1.4-9.4-.1-3.7-3.2 7.8-5.4 20.5-1.4 7.7-3.1 17.1-4 21-.8 3.8-1.5 8-1.5 9.2 0 1.3-.4 2.3-.8 2.3-1 0-4.3-21.2-8.2-53.5-8.3-68-13.3-102.4-16-108.5-.9-2.3-1-2.2-.6 1 .8 5.9 4.5 34 8.1 63 2 15.1 4.4 34 5.5 42 2.9 21.4 5.9 45.3 11.5 94 2.6 22.3 6.5 58.7 6.5 60.5 0 1.1-15.5 4.1-26.6 5.1l-7.2.6-.6-6.8c-1.1-12-4.9-103.8-6.2-147.4-.3-12.4-1-25.2-1.5-28.5-.5-4.1-.7-.2-.4 12 .3 9.9.2 53.2-.2 96.2-.6 78.1-.6 78.2-2.7 78.8-1.2.4-11 .9-21.8 1.2-18.2.5-19.8.4-20.4-1.2-.7-1.7 0-23.7 3.1-105.7 1.9-47.3 2.8-110.1 1.6-106.8-.5 1.4-.9 7.9-1 14.5-.3 39.9-2.3 70.3-9.1 138.5-2.1 21.7-4.2 43.7-4.6 48.7l-.7 9.3h-7.6c-6.6 0-21.6-1.8-29-3.6l-2.4-.5.6-12.7c.7-13.4 4.7-57.7 7.2-79.7 1.6-13.7 3.4-26.8 9-68 1.9-13.8 5-38.5 7-55 1.9-16.5 4.5-39.6 5.9-51.3 1.4-12 3-22 3.7-22.9.9-1 2.2-1.3 4.3-.8 1.7.3 6.7 1.3 11.1 2m-112.9 6c.3.7-3.5 9.1-8.5 18.7-4.9 9.5-12.7 24.5-17.3 33.4-4.6 8.8-9 17.2-10 18.5-1.5 2.2-1.7 2.3-3.3.7-2.3-2.1-3-.5 17.9-41.5 15.3-30 17.1-33.1 18.8-32.2 1.1.6 2.1 1.6 2.4 2.4m89 3.2c-.4 2.1-1.3 14.4-2.1 27.3s-1.7 26.2-2 29.5c-2.4 25.9-6.2 60.8-9.5 86.5-3.7 28.2-8.5 69.6-12.5 107-.9 8.5-1.8 15.6-1.8 15.6-.4.3-18.6-2.7-28-4.5-17.8-3.5-21.9-4.1-34.7-5.1-14.5-1.2-25.3-3.7-37.6-8.6-26.5-10.7-50.4-26.4-62.9-41.4-5.5-6.5-6.1-8.4-4.1-11.5 5.9-9 24.2-30.2 36.9-42.7 10-9.8 15.8-16.4 17.7-19.9 1.9-3.7 3.6-5.5 5.4-6 2.2-.6 2.6-.4 2.6 1.3 0 1.8.4 1.6 4.2-1.3 2.3-1.9 5.8-6 7.7-9.2 16.5-26.8 35.4-53.3 40.1-56.1 3.8-2.2 31-23.3 50.8-39.3 8.5-6.9 15.5-12.3 15.6-12.1.2.1 0 6.2-.5 13.4-1 18.2-2 51.1-1.5 49.9.3-.6 1.2-9.6 2.1-20 .9-10.5 2.5-25.6 3.5-33.7l1.9-14.6 4.3-4.1c2.4-2.2 4.5-4.1 4.6-4.1.2 0 .1 1.7-.2 3.7m-101.3 52.9c1 .6 1.5 1.7 1.2 2.6-.5 1.4-1.1 1.4-5.3-.1-2.6-.9-4.8-1.6-4.9-1.6-.1-.1 0-1 .3-2.1.5-1.9.9-2 3.7-1 1.8.6 4 1.6 5 2.2m16.3 4.3c2.1 1.6 2.2 2 .9 3.1-1 .9-1.5.9-1.5.1 0-.6-.7-1.1-1.5-1.1s-1.5-.9-1.5-2c0-2.5.6-2.5 3.6-.1m-37.5 18.9c-.6.2-2-.2-3.1-.8-1.8-1-2.6-.8-4.6 1.1-2.9 2.7-4.2 1.9-2.1-1.2.9-1.1 1.3-2.8 1-3.7-.5-1 .9-.6 4.5 1.4 2.9 1.6 4.8 3 4.3 3.2m28.3-3c-1.7 1.5-5.9 6.5-9.5 11.2-3.5 4.6-6.9 9.1-7.6 10-.7.8-.2-1.6 1.1-5.5 2.2-6.5 2.8-7.3 9.7-12.7 7.6-5.8 11.9-7.9 6.3-3M683 916.7c-3.1 8.5-9.2 21.3-10.1 21.3-.4 0-1.1-.5-1.4-1-.3-.6-2-1-3.7-1-2 0-2.8-.4-2.5-1.3 7-16.6 9.1-21.4 9.9-22.4 1.2-1.5 9.2-3.2 9.6-2.1.2.4-.6 3.4-1.8 6.5m-21.7 18.5c3.1 2.5 0 2.3-3.3-.1-2.1-1.7-2.2-2.1-1-3.7 1.4-1.6 1.5-1.6 1.8.2.2 1 1.4 2.7 2.5 3.6m8.2 4c2.8 1.2 3.5 3.4.8 2.3-1-.4-2.6-1-3.5-1.2-1.9-.6-2.5-2.3-.8-2.3.5 0 2.1.5 3.5 1.2m590.7 2.5c-5.6 7.8-10.5 10.3-23.7 12.3-8 1.2-8.8 1-10-2.8-.7-2.6-.9-2.5 10-4.2 7.7-1.2 21-5.3 23-7.1 2-2 2.5-.7.7 1.8M1013 957.6c0 3.1-.9 3.5-4.8 1.9-2-.9-3.2-2.1-3.2-3.3 0-2.8.8-3.1 4.6-1.9 2.6.8 3.4 1.6 3.4 3.3m20.5 1.4c1.7.5 4.9 1.4 7.3 2 3.5.9 4.2 1.5 4.2 3.5 0 1.4-.3 2.5-.7 2.5-.5 0-5.9-1.2-12-2.6-10.3-2.4-11.3-2.8-11.3-4.8 0-1.3.2-2.5.5-2.8.6-.6 6.5.5 12 2.2m189.7-.5c.6 2.9.1 3.3-7.2 7-8.3 4.2-18.4 7.4-28.5 9-11.7 1.9-34.4 1.9-48.7 0-16.2-2.2-15.8-2-15.8-5.5s-.8-3.5 14.5-1.4c14.2 1.9 40.1 2.2 50 .5 9.5-1.6 18.8-4.6 26.5-8.5 8.1-4.1 8.7-4.2 9.2-1.1m-225.6 10.6 2.9 3.1-3.7-.7c-8-1.5-24.6 5.7-38.4 16.6-8.6 6.8-13.8 13-25.8 30.2-9.4 13.5-21.2 27.1-22.7 26.1-2.4-1.5-.7-5.9 4.7-11.7 3.1-3.4 10.4-12.7 16.2-20.7s12.4-16.7 14.6-19.4c9-11 25.9-22 38.3-25 8.8-2.2 10.6-2 13.9 1.5m73.7.6c8.8.6 8.8.6 8.5 3.2-.3 2.5-.6 2.6-7 2.9-3.7.2-8.2-.1-10-.6-2.8-.7-3.3-1.3-3.6-4.1-.3-2.9-.1-3.3 1.5-2.6 1 .4 5.8 1 10.6 1.2m39.5 1c-.4 3.5-4.7 5.2-13.1 5.2-5.3.1-5.8-.1-6.7-2.5-.6-1.4-1-2.9-1-3.4s3.9-1.1 8.8-1.3c4.8-.1 9.5-.4 10.5-.5 1.4-.2 1.8.4 1.5 2.5m-490.5 9.4c-.3 1-1 2.2-1.6 2.6s-.8-.3-.3-2c.3-1.4.2-2.9-.4-3.2-.5-.3-1-1.1-1-1.7s.9-.3 1.9.6c1.1 1 1.7 2.5 1.4 3.7m604.5 5.5c-4.1 5.9-7 7.6-18.3 11.4-19.6 6.5-44.3 8.2-67 4.6-14.8-2.3-14.5-2.2-14.5-5.7 0-2.4.4-2.9 1.8-2.5 12.1 3.6 51.1 4.4 66.6 1.3 9.5-1.9 23.5-7.1 30.1-11.2 2.2-1.3 4.1-2.5 4.3-2.5s-1.2 2.1-3 4.6m-189.3 1.6c9.5 2.1 10.5 2.5 10.5 4.5 0 2.7-.6 2.8-10.2.8-12.1-2.5-13.8-3.3-13.8-6.2 0-1.8.4-2.4 1.5-1.9.8.3 6.2 1.6 12 2.8m-22.5-.7c1.8 2.1 1.2 2.4-7.2 4.1-9.3 1.9-26.2 9.9-34.4 16.5-9.1 7.2-18.6 17.8-31.7 35.1-11.5 15.3-24 29.8-25.8 29.8-2.3 0-.5-4 3.7-8 7-6.9 17.2-19.2 27.1-33 9.4-12.9 19.8-23.9 29.3-31.1 14-10.5 35.4-17.8 39-13.4m9.3 12.4 1.8 3.1h-5.4c-6.1 0-15.3 2.7-24.2 7.2-17.3 8.8-30.5 21.3-50.1 47.5-13 17.4-26.5 33.3-28.4 33.3-.4 0-1-2.8-1.4-6.2l-.6-6.1 9.8-10.1c5.3-5.6 14.6-16.6 20.6-24.6 18.8-25 34.1-38.5 52.2-46 4.2-1.7 10.4-3.5 13.8-3.9 6.8-.8 8.5 0 11.9 5.8m19.8-1.9c4.3 0 4.9 1 4.9 8.1v4.9l-4.7-.1c-2.7 0-6.6-.6-8.8-1.3-3.2-.9-4-1.6-4.2-3.8-.1-1.5-1.3-4.4-2.7-6.5s-2.6-4.1-2.6-4.4c0-.4 3.2.2 7.2 1.2 3.9 1.1 8.8 1.9 10.9 1.9m32.1-.3c6.3.5 6.9.8 6.6 2.7-.3 1.8-1.1 2.1-6.5 2.4-9.1.4-12.7-.7-13.1-4.2-.3-2.8-.2-2.9 2.9-2.2 1.8.3 6.3.9 10.1 1.3m38.1.8c.6 3.7-1.9 4.6-11.6 4.3-8.1-.3-8.2-.3-8.5-3l-.3-2.7 9.3-.4c5.1-.1 9.6-.4 9.9-.5.4-.1.9.9 1.2 2.3m98.7 9.8-5.2 9.5-5.7 1.6c-7.8 2.2-24.3 4.6-31.6 4.6-6.6 0-26.1-2.2-35.5-4.1-6.6-1.3-7-1.9-7-10.8 0-5.3 0-5.3 2.8-4.7 6.5 1.5 26.4 3.5 34.5 3.6 13.3 0 27-1.8 39.2-5.2 6.1-1.6 11.4-3.4 11.9-3.9 2.5-2.3 1.4.8-3.4 9.4m-138.2-1.6 8.2.6v12.9l-9-.4c-4.9-.2-9.2-.6-9.4-.9-.3-.3-.8-3.6-1.2-7.3-.7-6.6-.6-6.9 1.2-6.2 1 .5 5.6 1 10.2 1.3m40.4 4.5c.2 3.5.1 6.6-.2 7-1 1.3-12.2 3-15.6 2.4-3.6-.7-4.4-2.4-4.4-9.8v-4.6l5.8.5c3.1.3 7.3.1 9.2-.5s3.8-1.1 4.2-1.1c.3-.1.8 2.7 1 6.1m-89.2-3.6c0 .8-.4 1.2-1 .9-.5-.3-1-1-1-1.6 0-.5.5-.9 1-.9.6 0 1 .7 1 1.6m5 6.8c0 .8-.4 1.8-1 2.1-.5.3-1-.3-1-1.4 0-1.2.5-2.1 1-2.1.6 0 1 .6 1 1.4m595 11.2c0 2.3-8.3 11.4-14.8 16.3-3.7 2.8-11.6 7.6-17.7 10.7-6 3.2-12.7 6.8-14.8 8.1-2.2 1.4-4 2.3-4.2 2.1s-.5-1.6-.7-3.3c-.3-3.3.3-3.8 19.9-14.3 12.4-6.6 22.4-14.1 26.5-19.8 2.9-4.1 3.3-4.4 4.5-2.8.7 1 1.3 2.3 1.3 3m-1015.8 11.8c13.2 13.2 23.6 20.4 44.8 31 19.7 9.8 31.2 13.5 45.9 14.7 15.5 1.4 27.8 3.2 50.9 7.6l19.3 3.7-.3 3.1c-.3 2.8-.5 3-3.8 2.7-1.9-.2-12.5-2.1-23.5-4.3-11-2.1-24.5-4.3-30-4.9s-13.7-1.5-18.3-2c-16.6-1.8-44.2-13.3-65.5-27.3-11-7.2-23-17.8-28.9-25.5-4.2-5.5-4.6-6.5-3.5-8.2.6-1.1 1.3-2 1.4-2s5.3 5.1 11.5 11.4m603.1 2.2c3.9 2 11.5 6.5 16.7 10 9.4 6.2 14.2 10.1 31.9 26.2 14.6 13.2 28.4 21.5 47.4 28.6 20.8 7.8 38.7 11.5 59.8 12.3 16.2.6 24.4-.2 43.9-4.7 6.9-1.6 14.8-3.1 17.6-3.5 5-.6 5.1-.6 5.7 2.2.7 3.7.2 4.3-3.6 4.3-1.8 0-7.7 1.1-13.2 2.4-24.1 5.8-26.2 6.1-45.5 6.1-16.4 0-20-.3-32-2.8-19.8-4.2-34.6-9.1-49-16.3-14.7-7.3-24-13.9-40.1-28.4-12.9-11.6-26.3-21.4-39.3-28.9-4.9-2.7-9.3-5.2-9.8-5.3-1.2-.4.1-5.8 1.3-5.8.5 0 4.2 1.6 8.2 3.6m424.6 8.1c.2 2.2-11.7 13.9-19.5 19.3-7.2 5-34.7 20-36.6 20-.5 0-.8-1-.6-2.3.2-1.6 2.7-3.5 9.8-7.4 25.2-13.7 35.4-21 42.2-30.2 2.8-3.8 3.3-4.1 3.9-2.5.4 1.1.8 2.4.8 3.1m-1044.6 8.1c2.2 2.9 8.1 8.7 13.1 12.9 29.2 24.4 64.1 40.2 91.4 41.4 5.9.3 6.4.6 5.5 3.7-.4 1.8-1.3 2.2-4.8 2.2-30.7 0-76.5-22.9-103.6-51.9-9.6-10.2-12.5-15.1-10.8-18.2 1.1-2 1.2-2 3.1 1.2 1.1 1.9 3.8 5.8 6.1 8.7m1052.7 0c3.1 4.1 3.2 4.6 2.1 8.1-1.9 6.5-15.6 18.9-32 29.1-10 6.2-28.2 16.3-28.5 15.8-.2-.1-1.3-4.1-2.5-8.7-1.9-6.9-2-8.5-.9-9.3.7-.5 7.1-3.9 14.3-7.5 20-10.1 32.2-19 39.1-28.5 2-2.7 4-4.6 4.4-4.1.3.4 2.1 2.7 4 5.1m-1061.5.3c3.5 6 16.5 19.4 26.6 27.5 22.5 17.9 55.6 32.9 78.1 35.3 5.4.6 10.5 1.1 11.4 1.1 1.7 0 1.7.2-.7 9.2l-1 3.8h-5.8c-26.7 0-67.7-18.1-96-42.4-12.7-10.9-23.1-23.8-23.1-28.9 0-1.9 5.6-10.7 6.8-10.7.4 0 2.1 2.3 3.7 5.1m624.5 11.7c9.5 6 23.9 17 33.8 26.1 18.5 16.6 26 22 42.9 30.5 30 15 69.6 23.2 99.5 20.6 6.6-.5 13.9-1.5 16.1-2 16.4-3.9 37-8 37.8-7.5.5.4.9 1.5.9 2.5 0 1.5-1.2 2.1-5.7 3-3.2.7-11 2.5-17.4 4.1-33.3 8.3-63 7.8-95.9-1.5-31.5-8.9-52.9-20.5-77.4-42.1-18.8-16.6-35.1-28.9-46.1-34.8-5.6-3-5.8-3.3-4.6-5.6l1.2-2.1 4.7 2.7c2.6 1.5 7.2 4.2 10.2 6.1m2.1 12.1c8.1 5.8 13.2 10.1 36.9 30.7 20.3 17.8 47.1 30.9 78.9 38.5 17.6 4.2 30.5 5.9 46.8 5.9 14.9 0 22.8-1.1 48.3-7 6.9-1.5 13.9-3.1 15.6-3.5l3.1-.6 1.2 8.7c.7 4.7 1.1 8.8.9 9-.9.8-32 8.4-39.3 9.5-11.4 1.8-41.7 1.5-53.8-.5-45.6-7.6-77.5-23.5-131.2-65.2-12.1-9.4-24.8-18.9-28.3-21.3l-6.2-4.2 2-4c1.2-2.2 2.5-5.1 3-6.5l1-2.6 6.1 3.4c3.3 1.9 10.1 6.3 15 9.7m363.3-2.3c.9 3.6-.1 4.5-10.7 9.8-16.2 8.2-36.4 12-67.2 12.8l-11 .3-.3-3.1-.3-3.1 15.3-.7c33-1.4 54.4-6.4 68.5-16 4.7-3.2 4.9-3.2 5.7 0m-1017 7.8c-.9 1.5-1.9 2.4-2.2 2.2-.2-.3.3-1.7 1.2-3.2 1-1.4 2-2.3 2.3-2.1.2.3-.3 1.7-1.3 3.1m576.2 1.5c-.4.5-2.4 1.2-4.5 1.6-2.2.3-4.7 1.2-5.7 1.9-1.7 1.3-1.6 1.4.5 2.6 1.3.6 3.4 1 4.7.7 3.5-.6 4.1 1.1.7 1.9-3.6.9-8.3 3.6-8.3 4.8 0 .5.7 1.7 1.5 2.6 1.5 1.6 1.3 1.9-2 3.8-3.8 2.3-4.4 4.5-2 7.2 1.4 1.5 1.4 2.1 0 5.3-.8 2-1.5 4.7-1.6 5.9-.1 1.5-.6.7-1.5-2.2-.7-2.5-1.8-5.3-2.4-6.3-.7-1.2-.7-2.3.2-3.7 1.7-2.7.2-5-5-7.4-2.3-1.1-4.2-2.6-4.2-3.3 0-1.1.4-1.1 2.1-.3 3.9 2.2 6.8-1.2 3.4-4-1.2-1-1.3-1.6-.4-2.6.6-.8.9-2.5.7-3.8-.5-2.3-.2-2.4 8.1-3 4.7-.3 10-1 11.6-1.5 4-1.2 4.7-1.3 4.1-.2m24.3 28.8c-.1 13.1-.5 25.1-.9 26.8-.5 2-.8-.4-.9-7.3-.1-8.1-.4-10.2-1.5-10.2-1.2 0-1.3-.7-.5-3.2 1.2-4.2 1.2-17 0-20.1-.7-1.8-.5-3.4.7-6.1.9-1.9 2-3.5 2.5-3.6.4 0 .6 10.7.6 23.7M977 1098c8.5 1.8 15.7 3.3 15.9 3.6.8.8-3.4.4-14.1-1.2-5.9-.9-11.5-1.3-12.5-1-1.6.7-1.6.9.6 2.5 2.4 1.8 2.4 1.9.4 2.5-1.1.4-2.8 1.5-3.8 2.6-1.6 1.8-1.6 2 .4 3.7 5.1 4.3.3 4.4-11.3.2-4.7-1.7-9-3.7-9.7-4.5-1.4-1.7-1.1-1.7 3-.3 4.2 1.5 6.4-.2 5.6-4.3-.6-2.5-.4-2.8 1.8-2.8 3.6 0 4.1-2.5.9-4.9l-2.7-2.1 5 1.5c2.8.8 12 2.8 20.5 4.5m172-4.2c0 2.6-12.5 9.2-17.4 9.2-4 0-2.4-1.3 4.1-3.4 2.9-1 6.7-2.8 8.5-4.1 3.6-2.5 4.8-3 4.8-1.7m430.5 7.9c1.8 4.8-21 15.8-42 20.2-14.3 3-42.3 4.9-46.7 3.2-7.1-2.7-.7-5.1 13.9-5.1 7.4 0 26.7-2.4 36-4.6 11.8-2.6 21.7-6.3 29.4-10.9 4-2.4 7.7-4.4 8-4.4.4-.1 1 .7 1.4 1.6m-668.5 4.2c0 2.5-.5 3-4.2 3.9-6.7 1.7-28.6 4.7-29.3 4-.3-.3-.7-1.8-.8-3.4-.2-2.9-.2-2.9 7.3-3.6 4.1-.4 10.7-1.4 14.5-2.2 11.3-2.2 12.5-2.1 12.5 1.3m569.9 4.2c.1 2.1-11.7 4.4-28.9 5.8-11.9 1-12.9.7-13-3 0-1.3 1.4-1.8 5.8-2.3 9.9-1.1 33.7-4.8 34.2-5.3.6-.5 1.8 2.6 1.9 4.8m-697.4-1.6c4.4.8 12.4 1.4 17.8 1.5h9.7v7h-6.2c-3.5 0-12.3-.7-19.5-1.7l-13.3-1.7v-3.3c0-3.9.1-3.9 11.5-1.8m800.1 8.1 2.4 7.9-3.1 2.7c-7.4 6.3-21.4 12-40.4 16.4-10.7 2.4-14 2.7-31 2.8l-18.9.1-1.3-6c-2.3-11-3.4-10.1 13.5-10.8 18.3-.8 31.6-2.8 45.5-6.8 9.9-2.9 23.9-9.7 27.7-13.5.8-.8 1.9-1.3 2.4-1.1s2 3.9 3.2 8.3m90.4-4.9c-.3 4.2-.1 4.6 1.4 3.4 1.2-1 1.5-.4 2.1 3.1 1 6 1.9 6.9 2.6 2.8.5-3.4.8-3.1 6.7 9.3 8.7 18 16.3 35.8 15.9 37-.2.6-4.9-8.3-10.6-19.6-5.7-11.4-10.7-20.7-11.2-20.7-1 0-1 1.5 0 8.7.9 6.2.1 6.7-2.2 1.8-2-4.2-4.1-5.3-6.4-3.4-1.5 1.2-1.6 1.2-.9-.6 1.7-4 1.2-6-1.5-6.3-2.2-.3-2.5-.7-2.1-3.2.5-3.3-1.1-4-3.7-1.6-1.8 1.6-12.6 7.8-15.6 9-2.9 1.1-1.1-.3 8.6-6.7 8.1-5.3 15.9-12.5 15.9-14.7 0-.6.3-1 .6-1s.5 1.2.4 2.7m-955.7.3c6.2 1.1 14.1 2.7 17.7 3.5s11.8 2.4 18.3 3.7l11.7 2.2v3.3c0 3.7.6 3.6-9 1.3-1.9-.5-9.3-2-16.5-3.4-7.1-1.4-18.3-3.8-24.7-5.3-10.9-2.4-11.8-2.8-11.8-5 0-2.8.2-2.8 14.3-.3m148.7 2.9c0 3.8-1 4.1-22.1 4.8-21 .7-22.9.4-22.9-3.7v-3l9.8.5c5.3.3 13.8.2 18.7-.3 16.3-1.6 16.5-1.6 16.5 1.7m88.4 1.7c.3.8-.1 2.6-1 3.9-.8 1.2-2 5.4-2.6 9.2-.5 3.7-2.1 9-3.5 11.6-1.3 2.7-2.5 6.3-2.6 8.1s-1 4-1.9 4.9c-1.8 1.8-2 2.4-3.8 10.5-.7 2.8-1.7 5.5-2.2 5.9-.8.4-.8-.3-.2-2.3.4-1.6.9-7.4 1-12.9 0-5.5.2-10.9.3-12 .2-1.9.2-1.9 1.5-.3.7 1 1.5 1.8 1.8 1.8s2.2-4.8 4.2-10.8c6-17.4 6.7-19.2 7.6-19.2.4 0 1.1.7 1.4 1.6m-183.4 6.9-.7 7-.1-5.7c-.2-4.7.6-9.7 1.2-8.6.1.2-.1 3.4-.4 7.3m-56-2c11.9 2.4 42.7 9.1 46.9 10 2.4.6 2.4.7 1.7 9.8-.4 5-.8 9.3-1 9.4-.8.8-23.2-4.2-36.4-8.2-8.1-2.3-17.5-5.1-20.9-6q-6.3-1.8-6.3-3.3c0-3.9 2.5-14.2 3.4-14.2.6.1 6.3 1.1 12.6 2.5m-189.2 18.2c2.4 3.4 9.7 10.2 13.6 12.8s2.4 3-2.3.6c-2.3-1.2-6.4-5-9.7-9.1-5.7-7.1-7.4-7.9-7.4-3.4 0 1.9-.4 2.5-1.7 2.2-1.2-.3-2.4.7-3.5 2.7l-1.7 3-.1-3.8c0-2-.4-3.7-.8-3.7-.8 0-7.2 10-7.2 11.3 0 1.1-9.2 13.8-9.7 13.4-.2-.3 4.2-8.7 9.8-18.7 8.7-15.5 10.4-18 11.4-16.6 1.8 2.4 2.5 2 2.5-1.7 0-3 .2-2.8 2.4 2.4 1.2 3.1 3.2 6.9 4.4 8.6m387.2-6.9c0 2.8-.3 3-7.6 4.6-4.2.9-12.3 1.9-18 2.3l-10.4.6v-2.5c0-2.5.3-2.6 8.4-3.3 4.6-.3 12.2-1.5 16.8-2.5 11.1-2.4 10.8-2.4 10.8.8m-140.2 2.6c8.5 1.7 16.8 2.6 25.5 2.6h9.7v2.9c0 2.7-.3 2.9-4.6 3.3-6.1.4-21.8-.7-28.8-2.2l-5.6-1.1.1-4.7c.1-2.6.3-3.9.6-3 .2.9 1.6 1.9 3.1 2.2m711.7-1.3c.4 1.1.4 2.3.1 2.6-2 2.1-40.6 7.7-42.1 6.1-.3-.2-.6-1.5-.7-2.9-.3-2.4-.1-2.4 9.4-3.1 9.6-.7 27.8-3.4 28.7-4.3 1.2-1.3 4-.3 4.6 1.6m-617.5 8.3c0 1.6-.8 2.6-2.2 3.1-1.3.4-11.6.9-23 1.2l-20.8.5v-5.7l16.3-.3c8.9-.1 18.9-.6 22.2-1 7-1 7.5-.8 7.5 2.2m47.5 4.2c.4 4.1.4 7.9-.1 8.4-2 1.9-13.7 4.2-24.6 4.7l-11.8.6v-16l9.3-.7c5-.3 12.8-1.5 17.2-2.5s8.3-1.9 8.7-2c.3 0 .9 3.3 1.3 7.5m572.4 2.1c.7 4.3 1.4 8.7 1.7 9.9.3 1.9-.5 2.4-6.9 4.3-8.2 2.4-34.5 5.7-35.7 4.4-.7-.8-3-14.5-3-18.2 0-1.7 1.2-2 10.6-2.6 5.8-.4 14.9-1.8 20.2-3 5.3-1.3 10.2-2.3 10.8-2.4s1.6 3.2 2.3 7.6m-706.9-2.2c5.2.8 13.7 1.5 18.9 1.5h9.4l-.7 7.7c-.4 4.3-1 8-1.2 8.3-1.2 1.1-27.2.4-33.1-.9l-6.3-1.4v-3.7c0-6.4 1.2-13 2.4-13 .6 0 5.4.7 10.6 1.5m87.4 10.6c.4 4.4.6 8.2.4 8.4-1.8 1.9-38.8 3.4-44.5 1.9-2.1-.6-2.3-1.2-2.3-8.8v-8.1l12.7.3c7.1.2 16.6-.1 21.3-.6s9.2-1 10.1-1.1c1.3-.1 1.8 1.4 2.3 8m286 20.4c-.9 1.9-3.8 5.7-6.6 8.5-5 5.1-5.5 7.5-1.3 6.4 1.6-.4 3 .1 4.5 1.6 3.2 3.2 4.7 1.2 3-4-.7-2.2-1-4.3-.7-4.7 1.2-1.1 1.5 0 2.5 7 .7 5.7.6 7.4-1 10.8-1.4 3.3-2.1 3.9-3.2 3-.7-.6-2.2-.9-3.2-.5-1.1.3-.2-.5 1.9-1.7 4.3-2.7 5-6.1 1.5-8s-13.7-4-16.6-3.4c-1.5.3-.1-.7 3.1-2.4 7.2-3.6 12-8.1 14.9-14l2.1-4.4-2.2-1.8c-2-1.6-2.1-2.3-1.3-5.1.6-1.8 1.4-4.7 1.8-6.3.6-2.4.9-1 1.6 6.3.7 7.7.6 9.9-.8 12.7m553 .2c1.5 3.1 2.9 5.3 3.2 5 .4-.3 1.7.7 3.1 2.4 2.7 3.1 4.2 8.2 4.3 13.7 0 2.7 1 4.3 4.5 7.8 4.2 4 6.5 7.8 6.5 10.7 0 .6-.7.1-1.6-1.1-1.5-2.1-3.4-2.2-3.4-.1 0 .5 1.7 2.7 3.7 5l3.7 4.1-3.9-1.8c-2.3-1-6-1.7-8.5-1.7l-4.5.2 2.8-2c2.8-2.1 3.5-4.7 1.7-6.5-.6-.6-1.5-5.3-2.1-10.5s-1.5-9.8-1.9-10.2c-.4-.5-1.6.4-2.5 2.1-2.1 3.4-12.1 8.8-13.9 7.3-.6-.5-3.8-1.5-7.1-2.2l-6-1.3 6.5-.8c5.1-.6 6.8-.4 8.1.8 3.8 3.5 12.4-4.6 10.4-9.8-.4-.9-3-2.5-5.8-3.6-4.9-1.8-5.2-2.1-5.2-5.3 0-2.8.4-3.5 2.3-3.7 1.4-.2 2.2-1 2.2-2.3 0-3 .7-2.3 3.4 3.8m-769.5 3.9-.4 6.7 4 2.1c3 1.5 5.9 2.1 11.7 2.1 4.3 0 7.8.1 7.8.3 0 .5-12.4 5.8-17.7 7.6-2.9 1-6.3 2.6-7.5 3.7-2.3 1.9-2.3 1.9-.4 3.4 1.1.8 3.3 1.5 5 1.5 2.3 0 2.7.3 1.8 1.2-3.8 3.8 2.8 6.6 10.4 4.3 2.7-.8 5-1.5 5.2-1.5.1 0 .2.6.2 1.4s-1.6 1.6-4.4 1.9c-2.4.4-6.8 1.7-9.8 3.1-2.9 1.3-6.6 2.9-8.1 3.5-1.9.7-2.7 1.7-2.5 2.9.4 2.3 5.3 2.8 8.3.8 3.1-2.1 10-3.1 10.9-1.7.4.6.1 1.1-.6 1.1-2.6 0-8.8 2.1-8.8 3 0 .5 2.8 1 6.3 1.2 5.5.3 5.9.5 3.7 1.5l-2.5 1.1 2.5 1c1.4.5 3.4 1.1 4.5 1.3 1.2.3 2 1.2 2 2.4 0 1.9 1.5 4.4 6.1 10.3 3.6 4.6 4.7 7.3 3.5 8.5-.9.9-1.6 4.7-.8 4.7.1 0 2.4-.7 5.1-1.5 5.7-1.8 6.6-1.8 6.6-.6 0 .5-1.2 1.1-2.7 1.3-4.3.5-3.8 2.6.9 3.9 2.4.7 4.8 1.7 5.5 2.2s2.2.6 3.3.2c6.3-2 20 2.5 20.8 6.8.3 1.6.1 1.6-3-.3-2.5-1.5-4.9-2-9.8-1.9-3.6 0-7.4.4-8.5.8-2.7 1.1-9.8-.9-18.8-5.3-7.4-3.5-9.1-5.3-8.1-8 1.7-4.5-9-12.6-16.8-12.6-4.6 0-4.8-1-.5-3 7.1-3.3 3.7-9-6.7-11-5.8-1.2-6.6-1.6-6.6-3.6 0-3.4-1.9-3.9-3-.9-.9 2.5-1.1 2.5-4 1-4-2-3.8-4 .3-4.1 1.7 0 5.9-1.3 9.1-2.9l5.9-2.8-3-2.6c-1.7-1.4-3.9-3.8-4.8-5.4-2-3.1-4-3.5-5-1-.6 1.6-.8 1.5-2-.7-2-3.5-1.9-6.4.1-5.6 1.8.7 15-2.9 15.9-4.3.7-1.3-.9-4.8-5-10.5-4.1-5.6-4.3-6.6-1.5-7.3 1.2-.3 2.7-1.8 3.6-3.4.8-1.6 1.7-2.9 2-2.9s.4 3 .3 6.6m392.2 19.3c3.1 1 3.7 1.6 4.3 4.9.3 2.1.1 3.8-.4 4-2.3.8-10.4 6.8-10.8 7.9-.5 1.8 5 1.7 9.2-.1 4.8-2 7.7 1 3.9 4-1.6 1.2-1.6 1.5-.3 2.4 2.2 1.5 6.6 1.2 8-.5.7-.8 2.3-1.5 3.6-1.5 1.2 0 2.6-.5 2.9-1 .9-1.4 2.5-1.2 1.9.2-.6 1.6-5.9 5.1-14.4 9.5-3.6 1.8-7 4-7.6 4.8s-1.7 1.5-2.3 1.5c-.7 0-1.1.6-.9 1.2.3.7 2.6 1.6 5.2 2 7.3 1 7.7 2.4 1 3.5-6.5 1-8.3 3.5-3.7 5l2.8 1-4.1 2.6c-5.9 3.7-8.7 7.5-8 11 .5 2.4-.2 3.7-4.6 8.3s-5.6 5.4-8.8 5.4c-2 0-5.9.7-8.7 1.5-6.2 1.8-15.3 2.7-15.3 1.5 0-1.9 4.6-4 8.7-4 2.3 0 4.5-.5 4.8-1 .3-.6 1.8-1 3.3-1s3.8-.7 5-1.6c1.9-1.3 2.1-1.8 1-3.2-1.2-1.4-.9-1.5 2-.9 3.8.8 5.3-1.3 3.4-4.4-.9-1.4-.8-2.5.3-4.6.8-1.5 2.6-6 4-9.8 1.5-3.9 3.5-7.7 4.6-8.7 2.5-2.1 2.4-3.3-.3-4.5-1.9-.8-1.3-1.2 4.9-2.7 8.1-2 10.9-3.6 10.1-5.8-.7-1.8-19.8-9.8-23.6-9.8-2.1-.1-9.2-4.8-9.2-6.2 0-.2 4-.3 8.9-.3s8.7.3 8.4.7c-.2.5-1.3.8-2.3.8-2.5 0-5 1-5 2.1 0 .5 1.7.9 3.8.9 4.1 0 12.2-4.5 12.2-6.7 0-1.7-3-3.6-10-6.4-3.3-1.3-6-2.8-6-3.3 0-1.1 13.2-.1 18.1 1.3m-857.4 8.6c-.1 3-.3 5.5-.4 5.5s-.7-.8-1.2-1.9c-.9-1.7.2-9.1 1.4-9.1.3 0 .3 2.5.2 5.5m689.2 16.7c.1 5.1-.3 7.8-1 7.8s-.9-1.2-.5-3.4c.8-4.3-4.1-20.3-5.7-18.7-2.5 2.5-2.4.8.1-3l2.7-4.1 2.2 6.8c1.5 4.6 2.2 9.5 2.2 14.6M965 1210.5c0 .8-.2 1.5-.4 1.5s-1.2.3-2.1.6c-1.5.6-1.5.4-.4-1.5 1.6-2.5 2.9-2.7 2.9-.6m727.2 3.7c-.8.8-1.7.8-3.4 0-2.2-1-2.1-1.1 1.2-1.1 2.6-.1 3.1.2 2.2 1.1m-320.8 16.3c3.7 7.7 5.3 13.1 3.6 12-.5-.3-1-1.2-1-1.9 0-.8-2.2-4.8-5-9-3.5-5.3-5.6-7.6-7-7.6-2.4 0-2.5-.5-.2-3.5l1.7-2.4 2.3 2.7c1.3 1.5 3.8 5.8 5.6 9.7m-907.6-8.9c-.9 1.9-.9 3-.1 4.4 1 1.4.9 1.7-.5 1.6-1.3-.1-1.7.7-1.5 3.4.1 3.3.1 3.4-1.3 1.5-.8-1.1-1.2-2.6-.9-3.3.3-.8.5-2.2.5-3.1 0-1.6 3.5-7.1 4.6-7.1.2 0-.2 1.2-.8 2.6m37.7-.6c-.3.5-1.7 1-3.1 1-1.3 0-2.4-.5-2.4-1 0-.6 1.4-1 3.1-1s2.8.4 2.4 1m4 6c-1 3.2-8.5 6.3-12 5-2.3-.9-2.5-1.3-1.5-2.6.9-1 1.6-1.2 2.4-.4 3.2 3.2 11.4-.6 10-4.6-.5-1.5-.4-1.6.6-.8.7.7.9 2.1.5 3.4m821.5 1c1.9.6 1.1.8-3.3.9-3.6.1-5.6-.3-5.2-.9.7-1.2 4.9-1.2 8.5 0m390.4 3.4c-.9 1.5-1.9 2.4-2.2 2.2-.2-.3.3-1.7 1.2-3.2 1-1.4 2-2.3 2.3-2.1.2.3-.3 1.7-1.3 3.1m17.8 0c6.1 2.7 10 6 9.2 7.9-.2.7.4 2.1 1.5 3.1s1.8 2.3 1.5 2.8 0 1.5.6 2.3c.9 1.1.9 1.5.1 1.5-2.7 0-.6 1.8 4.5 4 3.4 1.4 5.9 3.1 6.1 4.2.3 1 1 1.8 1.6 1.8 1.9 0 11.6 7 13.5 9.8 2.1 3 4.3 8.8 3.6 9.5-.3.3-2.3-.4-4.4-1.4-4.7-2.3-7.9-2.4-12.7-.4-4 1.7-16.8 2-17.8.5-.4-.6 1.3-1 4.3-1 2.7 0 6.9-.7 9.2-1.5s5.3-1.5 6.6-1.5 2.4-.4 2.4-.9c0-.9-3.4-2.1-6.3-2.1-1 0-3.1-1-4.8-2.2-3-2.3-5.1-2.1-12.4.7-1.8.7-1.8.6-.5-.7.8-.9 3.9-2.3 6.8-3.3 7.3-2.3 6.6-4.5-1.6-4.5-5.3 0-2.6-2.1 3.3-2.5s6.4-1 2.5-3c-2.2-1.1-5-1.6-8.6-1.3l-5.4.3v-3.2c0-3-2.2-7.3-6.9-13.4-1.8-2.3-1.8-2.6-.3-3.6 1.5-.9 1.3-1.2-1.3-2.6-4.8-2.6-.3-2 5.7.7m-388.1 7.3c-1.4 1.6-1.9 3.4-1.6 4.7.5 1.7.4 1.8-.4.6-1.7-2.4-1.3-4.8 1.1-6.4 3.1-2.2 3.3-2 .9 1.1m-185.2 3.5c-.1 8.6-1.6 10.4-2 2.5-.2-3.8-.2-7.1 0-7.3 1.4-1.4 2.1.3 2 4.8M471 1240c2.1 1.1 4.2 2.5 4.5 3.1.4.6-1.2.1-3.6-1.2-2.4-1.2-6.6-2.5-9.4-2.9l-5-.8 4.8-.1c3-.1 6.2.6 8.7 1.9m664.5 11.4c-1.5 4.2-2.9 7.6-3.1 7.6s-.2-1.9-.1-4.3c.1-2.3-.2-5.2-.6-6.5-.6-1.6-.5-2.2.6-2.2.8 0 2-1.5 2.7-3.3 1.1-3 1.2-3.1 2.2-1.1.7 1.6.3 3.9-1.7 9.8M453 1244c0 1.1-.4 2-.9 2-.4 0-2.5 1.1-4.6 2.5-5.2 3.6-5.5 2.5-.6-2.4 4.6-4.6 6.1-5.1 6.1-2.1m17 1.5 2.3 2.4-3.2-1.2c-3-1.1-3.4-1-5.2 1.1-1 1.3-2.6 4.8-3.6 7.8-1.6 5.2-1.6 5.5.3 6.8 1 .8 1.6 1.8 1.2 2.1-.4.4.3 1.6 1.5 2.6s1.8 1.8 1.4 1.9c-1.5 0-6.7-3-6.7-3.9 0-1.6-6.6-5.1-9.4-5.1-1.6 0-2.5-.4-2.1-1 .3-.6 2.1-1 4-1 2.8 0 3.9-.7 6.9-4.9 3.9-5.2 4.3-6.6 2.4-7.4-.7-.3-.2-.6 1.2-.6 1.4-.1 3.2-.6 4-1.1 2.1-1.4 2.4-1.3 5 1.5m631.4 9.3c.8 1.3-3.2 3-8.4 3.6l-4.5.5 4-2.5c4-2.4 7.9-3.1 8.9-1.6m275.6-.1c0 .7-11.1 5.4-18.5 7.9-5 1.7.7-1.9 8.1-5.1 7.9-3.5 10.4-4.1 10.4-2.8m-256.5 5.3c1.4.6 1.5.9.5 1-8.6.6-20.9 2-22.5 2.5-2 .7-2 .6-.1-.9 1.1-.9 4-1.7 6.5-1.7 2.5-.1 6-.5 7.6-.9 4-1 5.6-1 8 0m616 3.5c-1.7 1.3-3.2 2.1-3.5 1.8s.8-1.5 2.5-2.8c1.6-1.3 3.1-2.2 3.4-1.9s-.8 1.6-2.4 2.9m-1281 1.5c.4.6-.5 1-1.9 1s-2.6.4-2.6 1c0 .5 1.4 1 3 1 4 0 3.8 1.8-.2 2.2l-3.3.4 2.5 1.1 2.5 1.2h-2.6c-1.9.1-2.6.6-2.5 1.8.1 1.4-.6 1.7-2.9 1.5-3.3-.3-6.4 1.2-5.1 2.5.4.4 4.5 1.1 9.2 1.4 7.6.5 10.4 1.2 9.3 2.3-.2.3-5.7.2-12.2-.1l-11.8-.6.6-2.5c.6-2.5.5-2.5-4.3-1.9s-4.9.5-4.4-2c.4-1.9.2-2.4-.8-1.8-2.4 1.5-.4-1.8 2.3-3.9 1.9-1.4 4.8-2.1 9.3-2.4 4.3-.3 6.7-.9 7.1-1.8.6-1.6 7.8-1.9 8.8-.4m472.5 2.1c2.1 1.2.1 1.1-5.9-.2-2.8-.6-5.3-1.4-5.6-1.8-.6-1 9.4.7 11.5 2m402 12.9c-1.1 2-5.9 5-8.1 5-.8 0 7.3-6.3 8.9-6.9.1-.1-.2.8-.8 1.9m-321.3-.4c-.3.3-1.2.4-1.9.1-.8-.3-.5-.6.6-.6 1.1-.1 1.7.2 1.3.5m283.6 8.1c-.7.2-2.1.2-3 0-1-.3-.4-.5 1.2-.5 1.7 0 2.4.2 1.8.5"/><path d="M1111.2 358.1c-6 1.8-3.2 3.4 4.9 3.1 6.4-.3 7.8-.1 10.2 1.8 3.5 2.7 4.4 2.2 1.5-.9-4.1-4.5-9.9-5.9-16.6-4m-32 1.6c-1.8.9-3.7 2.4-4.3 3.4-1.3 2.5-.5 2.4 3.1-.2 2.3-1.8 3.8-2.1 8-1.7 5.4.5 7.3-.4 4.1-2.1-2.8-1.6-7.1-1.3-10.9.6m14.6 8.8c.5 2.8 2.2 4.4 2.2 2.1 0-2.1-1.1-4.6-2-4.6-.4 0-.5 1.1-.2 2.5m20.1-1.3c-1.4.5-3.2 2-3.9 3.3-1.5 2.7-.7 4.6 1.2 2.7.6-.6 2.4-.8 3.9-.5 1.6.3 3.5 0 4.2-.6 1.1-.8 1.8-.6 3.2.9 1 1.1 2.7 2 3.8 2 1.8 0 1.8-.2-.5-3.2-2.9-3.8-8.2-5.9-11.9-4.6m-36.9 3.4c-1.7 2-3 3.8-2.8 4 1 .9 4.8-1 4.8-2.4 0-1.2.3-1.3 1.2-.4 1.6 1.6 6.5 1.5 7.2-.1.3-.8.8-.7 1.6.5 1.3 2.2 3 2.3 3 .4 0-2.3-5-5.6-8.5-5.6-2.5 0-4 .8-6.5 3.6m13.4 16.9c-.4.8-1 1.2-1.5.9s-.9.1-.9.9c0 1.2 1.8 1.5 9.5 1.4 7.4 0 9.5-.4 9.5-1.4 0-.8-.5-1.1-1.1-.8-.5.4-1.8 0-2.8-.9-1.5-1.4-2.3-1.5-4.5-.5-2 1-2.9 1-3.8.1-1.6-1.6-3.7-1.5-4.4.3m-3.6 11c-1.5 1.2-3.3 2.5-4 2.8-1.3.4-.8 1.1 6.5 8.6 2.5 2.5 3.4 2.8 7.5 2.3 6.6-.6 7.2-1.8 1.5-2.6-7.3-1.1-8.8-1.6-7.2-2.7 2-1.2 16.2-1.2 15.4.1-.3.5-.3 1 0 1 1.3 0 6.2-2.9 7.4-4.4 1.1-1.3 1-1.7-.5-2.2-1.1-.3-3.9-1.6-6.4-2.9-6.4-3.3-16.4-3.3-20.2 0m20.2 3.6 3.5 1.8-11.2.1c-10.6 0-13.2-.7-10-2.7 1.8-1.1 8.9-2.1 11.7-1.5 1.4.3 4.1 1.3 6 2.3m41.7 2.6c-.4.3-.7 1.1-.7 1.7s.5.5 1.2-.2c.6-.6.9-1.4.7-1.7-.3-.3-.9-.2-1.2.2m.6 108.6c-2.9.5-5.3 1.3-5.3 1.6 0 .4 3.9.5 8.8.3 4.8-.2 10.6.1 13 .6 5.2 1.2 5.7-.3.7-2.4-3.8-1.6-9.4-1.6-17.2-.1m-4.8 17.7c.3.5 1.3 1 2.2 1 .8 0 2.8 1.1 4.5 2.5 3.5 2.9 8 3.6 5.7.8-2.6-3.1-14.2-7.2-12.4-4.3m-313.1-37.9c-3.3.9-6.1 3.5-5.1 4.6.4.3 2.6 0 5.1-.6 6.1-1.5 10.1-1.4 13.8.5 4.6 2.4 3.1-.6-1.8-3.3-4.1-2.4-7-2.7-12-1.2m.9 8.9c-2.2.9-5.9 6.7-4.9 7.7.3.3 1.3 0 2.2-.8.9-.7 3.1-1.2 4.9-1 1.8.1 3.6-.2 4-.8.9-1.6 2.5-1.4 2.5.3 0 1.3 5 3 5.9 2 .8-.8-3.4-4.6-7.1-6.5-4.1-2.1-4.4-2.1-7.5-.9m-19.6 6c.3 1.1.7 2 .9 2s.4-.9.4-2-.4-2-.9-2-.7.9-.4 2m-13 .2c-1.9 1.6-3.4 6.8-1.8 6.8.5 0 1.6-1 2.2-2.2.8-1.4 1.4-1.8 1.7-1 .5 1.5 5.2 1.6 5.2.1 0-.6.9-.8 2-.4 2.7.9 2.5-1-.2-2.9s-6.8-2.1-9.1-.4m8.5 16.8c-.6 1.1-1.2 2.4-1.2 3 0 1.2 7 .7 9.1-.6.8-.5 2.9-.9 4.8-.9s3.6-.6 3.8-1.3c.3-.7-.1-1-1-.6-.8.3-1.8.1-2.2-.5-.8-1.5-4.1-1.4-6.5.1-1.5 1-2.2 1-3.2 0-1.6-1.6-2.1-1.5-3.6.8m4.9 8c-1.8.4-4.8 2.2-6.5 4l-3.1 3.1 2.3 1.9c1.2 1 2.2 2.5 2.2 3.4 0 2.7 4.8 4.4 9.4 3.4 6.7-1.5 6.6-2.8-.2-2.8-5.9 0-8.2-1.3-4.4-2.4 2.7-.8 10.7-1 11.8-.4 1.3.9 9.3-4.4 9.4-6.1 0-.8-.3-1.2-.6-.8-.3.3-3.5-.5-7-1.9-6.8-2.5-7.9-2.7-13.3-1.4m11.8 4.1c1.7.6 3.1 1.4 3.1 1.9 0 .8-18.2 3.1-18.9 2.4-.2-.2.4-1.3 1.3-2.3 2.6-2.9 9.4-3.8 14.5-2m51.1 3c0 .5.5.7 1 .4.6-.3 1-.8 1-1.1 0-.2-.4-.4-1-.4-.5 0-1 .5-1 1.1m497.5-38.4c-4 1-8.5 3.6-8.5 4.9 0 1.7.1 1.7 6-.2 4.9-1.6 10.6-1.5 14.4.1 3.6 1.6.7-1.4-3.4-3.5-4-2-4.9-2.2-8.5-1.3m-2.3 10c-1.6.6-4.3 5.8-3.5 6.7.3.3 1.3 0 2.1-.6.8-.7 2.9-1.1 4.7-.9 1.8.1 3.6-.2 3.9-.8.4-.6 1.7-.4 3.6.7 2 1.2 3.2 1.4 3.9.7 1.5-1.5-6.5-6.5-10.4-6.4-1.6 0-3.6.3-4.3.6m-19.8 4.3c.3 1.4.6 2.8.6 3.2 0 .5.5.8 1 .8 1.5 0 1.2-2.4-.6-4.6-1.5-1.8-1.5-1.8-1 .6m-13.5 3.9c-2.7 2.8-3.9 6.1-2.1 6.1.4 0 1.7-.7 2.8-1.5 1.2-.8 2.4-1.2 2.6-.9.3.2 1.8-.1 3.4-.7 1.6-.7 3.8-1.1 4.9-1 1.7.1 1.6-.2-.8-2.4-3.7-3.3-7.2-3.2-10.8.4m20.3 13.7c-1.8 1.2-2.6 1.3-3.7.4s-2-.8-3.9.7c-1.4 1-2.4 2.2-2.2 2.8.4 1.3 8.6.8 10.2-.6.7-.6 2.2-.8 3.2-.5 2.1.7 5.2-.2 5.2-1.4 0-.4-.8-1-1.7-1.3-1-.2-2.5-.8-3.3-1.1s-2.5.1-3.8 1m-2.4 9.3c-3.1.7-9.8 5.9-9.8 7.8 0 .3 1.8 2.3 4 4.4 4.1 4 6.4 4.6 11.9 3 4.6-1.3 3.2-2.6-2.4-2.3-3.3.2-5.5 0-5.5-.6 0-1.1 9.7-3.5 12.7-3.2 3.2.4 4.1 0 7.2-2.6 3.7-3.1 3.9-4.4.9-4.4-1.3 0-4.5-.7-7.2-1.5-5.3-1.6-6.1-1.7-11.8-.6m14.9 4.4c.3.4.3 1 0 1.3-.9 1-18.8 3.7-19.4 3-1.1-1 2.8-4.5 5.6-4.9 3.5-.7 12.9-.2 13.8.6m-250 105.3c-.3.3.3 2.5 1.3 4.8 1.9 4.6 9.4 27.5 13.1 40 1.3 4.4 2.5 7.4 2.7 6.8.5-1.7-10.5-42.7-12.7-47.1-2.2-4.1-3.4-5.4-4.4-4.5m-18.2 4.8c.9 4.3 3.3 9.6 3.3 7.1 0-1.1-.8-3.8-1.9-6-1.6-3.3-1.8-3.5-1.4-1.1m4.6 12.5c-.1.7 2.3 9.9 5.3 20.5 3 10.5 7.1 25.5 9.2 33.4 2 7.8 3.9 14 4.2 13.8.6-.6-4.8-22.6-10.9-44.8-4.6-17-7.6-25.8-7.8-22.9m80.6-24.2c-1.4 1.3-.6 3.3 1.3 3.3 1.3 0 2-.7 2-2 0-1.9-2-2.7-3.3-1.3m-390.4 97.8c-2.8 2.6-2.8 2.6-.4 2.3 1.3-.2 3-1.3 3.9-2.6 2-3 0-2.8-3.5.3m675.2 50c1 1.6 2.8 4.3 4 6 4.5 6.2 12.2 19.5 20.7 36 4.8 9.3 8.8 16.7 8.8 16.3 0-1.4-9.1-21.3-13.6-29.6-5.5-10.2-14.2-23.5-18.4-28.2-3.1-3.3-3.1-3.4-1.5-.5m-174.9 125.8c-2.2.7-4.1 1.7-4.3 2.4-.6 1.6 6.5-.1 8.6-2.1 1.8-1.9 1.1-1.9-4.3-.3m-440.5-96.6c-.1 1.3.5 9.4 1.3 18 .8 8.7 2.2 27.3 3.1 41.3s2 29.1 2.5 33.5l.7 8 .2-10c.2-22.7-3.9-80.8-6.3-88.6-.9-2.8-1.4-3.6-1.5-2.2m61.2 78.8c.2 4.4.9 8.9 1.6 10 1 1.7 1.1.6.8-6-.2-4.4-.9-8.9-1.6-10-1-1.7-1.1-.6-.8 6M569 559.9c0 .5.5 1.3 1 1.6.6.3 1 .2 1-.4 0-.5-.4-1.3-1-1.6-.5-.3-1-.2-1 .4"/></svg>