<svg xmlns="http://www.w3.org/2000/svg" viewBox="0 0 1881 1881" fill="#CC0000"><path d="M682.5 412c-1.1.5-3.1.9-4.4.9-1.4.1-4.3.9-6.5 2-2.3 1-7.2 2.9-11.1 4.1-3.8 1.3-9.8 3.6-13.3 5.1-3.4 1.6-6.8 2.9-7.4 2.9-1.9 0-19 6.9-25.8 10.4-3.6 1.9-7.6 3.7-9 4.1s-3.6 1.5-5 2.5-3.6 2.1-5 2.5-6.5 3.1-11.5 6c-4.9 2.9-11 6.1-13.5 7.1-3.8 1.5-16.7 8.2-22 11.5-.8.5-3.7 2.1-6.3 3.7-2.6 1.5-7 4-9.8 5.7-2.8 1.6-7 4.1-9.3 5.5s-6.9 4.3-10.2 6.5c-3.2 2.2-7 4.5-8.4 5.1s-6.6 4.2-11.5 7.9c-5 3.7-11 7.7-13.4 8.8-4.4 1.9-12.5 7.1-23.2 14.7-3.2 2.2-8.1 5.1-11 6.4-3 1.3-7.8 3.8-10.8 5.5-8.6 5.1-16.5 7.4-22.8 6.8-5.5-.6-5.6-.5-10.6 4.1-9.2 8.7-9.9 14-2.8 21.5 11.4 11.9 20.1 21.6 20.1 22.5 0 1.4 11.2 13.9 14.9 16.7 5 3.6 8.8 3.3 16.8-1.7 8.6-5.3 10.8-7.2 13.8-12.3 1.5-2.6 6.1-7 12-11.6 5.3-4.1 11.3-8.7 13.3-10.2 13-9.9 21.5-18.5 25.6-26 3.5-6.3 20.7-24.1 29.1-30.3 2.2-1.6 4.4-3.4 4.8-4.1s3.6-3.3 7-5.7c3.4-2.5 7.2-5.6 8.4-6.9s4.8-4.2 8-6.3 7.9-5.7 10.5-7.9c7.4-6.4 13.1-10.7 22.8-17.1 3-2 6.9-4.9 8.5-6.4 3.6-3.2 12.7-9 14.2-9 .6 0 1.6-.7 2.3-1.5.7-.9 3.4-2.6 5.9-3.9 2.5-1.2 6.4-3.2 8.6-4.4 12.9-7 34.8-15.2 40.3-15.2 3.1 0 6.2 1.7 6.2 3.4 0 .8-1.1 3.8-2.5 6.8-1.4 2.9-2.5 6.2-2.5 7.3s-1.5 4.2-3.3 7c-1.8 2.7-7.6 11.5-12.9 19.5-5.2 8-10.1 15.4-10.9 16.6-3.8 5.7-18.8 25.1-20.3 26.4-1 .8-4.6 4.8-7.9 9-3.4 4.1-11.1 12.7-17.2 18.9-11.7 12.2-13.5 14-25.8 26-4.3 4.2-9.7 9.8-12 12.4-7.3 8.4-20.7 19.7-23.5 19.7-2.6 0-2.7-.8-.4-7.5 1.2-3.4 3.1-10.7 3.9-14.8.6-3.3-2.5-8.3-7.3-11.6-4.3-3-16.3-5.4-24.4-4.9-5.3.3-8.5 1.4-17.5 5.7-6 2.9-12.9 7-15.1 9-2.3 2-6.5 5.2-9.4 7.1-6.6 4.3-11.4 9.1-14.7 14.8-3.2 5.4-2.3 8 4.4 12.2 6.4 4.1 7.7 3.9 10.4-1.7 3-6.3 16.4-19.3 25.8-24.9 7.2-4.4 8.1-4.7 15.8-5 7-.2 8.5 0 10.7 1.7 1.5 1.2 2.6 3.1 2.6 4.5 0 2.2-3 12.8-5.1 18.2-.5 1.3-.9 3.4-.9 4.8 0 1.6-1.3 3.9-3.3 5.9-5.4 5.4-17.5 7.1-32.2 4.5-13.9-2.4-15-1.6-8 5.9 5.1 5.5 13.7 10.1 18.9 10.1 4.9.1 7 2.2 6.2 6.5-.6 3.1-.4 3.6 1.6 4.4 2.7 1 4.7.1 10.2-4.5 2.1-1.8 5.5-3.9 7.5-4.5 1.9-.7 4.9-2 6.6-3 3.1-1.9 7-2.5 7.8-1.2.2.5-.2 4.8-.9 9.8-.7 4.9-1.3 11.9-1.3 15.5s-.4 7.6-.9 9-1.3 9.1-1.7 17.2l-.7 14.7-4.3 3.9c-2.3 2.2-7.5 6.5-11.6 9.6s-9.4 7.2-11.9 9.1-7 5.2-10 7.5c-3 2.2-7.7 5.8-10.5 8-2.7 2.2-8.1 6-11.8 8.5s-7 5.1-7.3 5.9c-.3.7.3 2.9 1.4 4.7 1.7 3.1 2.3 3.4 6.6 3.4 3.7.1 6.2-.8 12.6-4.5 4.3-2.5 10.7-6.8 14.1-9.5 3.4-2.8 7.7-5.9 9.5-7 1.9-1.1 6.4-4.1 10.1-6.6 3.8-2.6 7.8-5 8.9-5.3 2-.6 2.2-.2 2.8 5.1.7 5.8-.8 42.5-2 49.6-.7 3.7-1 4-11.3 9.1-5.8 3-11.5 6.4-12.6 7.6s-3.3 2.9-5 3.7c-2.5 1.3-12.2 9.1-17.8 14.3-5 4.6-12.6 15-16 21.8-2.1 4.2-2.7 6.8-2.7 11.8 0 6.5.1 6.6 5 11.9 2.8 2.9 6.5 5.9 8.3 6.6s6.7 3.2 11 5.5c4.2 2.4 9.9 4.6 12.5 5 6.6.9 8.9 2 9.6 4.2.9 2.6-3.6 14.5-12 31.7-6.3 13.1-6.6 21.4-1.4 32.3 2.4 5 3.4 5.7 9.9 7.2 4.6 1.1 6.1 1 11-.5 3.1-1 6.8-2.4 8.3-3.1 1.4-.8 3.9-1.6 5.5-1.8 3.4-.5 9.5-2.6 10.7-3.7.6-.5 1.9-.9 3-.9 2.2 0 9-2.5 19.7-7.1 3.6-1.6 7.7-2.9 9.1-2.9s3.6-.8 4.9-1.9c1.3-1 3.5-2.1 4.9-2.5 4.1-1.2 13.4-5.8 15.7-7.9 3.4-3 6.8-10.6 5.4-12-.6-.6-1.1-4.4-1.1-8.7 0-8.7-2-16.5-4.7-18.6-4-3-9.3-.4-10.8 5.4-1.2 4.9-4.5 8.1-13.1 12.6-8.6 4.6-13.9 6.7-38.8 15.4-12.3 4.2-13 4.4-14.3 2.6-.7-1-1.3-2.6-1.3-3.6s3.4-9.1 7.5-17.9c4.1-8.9 7.5-16.8 7.5-17.6s.9-2.2 1.9-3.1c1.7-1.5 3.1-4.6 8.5-19.2.8-1.9 2.1-6 3.1-9s3.1-8.1 4.6-11.2c1.6-3.2 4.2-9.1 5.9-13.3 1.6-4.1 3.4-8.3 3.9-9.2.6-1 1.2-2.9 1.5-4.3.5-2.4 9.5-15.2 11.6-16.5s1.1-8.5-1.7-12.1c-3.7-4.6-6.6-6.1-14.1-7-9.8-1.1-9.7-.8-8.4-16.5.7-7.4.9-14.4.6-15.6-.4-1.3-.1-5.1.5-8.5 1.1-5.8 1.3-9.6 1.2-20.3-.1-5.4 1.5-9 4.7-10.6 3.6-1.8 23.7-22.3 28.5-28.9 2-3 3.7-6.4 3.7-7.9 0-4.8-8.5-15.9-10.6-13.8-.3.2-1.4 3.7-2.5 7.8s-2.6 8-3.3 8.7c-.7.8-3.3 1.8-5.7 2.3-2.4.6-5.8 2.1-7.6 3.5-4.4 3.4-5.7 3.1-4.8-.9 1-4.9 1.4-9.6 2.5-28.7 1.4-24.4 2.3-29.6 5.8-33.9 1.6-2 3.9-4.1 5-4.7 2.3-1.1 5.2-3.8 30.5-27.8 8.7-8.3 17-15.8 18.5-16.8 2.9-1.8 26.7-26.8 39.7-41.8 14.4-16.5 36.5-48 43.2-61.3 11.2-22.4 12.3-25.3 12.9-33.5.6-9.2-1.1-12.9-7.5-16.2-3.5-1.7-5.8-2-17.8-1.9-7.6 0-14.7.4-15.8.9M533.4 827.7c1 6.2.7 11.8-.9 16.3-.8 2.3-1.5 5.4-1.5 6.7 0 1.4-.8 4.1-1.7 6-1.6 3.5-1.7 3.5-7.1 3-6-.6-17.6-5.8-18.6-8.3-2.2-5.9 2.3-11.8 17.9-23.3 8.9-6.7 10.8-6.7 11.9-.4M1270.5 443c-5.1 2.1-12.3 12.1-15.5 21.6-2.5 7.1-2.5 8.1 0 14.6 1.8 4.8 8.2 12.4 17.8 21.1 1.1 1 2.5 3.8 3.2 6.2 1.2 4.1 1 5.5-2.4 17.2-1.9 7.1-4.5 16.4-5.6 20.8-4 15.5-9.9 38.1-11.9 45.5-1.1 4.1-2.1 9.1-2.1 11.1s-.7 5.6-1.5 7.9-1.5 5.5-1.5 7-1.1 6.2-2.5 10.5c-1.4 4.2-2.8 9.2-3.1 11.1s-1.4 6-2.5 9.1c-1 3.1-1.9 6.7-1.9 7.9 0 1.3-2 7.4-4.3 13.6-2.4 6.2-5.9 15.6-7.8 20.8-3.6 10.3-10 21.9-15.8 28.9-5.6 6.7-11.1 14.5-11.1 15.6 0 .6-1.8 3.3-4.1 6-2.2 2.7-4.6 6.3-5.3 8-.8 1.7-2.7 4.7-4.3 6.6-1.7 1.9-3.8 4.8-4.7 6.6-.9 1.7-5.4 8.9-10 16-4.6 7-9.8 15.5-11.7 18.8-5.5 9.9-30.2 46.4-35.6 52.7-1.8 2.1-5.4 7-8 11s-7.6 10.7-11 14.8c-13.9 16.7-18.1 21.6-24.9 29-8 8.7-10.7 14.3-10.2 21 .3 3.7.8 4.7 3.5 6.2 2.9 1.7 3.4 1.8 6.5.4 1.8-.8 5.3-3.1 7.8-5.1 2.5-1.9 7.9-5.8 12.1-8.5 4.1-2.7 9-6.7 10.7-8.9s5.5-5.3 8.4-7c2.9-1.6 9.2-6.5 14-10.8 4.9-4.3 14.5-12.8 21.5-18.8 17.5-15.3 33.6-30.8 39.8-38.6 2.9-3.6 6.7-7.9 8.5-9.5 1.7-1.6 3.7-4 4.5-5.4.7-1.4 3.2-4.5 5.5-7 5.4-5.9 12.4-14.9 14-18 .7-1.4 2.7-4.1 4.5-6 4.2-4.5 12.3-16.6 17-25.5 2.1-3.9 5-9 6.5-11.5s5.1-9 8-14.5 5.9-10.9 6.6-12c.8-1.1 1.4-2.8 1.4-3.8s1.1-3.9 2.4-6.6c1.4-2.6 3.6-8.5 5.1-13.2 1.4-4.6 3-9.8 3.5-11.4.5-1.7 1.4-7.1 2-12 .6-5 2.4-13.7 4.1-19.5 1.6-5.8 3.8-13.9 4.8-18 2.3-9.4 5.6-20.6 8.6-29 4.7-13.6 7.4-22.7 7.9-27 1-8.5 1.5-11.2 3.6-16.6 1.1-3 2-6.6 2-8 0-3.7 2.7-9.4 4.4-9.4.8 0 3.6 1.1 6.2 2.5s5.6 2.5 6.7 2.5 4.5 1.5 7.6 3.3c16.3 9.7 32.5 13.7 47.4 11.8 11.7-1.6 27.8-9.6 37.5-18.6 6.2-5.8 11.2-13 11.2-16.1 0-.4 1.2-2.2 2.6-4.1 1.4-1.8 2.4-3.9 2.2-4.6-1.1-4.4-9.8-18.4-13.9-22.6-4.5-4.4-5.7-5.1-11.7-6.1-5.6-1-8-1-14.2.3-6.9 1.4-15.8 3.9-23.5 6.5-1.6.6-4.8 1.5-7 2-5.5 1.3-16.5 5.1-19.5 6.8-9.9 5.4-17.9 8.6-22.6 9.2l-4.5.5.7-2.9c.4-1.6 1.2-4.8 1.9-7.1.7-2.4 1.1-7.8.9-13.1-.3-7.7-.9-10.1-3.8-16.4-3.3-7.1-9.2-16-13.8-20.6-1.3-1.3-5.2-3.9-8.8-5.9-3.6-1.9-8.7-5-11.5-6.9-9.9-6.5-16.2-8.5-21-6.4m-281.8 53.7c-1.5.8-3.5 2.5-4.4 3.9-1.3 2.1-1.4 2.9-.3 4.9s1 2.8-.2 4.7c-1.1 1.6-1.8 6.2-2.2 14.3-1.6 29.9-3.5 38.9-11.7 55.9-2.2 4.4-3.9 8.6-3.9 9.3s-1.3 4.2-3 7.6c-1.6 3.5-3 6.8-3 7.4 0 .5-4.7 10.4-10.5 22.1-5.8 11.6-10.5 21.4-10.5 21.7s-2.3 5.4-5 11.2c-5 10.4-5.7 13.2-3.3 14 1.5.5 15.2-17.7 16.3-21.9.6-1.8 2.6-5.1 4.5-7.3 4.9-5.4 14.8-20.2 16.5-24.5.8-1.9 3.9-6.2 7.1-9.5 3.1-3.3 7.2-8.5 9.1-11.5 4.4-6.9 12.5-14.5 18-17 6.1-2.6 13.7-8.8 17.3-13.9 2.9-4.1 3-4.7 2.8-13.5-.1-6.6-.8-10.8-2.3-14.5-1.1-2.8-2-6.2-2-7.5 0-6.6-15.6-33.3-21.1-36.2-3.3-1.7-4.5-1.6-8.2.3m-236.8 74.5c-5.3 5.7-6.3 8-6.3 14.3.1 6.3 1.5 19.7 2.5 23 2.2 7.5-2.1 36.9-7.7 52.5-1.3 3.6-3 9.2-3.8 12.5s-3.1 10.3-5.1 15.5c-5.3 13.9-8.9 25-12.3 38-1.6 6.3-3.5 13.5-4.2 16-1.7 6.5-3.1 28.9-2 32.5.4 1.6 1.2 6.1 1.5 10 .9 8.6 3.2 21 4.4 23.3.5.9 2.1 6.6 3.5 12.7 3 12.4 5.8 19.5 15 38.3 2.9 6 8 11.8 11.4 13 2.1.7 4.3.5 9.2-1.1 9.7-3 10.8-3.6 13.6-8.6 1.5-2.5 4-5.8 5.8-7.3 2.9-2.5 3.1-3 3-9.5-.1-7.3-1.9-16.6-4-19.8-.7-1.1-2.2-4.7-3.3-8-3.4-10.4-15.5-32.5-21.7-39.8-5-5.9-13.6-23.1-17.3-34.8-1.5-4.5-1.6-7.3-1.1-15.6.4-5.5 1.1-10.6 1.5-11.3.4-.6 1.3-3.3 2.1-5.8 3.4-12.3 13.5-35.3 21.6-49.3 2.9-5.2 6.4-11.5 7.7-14.2 2.6-5.1 5.5-6.6 9-4.7 2.7 1.4 19.6.3 23.1-1.6 3.6-1.8 10.7-9.4 11.9-12.7 2.1-5.4 1.3-14.2-1.7-21-3.1-6.7-8.6-13.7-10.8-13.7-.7 0-3.8-1.1-6.7-2.6-4.1-1.9-6.2-3.7-8.6-7.5-2.2-3.2-4.1-5.1-5.9-5.5-4.6-1-5.2-1.3-5.8-3.1-1.4-4.5-3.1-6.6-6.2-7.9-5.5-2.2-7.1-1.7-12.3 3.8"/><path d="M1203.4 610.7c-2.3 1.6-6.8 4.6-10 6.9-7 4.8-24.8 14.8-28.4 15.9-1.4.4-3.6 1.5-5 2.5-4.3 3-15.3 7.3-20 7.7-4.8.5-13-2.1-18.1-5.8-3.7-2.6-6.1-2.4-9 .7-3.9 4.1-3.4 13.6 1.5 29.6 2.4 7.9 7.8 17 11.5 19.2 1.1.7 10.1 19.1 10.1 20.6 0 2.2 4.4 9.2 7.3 11.6 2.9 2.5 3.5 2.6 10.6 1.9 13-1.2 17.5-4.8 21.5-16.7 3.1-9.3 3.3-14.1.5-21-1.1-2.9-2.4-8-2.9-11.3-1.2-7.6.7-12.2 8.5-20.7 3-3.4 5.5-6.6 5.5-7.1s4.1-5.2 9-10.5c5-5.3 9-10.2 9-10.9s2-3.5 4.6-6.4c2.5-2.8 4.4-5.8 4.2-6.7-.5-2.8-5.8-2.5-10.4.5M1052 647.1c-1.9 1.2-3.9 2.9-4.4 3.8s-4.1 5-8 9.2c-7.6 8.2-15.9 18.1-21.6 25.8-1.9 2.6-7.3 9-12 14.3-4.7 5.2-11.1 12.8-14.2 16.9-5.2 6.8-22.6 23.9-24.4 23.9-1 0-7 5.4-27.9 25.5-18.3 17.5-36.3 33.8-46 41.7-3 2.5-5.7 3.8-7.5 3.8-3.7 0-7.7 1.8-8.6 3.9-.4.9-1 3.8-1.5 6.6-.4 2.7-1.9 8.1-3.5 12-3.9 9.9-3.6 18.8.9 25.1 3.4 4.8 6.3 6.2 9.5 4.5 1.2-.6 4.2-1.1 6.9-1.1 2.6 0 6.6-.5 8.8-1s7.6-1.4 12-2c4.4-.5 15.7-1.9 25-3.1 13-1.7 22.7-2.2 41-2.3 25.9-.1 34.9.8 49 4.8 15.5 4.5 18.8 5.1 27 5.1 6.6 0 8.7-.4 12.3-2.5 3.8-2.1 4.4-3.1 6.2-9.1 2.3-7.5 2.7-24.1 1-41.3-1.1-11.1-2.3-13-5.7-9.2-2.1 2.4-7.4 17.5-8.7 24.9-.4 2-2.1 5.3-3.8 7.2-2.6 3-3.6 3.5-7.4 3.5-4 0-14.8-2.6-33.4-8-3.6-1-9.9-2.5-14-3.4-9.3-1.9-23-4.6-29-5.7-8.6-1.6-30.6-4.1-41.4-4.8-6-.3-11.1-1.1-11.3-1.6-.4-1.2 30.8-33.2 35.7-36.5 13.9-9.7 53.6-47 91.4-86 4.5-4.7 9.5-9.3 10.9-10.3 1.5-1 2.7-2.5 2.7-3.4s1.6-3.6 3.6-5.9c6-7.5 5.9-18.3-.3-24.1-4.1-3.9-4.7-4-9.3-1.2m-55.5 21c-2.2 1.7-5.6 3.9-7.5 4.8-2 .9-5.6 3.3-8.1 5.3-2.5 2.1-6.3 4.5-8.5 5.4-2.1.9-5.9 3.1-8.4 4.9s-4.9 3.4-5.5 3.6c-.5.2-7.6 4.3-15.7 9.1-8 4.9-15.1 8.8-15.6 8.8-1.3 0-2.5-6.4-2.3-13 .2-6.3-1.8-10.4-4-8.2-1.4 1.3-10.2 17-15.2 27.2-4.4 8.9-4.4 16-.2 24.5 5.4 10.8 15.1 13.4 22.8 6.2 4.2-4 19.7-16.2 25.8-20.4 2.6-1.8 5.7-4.6 7-6.3 3.7-4.7 17-20.4 18.3-21.5 2.5-2.1 21.4-25.2 23.4-28.6 3.5-5.8.2-6.7-6.3-1.8m355.7 78.1c-1 2.2-1 22.8.2 53.8.2 5.8.4 13.9.4 18-.1 4.1.1 9.5.2 12 .6 8.9.5 26.6-.2 30-3.4 17.6-3.8 21.3-2.8 24.8.5 2.1 1 5.1 1 6.9 0 7.6 5.7 13.8 12.5 13.7 6.3-.1 21.7-2.5 25.1-3.9 10.1-4.2 14.1-13 16-35.6.6-7-1.3-17.1-5.6-29.1-1.1-3.2-2-6.8-2-8.1 0-2.5-.5-4.5-7.9-32.3-4-15.3-7.9-24.1-13.2-30.2-1.6-1.8-3.7-4.9-4.8-7-1.8-3.4-14.8-15.2-16.9-15.2-.5 0-1.4 1-2 2.2m108.9 269.7c-1.1 1.1-2.7 3.4-3.6 5.1-2.2 4.2-9.3 13.5-18.5 24.3-4.1 4.9-9 10.7-10.8 13-1.9 2.3-5.5 6.2-8.2 8.7-6 5.5-33.2 34.8-41.9 45-3.5 4.1-8.9 10.2-12 13.4-6.1 6.4-9.8 11.3-19.1 25.1-3.3 4.9-8 11.9-10.6 15.5-4.1 5.9-7.9 11.7-21.8 34-2.6 4.1-7.9 12.9-11.9 19.5-3.9 6.6-8.7 14-10.8 16.5-2 2.5-4.6 6.3-5.7 8.5s-3.2 5.1-4.7 6.5c-2.8 2.5-10.5 13.3-10.5 14.6 0 .4-1.2 2.3-2.7 4.2-1.6 1.9-4.8 6.1-7.3 9.3s-6.9 8.6-9.8 12.1-10.1 12.1-16 19.3c-5.9 7.1-14.4 16.6-18.9 21-5.2 5.1-8.7 9.5-9.6 12-.9 2.2-2.2 6-3.1 8.5s-2.1 5.3-2.6 6.2c-1.8 3.1-1.1 6.2 2 9.2 3.9 3.6 9.4 4.4 14.1 2.1 4-2 18.9-16.4 18.9-18.2 0-.7 1.4-2.3 3.1-3.5 1.7-1.3 5.6-5.7 8.7-9.8s9.2-11.7 13.6-16.7c13.6-15.6 20-23.3 23.3-28.4 1.8-2.6 4.1-5.3 5.3-5.9 1.1-.6 3.2-3 4.7-5.3 2.9-4.6 33.8-38.6 35.8-39.3 2-.8 7.7-9.3 7-10.4-1.1-1.7-3-1.1-6 2-1.6 1.6-3.2 3-3.7 3-.4 0-5.8 4-12 9-14.6 11.6-16.2 10.9-6.9-3.5 1.4-2.1 4.4-7.1 6.6-11 9.1-16.2 13.6-23.5 25-40.7 6.6-9.9 12.9-19.5 14-21.3 1.1-1.7 3.7-5.3 5.8-7.8 2-2.5 3.7-4.9 3.7-5.3s1.9-2.8 4.3-5.4c2.3-2.5 5.5-6.2 7.1-8.1 9.9-11.8 22.9-25.9 23.8-25.9s21.3-19.6 29.1-27.8c2.2-2.3 4.4-4.2 4.9-4.2s4.8-3.5 9.6-7.8c7.4-6.7 10.5-9.6 17.4-16.8.7-.8 4.2-3.9 7.8-6.9 12.9-10.8 15.3-14.1 13.1-17.7-.7-1.1-1.4-2.9-1.7-4.1-.2-1.1-1.8-3.4-3.6-5.2-1.8-1.7-4.8-5.3-6.7-7.8-3.7-5.2-5.1-5.7-8-2.8m-598.5 18c-4.1.8-7.3 6.2-5.8 9.7 1.4 2.9 3.2 3.2 3.2.5s2.8-4.8 3.6-2.8c.6 1.7-1.2 5.7-2.6 5.7s-1.2 5.7.2 8c.9 1.5.9 2.9 0 6.7-.7 2.6-1.9 9.7-2.8 15.8-1.5 10.7-2 14-4.3 33.5-.7 5.2-1.6 12-2.1 15.1-.6 3-1 9.8-1 15s-.5 11-1 12.9c-1.9 6.7-.9 58.1 1.4 70.5.3 1.6 1 6.1 1.5 10 1.6 12.6 3.1 20.8 6.8 36.5 3.4 14.7 3.5 15.6 1.9 18.3-2.1 3.8-2 5.9.4 9 2.7 3.4 2.5 5.5-.5 7.9-4.8 3.7-5.1 5.6-1.4 9.4 3 3.1 3.8 3.4 8.8 3.4 15.1 0 25.8-15.5 22.1-31.6-.7-3.3-2.4-8.3-3.8-11.2-1.3-2.9-2.8-8.1-3.2-11.5-.5-3.4-1.4-7.8-2-9.7-1.1-3.4-3.1-14.9-5-28.3-.6-3.7-1.5-10-2.1-14-1.3-8.8-3.1-31.7-3.2-41.2-.1-8.1 1.8-29.5 3.2-37.5.6-3 1.5-9.8 2.1-15s1.5-12 2-15c.6-3 1.7-10.2 2.4-16 1.7-12.2 4-22.4 6.7-29.5 2.2-5.8 2.4-12 .6-15.3-2.2-3.9-9.7-8.2-14.4-8.2-2.3 0-5.2-.4-6.5-.8-1.3-.5-3.6-.6-5.2-.3m295.3 5.9c-3.6 3.2-3.5 1.8-1.8 31.2 1.3 21.2 1.1 24-2.6 51-.8 5.7-2.3 12.2-3.3 14.5-1.1 2.2-2.3 5-2.8 6.2-1.2 2.9-9.6 9.7-16.4 13.2-6.4 3.3-13.9 7.9-22.8 13.8-3.5 2.4-6.6 4.3-7 4.3-.8 0-16.9 11.4-21.7 15.3-1.6 1.3-5 3.8-7.5 5.5-14 9.4-29.7 29.2-29.9 37.5-.1 3 .4 3.9 2.4 4.9 4.5 2 6.9.4 24.5-16.6 10.5-10.1 39.9-32.3 49.3-37.1 2.1-1.1 6.1-3.9 9-6.3 5.6-4.5 6.7-5 6.7-2.8 0 3.2-13.1 30.4-17.6 36.7-1.9 2.6-3.4 5.1-3.5 5.5 0 .5-1.7 3.4-3.7 6.4-3.5 5.2-4.2 5.7-11.7 8.3-18.1 6.2-17.3 6.1-21.6 4.8-4.4-1.3-7.9-.7-7.9 1.4 0 .7-1.1 2.7-2.5 4.3-3.2 3.8-3.2 6.8.1 12.7 2 3.6 3.7 5.1 7.1 6.6 4.1 1.7 4.7 1.8 7.5.3 3.6-1.9 5.8-1.3 5.1 1.5-.3 1.1-3.6 5.7-7.4 10.3s-6.9 8.7-6.9 9.1c0 2.1 2.3 4.7 4.1 4.7 2.8 0 10-5.7 15.6-12.5 2.7-3.1 8-9.5 11.9-14.1 13.5-15.9 29.4-40.8 43.1-67.4 2.4-4.7 5.5-10.3 6.8-12.5 1.4-2.2 2.5-5.4 2.5-7 0-1.7.9-4.4 2-6 1.1-1.7 2.5-4.8 3.1-7 1.6-6.1 3.2-8 11.1-13.1 14.6-9.3 28.4-23.4 29.5-29.8 1.1-6.8-7.5-15.4-14.1-14.2-4.3.8-7.2 4.7-5.6 7.6 2.1 3.9-7 17.5-9.2 13.6-.4-.8-.4-2.7.2-4.2 4.7-14.3 5.3-64.9.9-75.4-1.2-3-7.5-8-10-8-1 0-3.3 1.2-5 2.8m251 9.6c-8 3.9-16.5 7.9-18.7 8.8-2.4.9-4.2 2.3-4.2 3.2 0 2-3.1 3.6-6.7 3.6-1.5 0-10.1 3.6-19.3 8.2-9.1 4.5-18.5 9.2-21 10.4-8.7 4.3-36.4 14.5-40.9 15-12.7 1.6-16.1 5.7-10.5 13.1 4.8 6.3 18.2 14.1 28.5 16.7 6.4 1.6 6.8 1.6 12-.4 6.3-2.5 15.1-9.5 29.8-23.6 14.8-14.2 22.5-20.8 30.2-26.2 9.6-6.7 37.9-31.1 37.9-32.6 0-3.9-2.7-3.3-17.1 3.8M691 1087.9c-14.8 5.7-19.1 7.7-28.5 12.8-3.8 2.1-8.6 4.5-10.5 5.2-1.9.8-5.7 3.1-8.5 5.1-2.7 2-5.8 4-6.8 4.3-.9.4-5.7 3.2-10.5 6.3-16.6 10.8-18.7 12.1-26.2 16.4-4.1 2.4-10.8 6.2-14.8 8.6s-7.5 4.4-7.8 4.4-2.6 1.6-5.1 3.5-5.3 3.5-6.2 3.5-4 1.6-6.8 3.5c-2.9 1.9-5.8 3.5-6.4 3.5-.7 0-5.4 2.5-10.4 5.5-5.1 3-9.7 5.5-10.2 5.5s-3.4 1.7-6.4 3.8-8.3 5.3-11.9 7.1c-3.6 1.9-9.5 5.4-13.2 7.8s-9.5 5.7-13 7.2c-3.5 1.6-7.4 3.8-8.8 4.9-4.5 3.5-22.5 11.2-26.3 11.2-2 0-4.7.5-6 1.1-2.8 1.3-6 6.2-4.8 7.5.4.5 1.3 2.8 1.9 5.1 2.3 8 20 26.8 28 29.6 10.9 3.9 27.1.6 48.7-9.9 7.7-3.7 17.6-9.1 22.1-11.9 4.4-2.9 11.8-7.1 16.5-9.5 4.6-2.3 10.7-5.7 13.4-7.5 2.8-1.7 6.4-4 8.1-5.1 10.3-6.4 13.1-8.3 17.1-11.7 2.5-2.1 6.2-4.6 8.2-5.7 2.1-1 4.4-2.6 5.1-3.5 1.8-2.2 17.5-15.4 22-18.5 1.9-1.3 4.1-3.2 4.8-4.2s3.9-3.7 6.9-6c7.5-5.5 31.1-29.2 40.3-40.3 4.1-5 11.5-13.3 16.5-18.5 15.3-15.9 18.1-21.1 13.3-24.4-3.9-2.7-10.4-1.8-23.8 3.3m105 62.9c-5.7 8.6-13.8 20.3-18 26-4.1 5.6-9.1 12.5-11.1 15.1-1.9 2.7-4.9 6.5-6.5 8.4s-5.1 6.6-7.8 10.4c-2.8 3.7-6.2 8.1-7.7 9.8-2.8 3.1-5.7 6.9-10.6 14-4.9 7.3-33 36.7-37.6 39.6-4.4 2.6-7.5 2.4-12.8-.9-8.9-5.5-9.7-5.8-12.7-4-3.9 2.2-7.1 9.2-6.2 13.3 1.6 7.2 6.6 18.3 10.5 23.2 2.2 2.8 5.7 7.8 7.7 11.1 3 4.8 4.8 6.5 9.7 9.1 8.4 4.4 13.7 4.3 20.1-.4 4.2-3.1 4.8-4 5.4-8.2.7-5.6.2-7.7-5.3-20.2-2.2-5.2-4.1-10-4.1-10.7 0-5.8 25.6-29.5 38-35.1 4.1-1.9 11.9-3 24.5-3.6 8.8-.4 20.3-7.6 23.1-14.4 2-4.8 1.7-11.8-.9-20.4-2.7-8.6-2.4-14.9 1.1-25.4 1.1-3.3 2.3-7.4 2.6-9 .4-1.7 2.5-8 4.5-14 5.5-15.8 6.9-20.5 7.7-25.3.6-3.7.4-4.2-1.2-4.2-1.3 0-5.1 4.8-12.4 15.8m211.7-9.8c-2.1 1.7-3.1 4.5-6.1 17.3-2 8.4-4.6 20.2-5.7 26.2-1.1 6.1-2.4 13.1-2.9 15.7-.5 2.7-1.2 5.3-1.6 5.9-.3.6-1.3 5.9-2 11.8-.8 5.8-1.9 13.5-2.4 17.1-1.9 12.1-1 22.9 2.2 27.3.7 1 3.6 2.3 6.3 3l5 1.2-.1 6.3c-.1 5.4-.8 7.6-5 16-2.7 5.3-6.7 12.8-9 16.7-6.2 10.6-17.2 32.8-20 40.1-1.3 3.5-2.4 8.3-2.4 10.5s-.5 4.9-1.1 6c-2.1 4 2.5 12.6 8.1 14.9 2.5 1 3.4.8 9.4-3 3.6-2.3 6.6-4.6 6.6-5.1s1.6-1.9 3.6-3.1c2.1-1.2 5.5-5 8-8.7 2.4-3.6 6.1-9.1 8.2-12.2 4.6-6.6 7.6-12.2 13.2-24.4 2.2-5 4.8-10.4 5.7-12 .8-1.7 3.1-7.6 4.9-13.3 2.6-7.9 3.2-10.8 2.4-12.3-1.8-3.2-3.6-2.2-6.9 3.8-10.2 18.4-18.4 30.8-28.1 42.2-6.5 7.7-7.9 9.1-9.2 9.1-1.7 0-.6-2.9 4.2-11 2.8-4.7 5.7-10.1 6.6-12 1.7-3.8 1.8-4 10.6-20.7 10.2-19.6 9.3-27.3-5.1-39.6-1.8-1.5-2.1-2.9-2.1-11 0-5 .5-10.9 1.1-13 .5-2 1.5-7.2 2-11.5 1.6-12.1 2.6-18.3 3.7-24.2.5-3 1.5-9.6 2.2-14.5.7-5 2-11.7 3-15 4-13.3 4.3-15.1 3-18.9-1-3.2-5.1-7.6-7-7.6-.4 0-1.9.9-3.3 2"/><path d="M1032.1 1171.9c-1.9 3.6-10.4 12.1-12.2 12.1-.5 0-1.5 1.2-2.3 2.7-1.2 2.4-1.2 3.3.7 8.3 4.8 13.3 10.5 13.2 25-.8 7.1-6.9 7.7-7.9 7.7-11.5 0-6.7-7.8-14.7-14.2-14.7-2.2 0-3.2.8-4.7 3.9m174.7-.5c-1.6.6-4.3 2.6-6 4.2-1.8 1.7-5.1 4.4-7.3 6s-7.4 5.6-11.5 9c-4.1 3.3-8.3 6.5-9.3 7-.9.6-5.5 4.6-10.1 9-4.5 4.3-14.6 13.9-22.4 21.3-13.8 13-28.5 29.3-40 44.4-3.1 4.1-9 11.3-13 16.1-4 4.7-9.7 11.9-12.7 15.8-5 6.6-5.5 7.7-5.5 12.5 0 4.4.4 5.5 2.6 7.2 1.5 1.2 3.5 2.1 4.5 2.1.9 0 6.5-2.9 12.4-6.5 5.8-3.6 10.8-6.5 11.1-6.5.2 0 .3 5.9.2 13.2l-.3 13.2-9.5 6.4c-5.2 3.5-11 7.5-12.7 8.8-1.8 1.4-6.7 4.3-11 6.6-4.3 2.2-8.1 4.6-8.5 5.2s-.8 3.6-.8 6.7c0 4.8.4 6 2.7 8.3 6.5 6.5 11.5 4.8 26.6-9.5l11.7-11.1v4.4c0 5-4 17.4-7.6 23.5-2.9 5-3 7.6-.4 11.8 2.5 4.1 6.3 5.9 9.3 4.4 4-2.1 7.7-6.3 10.1-11.5 4.5-9.7 5.6-15.4 6-31.4.4-17.6-.4-16 13.1-25.2 9.9-6.7 16.6-8.8 20.2-6.6 2.8 1.7 5.9 7.1 9.4 16 1.7 4.4 3 6.1 5.5 7.3 4.6 2.2 6 1.9 8.7-1.8 4.8-6.4 5.1-7.4 3.6-15-1-5.3-1-7.3-.1-8.8 1.8-2.8 1.5-3.8-1.8-7.6-1.7-1.9-4.6-6.5-6.5-10.2-1.9-3.8-4.2-7.6-5.1-8.6-1.7-1.6-1.8-1.6-3.1.1-.8 1.1-1.3 4.6-1.3 9v7.2l-7.2.7c-9.5.8-16.3 2.8-26.6 7.6-4.6 2.1-8.5 3.9-8.5 3.9-.1 0-.2-4.7-.2-10.5s.3-10.5.7-10.5c.3 0 1.9 1.6 3.5 3.5 2 2.6 3.9 3.7 6.6 4.2 3.5.5 4.4.1 12-5.7 8.8-6.7 11-8.9 19.1-19 6.8-8.6 8.6-11.5 8.6-14.1 0-2.9-3.3-7.3-8.7-11.4-4-3-5.1-3.4-9.5-3.1-2.8.1-5.3.8-5.8 1.6s-2.2 2.1-3.9 2.9c-1.6.9-5.4 3.2-8.3 5.2-11.1 7.6-21.8 13.3-22.9 12.2-1.6-1.6-.6-3 14.7-19.6 23.6-25.7 37.3-39.4 41.5-41.2l3.8-1.8 10.1 9.3c5.5 5.1 10 10 10 11 0 2.3-2.3 4.1-10.9 8.6-8.3 4.4-10.8 7.2-9.1 10.3 2.2 4.2 7.4 5.2 14.5 2.7 2.2-.8 7.8-2.4 12.4-3.7 17.6-4.8 21-15.6 8.6-28-6.4-6.5-9.4-9-15.8-13.4-7.6-5.2-8.6-6.9-5.5-10.2 2.6-2.9 11.9-10.1 19.4-15.3 7.9-5.4 12.1-9.5 14.3-13.9 2.6-4.9 2.6-6.3.3-8.4-2.1-2-4.6-2-8.4-.3m204.7-.1c-8 2.9-19.2 8.1-23.2 10.8-3.3 2.3-4.3 3.6-4.1 5.2.3 2 .9 2.2 7.8 2.2 4.9 0 10.6-.9 16.2-2.5 4.8-1.3 9-2.1 9.4-1.7 1.7 1.7-1.5 16.5-5.4 24.9-7.1 15.5-23.7 36-27.8 34.4-1.4-.5-1.6-1.4-.8-5.9 1.2-7.9.8-17.5-1.1-20.3-1.5-2.4-8.3-6.4-10.8-6.4-.7 0-2.3 1-3.5 2.3-1.9 2-2.1 3-1.6 8.7.4 3.7.1 9.8-.6 14-2.1 12.2-2.7 22-3.5 52-.4 11.8-1.1 24.9-1.6 29s-1.4 15.1-2 24.5c-.8 11.9-1.5 17.4-2.5 18.5-1.2 1.2-2.5 1.2-8.4.2-9.7-1.7-17.5-1.6-19 .3-1.8 2.2 3.1 7.9 9.5 11 2.9 1.5 8.5 5.3 12.4 8.7 7 5.8 7.3 6 10.3 4.7 3.3-1.4 10.2-11.1 13.1-18.6 2.5-6.5 4.1-26.5 5.3-69.6l.7-23.9 4.6-3.1c12.5-8.7 27.7-28.2 38.4-49.2 16.6-32.6 16.7-45.7.6-50-6.2-1.7-8.2-1.7-12.4-.2M965.1 1240c-3.9 3.2-8.1 6.5-9.3 7.1-1.3.7-5 3.3-8.3 5.9-3.4 2.6-9.6 6.6-13.9 9-4.3 2.3-8 5-8.3 5.9-.2.9-.9 2.4-1.4 3.3-.5 1-.9 2.3-.9 2.9 0 2 5 7.8 8 9.4 4.9 2.5 6.9 1.9 12.4-3.9 8.6-9.1 20-22.6 21.5-25.4.8-1.5 2.6-4.1 4.2-5.9 3.2-3.7 7.2-12.1 6.3-13.4-1.1-1.8-3.3-.7-10.3 5.1M580 1269.4c-10.4 3.6-29.8 12.6-37.5 17.5-2.7 1.7-5.5 3.1-6.4 3.1-.8 0-2.9 1.1-4.7 2.5s-4.4 2.9-5.9 3.5c-2.9 1.1-41.7 26.5-56 36.6-19.4 13.8-35.9 30.9-42.5 44.1-5.8 11.6-6.8 16-4.7 21.4 3.5 9.1 4.9 10.5 11 11.2 3 .3 7.6 1.5 10.2 2.7s7.3 2.4 10.4 2.7 7.2 1.4 9.1 2.3c4.5 2.2 11 3.4 18 3.2 10.8-.2 32.2-10.5 48.5-23.3 3.5-2.7 6.8-4.9 7.4-4.9 2.4 0 6.4-3.5 9.6-8.4 4-6.1 11.6-14.3 16.6-18 2.1-1.5 5-5.3 6.8-8.8 2.7-5.1 3.2-6.8 2.6-10.2-.7-4.8-6.2-15.5-8.7-17s-6.9 2.1-8.9 7.4c-2.3 6.3-11.1 17-21.9 26.6-5.2 4.7-11.5 10.4-14 12.8-13.4 12.7-34.1 24.6-44.1 25.4-9.6.7-14.1-3.2-12.5-11.1 1-5 7.6-18.6 12.3-25.3 4.4-6.4 18.1-19.8 24.6-24.2 2-1.3 3.7-2.8 3.7-3.2 0-.5 1.9-1.9 4.3-3.3s7-4.6 10.3-7c3.2-2.4 7.9-5.5 10.4-6.9 2.5-1.3 6.8-3.9 9.5-5.6 4.3-2.8 20.1-10.8 34-17.2 7.4-3.4 17.4-6.1 21.2-5.8 5.8.5 6.5 2.8 5.3 17.9-.5 6.8-1.7 16.2-2.5 20.9s-2 11.9-2.5 16c-.6 4.1-1.7 9.3-2.5 11.6-.7 2.2-1.7 7-2.1 10.5s-2 10.8-3.5 16.1c-3.4 11.5-3.6 15.9-.9 23.1 2.8 7.4 6 10.2 11.5 10.2 3.7 0 5-.6 8-3.5 6.9-6.7 9.5-14.5 13.5-40.5 1.8-11.8 2.9-18.1 4.5-27 1-5 2.1-11.3 2.6-14 .5-2.8 1.2-12.8 1.5-22.3.5-14.7.3-18.4-1.2-24-1-3.7-2.4-7.7-3.2-9-3.6-5.7-18.1-12.2-26.8-12.2-2.8.1-8.9 1.5-14.4 3.4m848.4 48c-2.7 1.2-3.3 2.2-3.9 5.8-.4 2.3-1.6 7-2.7 10.2-1.8 5.1-1.9 6.6-1 11 .7 2.8 1.3 8.7 1.5 13 .4 7.4.6 8.1 3.6 10.8 4 3.6 8.6 3.7 13.2.3 1.9-1.3 5-3.5 7-4.9 9.1-6.2 11.6-12.7 7.6-20.3-1.3-2.7-2.8-5.9-3.2-7.3s-2.2-5.7-4.1-9.6c-4.7-9.6-10.2-12.4-18-9"/><path d="M1332.4 1337.9c-2.8 1.5-7.7 4.9-10.9 7.5-7.3 5.9-17 11.6-31.5 18.5-10.8 5.1-12 5.4-19.5 5.5l-7.9.1-2.4 4c-5.1 8.9 1.7 19.5 12.5 19.5 3.9 0 13.3-3 20.8-6.6 6.9-3.3 20.7-13.8 23.5-17.8.8-1.2 5.3-6 10-10.8 9.5-9.5 15.1-18.8 12.9-21.4-1.5-1.8-1.5-1.8-7.5 1.5"/></svg>