<svg xmlns="http://www.w3.org/2000/svg" width="2365" height="1391" viewBox="0 0 2365 1391">
  <defs>
    <style>
      .cls-1 {
        fill-rule: evenodd;
        fill: var(--svg-color, #CC0000);
      }
    </style>
  </defs>
  <path class="cls-1" d="M399.334,186.235c44.721-8.614,45.157,49.024,33.3,84.661-56.918,80.468-112.22,162.552-165.968,249.619-28.4,34.074-51.033,97.925-76.572,139.122-11.127,22.785-22.777,45.047-36.23,68.206-11.576,17.552-28.431,61.434-38.581,78.714,0,2.609,0,5.218,2.609,7.826-2.174,4.783,3.478,1.739,6.862,1.908,46.212-23.889,75.082-60.757,128.785-82.774,1.739,5.652,7.391-.435,7.416,5.842,15.741,31.173,8.938,79.966-9.687,96.23-18.726,35.185-43.06,64.763-60.512,106.616-8.33,26.086-18.387,52.172-15.449,80.835,7.879,19.08,24.358,29.56,40.356,42.09,20.26,15.01,8.789,56.2-7.222,85.4-4.913,34.58-24.078,50.76-23.557,87.39,7.323,3.26,14.067-7.63,27.225-4.02,0.888,30.61-17.284,36.62-21.61,56.45-25.307,42.96-20.1,97.99-76.306,91.44-30.546-6.63-29.8-59.89-15.477-86.44,21.3-47.48,33.507-102.35,55.662-154.92,13.242-24.07,15.509-55.96-3.244-64.52-14.258-11.83-30.945-21.23-42.136-40.05-8.986-35.38,6.523-79.444,23.259-103.247,13.29-34.616,27.323-59.478,40.415-84.318-0.87-1.739,2.173-7.391-5.936-5.935-20.159,22.447-45.295,39.919-66.888,63.542C91.3,918.225,77.98,925.775,65.379,937.851c-4.47,8-29.165,24.538-48.286,12.84-24.173-37.465,6.8-93.346,21.429-125.678,14.323-28.439,27.2-59.436,43.908-99.926,12.664-32.772,24.808-50.815,37.341-77.047,41.864-94.4,89.391-155.894,137.271-237.091,23.712-36.286,49.394-70.6,73.892-108.474C359.379,268.52,372.708,225.094,399.334,186.235Zm206.519,442.9c4.4-.531,14.925,1.842,18.1,5.257-3.043,5.652,5.652-.435,3.934,6.451,8.918,46.347-11.073,70.815-27.144,92.942-23.373,34.017-51.433,63.346-70.74,104.808-10.846,12.408-20.781,44.223-32.914,60.2-4.011,23.837-26.091,45.6-21.027,75.242,35.959-11.118,49.556-44.009,109.268-40.891,23.44,5.135,17.569,63.3-2.941,66.027-60.371,19.168-77.111,38.588-120.3,57.678-12.662,6.47-25.1,13.16-39.045,21.67-5.421,5.36-25.682,16.74-42.972,8.82-13.067-28.1,8.841-60.8,17.427-94.7,32.7-59.47,68.345-147.441,103.847-201.738,0-2.609,0-5.217-2.608-7.826,2.173-5.652-3.479.435-8.481-5.429-38.941,13.379-102,14.1-109.1-26.565,6.77-23.239,43.827-9.863,69.1-27.084C526.055,698.981,548.5,660.737,605.853,629.133ZM892.641,321.358c6.087,0,12.174,0,21.286.765,25.275,5.677,24.561,39.812,23.516,72.276-6.474,52.172-23.727,104.344-33.066,159.857,12.1,39.255,32.878,47.052,48.532,82.9,4.164,115.726-60.611,254.873-102,312.875-1.74-.869-7.392,2.174-9.486-2.608,15.546-63.476,24.436-126.952,36.4-193.037,3.389-31.3,11.38-62.606,4.253-96.381-8.55-22.753-25.532-37.075-38.642-60.135-4.668-46.954,13.749-93.909,17.4-143.473,6.428-22.608,9.31-45.215,12.924-71.069C878.86,364.044,876.152,330.03,892.641,321.358Zm52.172,547.806a94.349,94.349,0,0,1,11.5.651c26.124,9.624,31.542,53.456,27.621,93.258-0.393,37.387,2.29,74.777-5.45,114.817-4.71,6.62-2.642,10.33-7.589,15.61-5.652-3.04.435,5.66-8.348,5.59-44.825,5.82-32.592-65.41-31.2-102.362C936.241,954.668,935.224,908.187,944.813,869.164Zm86.017-169.492c9.79-.226,20.28-1.146,25.7,4.7,14.77,20.453,12.13,58.942,9.03,89.728-4.22,25.707,2.27,71.687-32.05,72.455-2.61-4.782-5.22-1.739-8.45-4.421-8.39-23.6-2.71-55.3-8.37-85.029C1023.38,753.075,1014.61,713.328,1030.83,699.672Zm95.71-687.734c47.46-9.33,62.36,22.689,57.74,69.428,4.14,39.129-7.61,78.258-4.69,120,5.65,1.739-.44,7.391,5.21,7.826,2.61-3.043,5.22,5.652,11.37,1.341,30.31-10.844,39.84-42.139,93.5-34.857,11.43,5.67,15.96,10.405,24.79,20.736-7.51,63.447-44.42,75.7-80.09,106.69-2.61,3.043-5.22-5.652-8.19-4.3-8.37-8.991,5.15-25.806,3.88-40.924-21.41-5.276-43.56,13.239-57.23,19.815-11.36,12.272-14.44,43.569-8.54,66.789,2.34,3.744,8.98,3.2,18.33,2.028,25.54-10.839,37.09-24.883,67.3-35.839,27.15-.8,32.19,18.839,32.33,47.9-6.03,36.375-33.4,40.865-53.07,61.948-19.87,16.644-34.92,38.119-52.2,59.967,0,2.609,0,5.218.38,11.249,17.41,1.728,44-9.3,56.72,4.4,5.35,9.565,1.86,19.13,2.97,32.276-10.99,23.462-30.51,30.657-44.44,51.15-2.13,20.279,22.46,10.3,20.45,37.675-9.33,19.37-30.03,22.225-48.16,34.646-12.78,8.151-36.44,25.328-67.71,19.516-19.7-15.869-2.01-57.465,9.86-65.2,14.19-12.764,25.07-28.841,41.23-42.239V553.523a37.805,37.805,0,0,0-9.47.959c-18.15,12.288-30.48,30.386-55.52,40.559-11.02,1.449-19.11-.021-24.58-5.717,1.53-58.969,29.92-87.038,50.41-111.489,20.29-27.531,47.99-47.655,67.86-78.219a39.332,39.332,0,0,0-1.61-11.528c-25.11,15.3-40.31,31.5-65.01,46.366-16.18,11.692-28.31,21.195-55.36,27.667-24.48,2.877-30.76-10.5-32.34-34.96,8.02-18.908,37.73-23.072,65.35-38.71,26.52-.114,27.1-41.9,15.93-69.7-5.65,3.044.43-5.652-8.35-4.318-18.91,6.6-28.36,16.971-49.31,24.4-17.04,6.453-42.3,3.533-53.451-5.706-18.606-35.683,47.511-36.726,59.081-52.979,25.57-11.274,52.54-19.18,63.64-34.442,7.67-40,1.98-80,4.71-123.432C1132.69,87.03,1107.6,36.423,1126.54,11.938Zm92.18,653.755c6.08,0,12.17,0,21.06.721,12.93,4.17,17.07,9.3,25.2,20.148,6.79,32.172-15.68,64.345-25.5,98.6-8.26,33.58-9.76,72.421-49.79,59.721-20.45-35.406,6.14-74.733,10.77-113.975,3.04-5.652-5.66.435-4.75-5.379-55.3-4.024-24.8,68.316-37.19,107.264-2.04,43.534-12.33,89.57.48,130.558,13.08,0.037,13.84-12.241,25.8-15.929,2.61,0,5.22,0,7.83,2.608,4.78,2.609,1.74,5.218,2.95,12.764-27.54,42.516-8.98,146.566-79.39,124.546-19.26-62.91,4.28-130.358-1.88-197.307,5.67-32.173,1.01-64.346,2.15-97.169,3.6-47.066-28.57-39.354-38.43-69.889,2.67-16.583,18.05-11.468,35.52-19.909,4.49-12.184,16.73-35.653,46.74-19.107C1190.46,686.153,1195.01,673.045,1218.72,665.693Zm223.85-347c19.78-.85,31.27,6.215,37.92,20.457-2.59,48.082-26.47,52.621-40.33,97.333-14.2,38.842-31.7,84.424-46.67,122.261,5.65-3.043-.43,5.652,8.54,3.323,15.12-8.363,24.35-22.6,41.49-30.688,9.34-14.607,55-19.2,42.95,17.957-13.28,36.164-46.72,48.959-68.15,78.03-29.31,21.962-41.91,48.513-95.22,56.907-6.93-2.9-11.19-4.183-13.9-10.75-0.42-51.3,30.21-102.605,40.49-156.516,12.52-25.217,17.72-50.433,26.22-77.025,18.33-36.107-20.46-27.559-42.14-40.639-3.14-2.947-2.77-9.4-7.99-14-1.19-23.523,43.07-24.14,56.84-37.921C1402.81,337.055,1412.58,326.039,1442.57,318.689Zm-62.12,388.742c6.09,0,12.17,0,20.45.708,18.69,4.113,22.91,36.316,23.24,64.507,2.52,94.779-12.68,189.558,2.95,286.944,3.1,22.61-6.84,45.22-11.79,68.77-34.23,37.94-66.25,78.09-110.66,111.38-4.39-1.69-14.92,2.75-21.04-2.17,7.32-51.18,33.78-83.7,45.62-123.2,37.76-69.56,28.73-139.123,32.1-211.294,3.14-33.912,4.68-67.824-2.4-105.4C1362.86,769.576,1352,717.9,1380.45,707.431Zm936.49-182.6a52.982,52.982,0,0,0-9.71.727c-101.28,130.885-254.33,210-388.65,310.453C1821.76,913.1,1713.66,978.9,1604.21,1046.89c-10.41,16.13-44.04,20.55-65.97,42.02,7.49,29.89,20.41,36.39,56.61,45.14,59.02-14.68,76.96-40.53,114.27-66.65,65.55-34.44,104.1-95.888,170.84-131.752,83.81-67.49,187.32-115.275,268.63-187.872,38.92-36.734,82.33-68.971,126.72-102.846,22.36-15.025,43.06-31.714,60.94-53.707C2357.44,579.674,2365.23,515.093,2316.94,524.829ZM2032.6,863.947h10.43c5.66-3.044-.43,5.651,6.62,6.888-16.31,41.307-40.05,61.112-51.59,105.912,4.91,4.654,18.68.444,28.14,4.979-0.11,31.144-24.53,35.444-34.46,57.874-27.14,25.91-41.58,64.51-69.03,94.64-42.2,7.03-64.83-17.56-53.76-66.38,19.95-45.6,49.52-70.843,76.97-107.987C1974.47,927.549,1999.28,891.5,2032.6,863.947Zm202.48-65.973c44.16,5.368,67.07,22.218,80.26,44.259,26.47,22.479,8.05,77.9-9.68,88.366-21.84,17.525-39.28,32.792-77.42,40.3,2.18-5.652-3.47.435-5.94-7.826,0.72-30.433,26.52-60.867,24.66-94.365-4.74-25.691-27.72-33.143-44.8-49.108,3.04-2.608-5.65-5.217-.4-10.363C2205.5,798.188,2225.16,803.591,2235.08,797.974ZM1927.23,424.606c35.15,8.138,46.9,14.31,54.21,45.442,12.65,49.563,7.38,99.127,17.6,152.188-2.9,31.222,7.21,80.1-13.17,101.415-34.88,17.814-36.46-19.122-47.77-47.524a595.221,595.221,0,0,1-15.03-127.821c-0.56-20.869,1.88-41.738-3.23-65.7,5.52-17.65-13.64-46.612,5.32-56.836C1928.26,425.7,1928.26,425.7,1927.23,424.606Zm340.44-142.353c23.43-2.406,32.08,13.472,29.69,43.673-15.5,28.974-38.22,42.193-61.67,62.57-15.72,15.77-35.1,21.325-39.78,55.466-5.55,45.216-11.56,90.431-34.7,136.436-14.77,31.32-32.36,59.808-55.37,85.1-8.63,2.536-8.44-3.735-13.46-7.628-0.24-28.694,11.15-57.389,17.08-88.888,5.41-27.582,21.2-58.64,17.05-85.888-5.65,3.043.43-5.652-8.77-2.717-21.4,11.449-36.44,21.278-53.9,37.246-17.61,7.415-24.75,36.048-57.24,25.469-2.94-9.565-6.48-19.13-5.77-34.065C2079.5,423.184,2184.76,366.522,2267.67,282.253ZM2155.2,65.715c2.61,0,5.22,0,10.6-.158,4.87,1.208,5.24,6.934,12.88,7.984,0.87,1.739-2.17,7.391,2.61,7.826,1.74,0.869,7.39-2.174,6.69,4.707,15.74,13.933,36.28,53.177,24.11,95.931-23.22,31.3-38.05,68.053-76.67,85.66-29.67,23.368-57.56,48.52-92.39,71.953-2.6-4.782-5.21-1.739-7.82-5.217V322.456c22.55-34.882,46.97-62.693,67.35-101.554,8.91-17.029,19.51-48.182,29.36-77.456C2145.05,118.736,2141.15,83.948,2155.2,65.715Z"/>
</svg>
